<svg width="66" height="66" viewBox="0 0 66 66" fill="none" xmlns="http://www.w3.org/2000/svg" >
<circle cx="33" cy="33" r="31.8965" fill="#56BF94" stroke="#F2F2F2" stroke-width="2.20696"/>
<path d="M33.5428 18.5535L46.7428 23.8334C47.2562 24.0388 47.6668 24.6547 47.6668 25.1974V30.0668C47.6668 30.8734 47.0068 31.5334 46.2002 31.5334H19.8002C18.9935 31.5334 18.3335 30.8734 18.3335 30.0668V25.1974C18.3335 24.6547 18.7442 24.0388 19.2575 23.8334L32.4575 18.5535C32.7508 18.4361 33.2495 18.4361 33.5428 18.5535Z" stroke="white" stroke-width="2.20696" stroke-miterlimit="10" stroke-linecap="round" stroke-linejoin="round"/>
<path d="M47.6668 47.6667H18.3335V43.2667C18.3335 42.46 18.9935 41.8 19.8002 41.8H46.2002C47.0068 41.8 47.6668 42.46 47.6668 43.2667V47.6667Z" stroke="white" stroke-width="2.20696" stroke-miterlimit="10" stroke-linecap="round" stroke-linejoin="round"/>
<path d="M21.2666 41.8V31.5334" stroke="white" stroke-width="2.20696" stroke-miterlimit="10" stroke-linecap="round" stroke-linejoin="round"/>
<path d="M27.1333 41.8V31.5334" stroke="white" stroke-width="2.20696" stroke-miterlimit="10" stroke-linecap="round" stroke-linejoin="round"/>
<path d="M33 41.8V31.5334" stroke="white" stroke-width="2.20696" stroke-miterlimit="10" stroke-linecap="round" stroke-linejoin="round"/>
<path d="M38.8662 41.8V31.5334" stroke="white" stroke-width="2.20696" stroke-miterlimit="10" stroke-linecap="round" stroke-linejoin="round"/>
<path d="M44.7339 41.8V31.5334" stroke="white" stroke-width="2.20696" stroke-miterlimit="10" stroke-linecap="round" stroke-linejoin="round"/>
<path d="M16.8667 47.6667H49.1334" stroke="white" stroke-width="2.20696" stroke-miterlimit="10" stroke-linecap="round" stroke-linejoin="round"/>
<path d="M33.0003 27.8667C34.2153 27.8667 35.2003 26.8818 35.2003 25.6667C35.2003 24.4517 34.2153 23.4667 33.0003 23.4667C31.7853 23.4667 30.8003 24.4517 30.8003 25.6667C30.8003 26.8818 31.7853 27.8667 33.0003 27.8667Z" stroke="white" stroke-width="2.20696" stroke-miterlimit="10" stroke-linecap="round" stroke-linejoin="round"/>
</svg>
