<svg width="40" height="41" viewBox="0 0 40 41" fill="none" xmlns="http://www.w3.org/2000/svg">
<path d="M12.08 37.7245H4.75808C3.13475 37.7245 2.31738 37.0232 2.31738 35.6302V24.2335C2.31738 22.8406 3.13475 22.1392 4.75808 22.1392H9.63941C11.2627 22.1392 12.08 22.8406 12.08 24.2335V26.0355" stroke="white" stroke-width="2.20696" stroke-miterlimit="10" stroke-linecap="round" stroke-linejoin="round"/>
<path d="M12.313 37.7111L27.9195 37.7111" stroke="white" stroke-width="2.20696" stroke-miterlimit="10" stroke-linecap="round" stroke-linejoin="round"/>
<path d="M27.9338 37.6976L12.0938 37.7245L12.0806 17.6385C12.0806 16.7378 12.5294 15.9041 13.2554 15.4067L18.5354 11.8171C19.4198 11.2121 20.5813 11.2121 21.4657 11.8171L26.7457 15.4067C27.4849 15.9041 27.9206 16.7378 27.9206 17.6385L27.9338 37.6976Z" stroke="white" stroke-width="2.20696" stroke-miterlimit="10" stroke-linecap="round" stroke-linejoin="round"/>
<path d="M12.0806 26.9555H27.9206" stroke="white" stroke-width="2.20696" stroke-miterlimit="10" stroke-linecap="round" stroke-linejoin="round"/>
<path d="M20 37.7111V32.6695" stroke="white" stroke-width="2.20696" stroke-miterlimit="10" stroke-linecap="round" stroke-linejoin="round"/>
<path d="M20.0005 22.25C21.094 22.25 21.9805 21.3471 21.9805 20.2333C21.9805 19.1196 21.094 18.2167 20.0005 18.2167C18.907 18.2167 18.0205 19.1196 18.0205 20.2333C18.0205 21.3471 18.907 22.25 20.0005 22.25Z" stroke="white" stroke-width="2.20696" stroke-miterlimit="10" stroke-linecap="round" stroke-linejoin="round"/>
<path d="M27.9327 37.7245H35.2546C36.8779 37.7245 37.6953 37.0232 37.6953 35.6302V24.2335C37.6953 22.8406 36.8779 22.1392 35.2546 22.1392H30.3733C28.75 22.1392 27.9327 22.8406 27.9327 24.2335V26.0355" stroke="white" stroke-width="2.20696" stroke-miterlimit="10" stroke-linecap="round" stroke-linejoin="round"/>
<path d="M31.665 30.9889L34.305 30.9889" stroke="white" stroke-width="2.20696" stroke-miterlimit="10" stroke-linecap="round" stroke-linejoin="round"/>
<path d="M5.87891 30.9889L8.51891 30.9889" stroke="white" stroke-width="2.20696" stroke-miterlimit="10" stroke-linecap="round" stroke-linejoin="round"/>
<path d="M31.665 27.5706L34.305 27.5706" stroke="white" stroke-width="2.20696" stroke-miterlimit="10" stroke-linecap="round" stroke-linejoin="round"/>
<path d="M5.87891 27.5706L8.51891 27.5706" stroke="white" stroke-width="2.20696" stroke-miterlimit="10" stroke-linecap="round" stroke-linejoin="round"/>
<path d="M20.0063 6.96338V11.3634" stroke="white" stroke-width="2.20696" stroke-miterlimit="10" stroke-linecap="round" stroke-linejoin="round"/>
<path d="M20.0063 2.56335C22.353 3.50202 24.993 3.50202 27.3397 2.56335V6.96335C24.993 7.90202 22.353 7.90202 20.0063 6.96335V2.56335Z" stroke="white" stroke-width="2.20696" stroke-miterlimit="10" stroke-linecap="round" stroke-linejoin="round"/>
</svg>
