<svg width="30" height="30" viewBox="0 0 30 30" fill="none" xmlns="http://www.w3.org/2000/svg">
<circle cx="15" cy="15" r="14.5" fill="#FF9D29" stroke="white"/>
<path d="M20.5321 20.467V16.4412C20.5261 15.8369 20.2802 15.2597 19.8487 14.8366C19.4172 14.4135 18.8353 14.1791 18.231 14.185H14.9305C14.5798 14.1838 14.2333 14.2624 13.9174 14.4149C13.6014 14.5673 13.3243 14.7896 13.107 15.065" stroke="white" stroke-miterlimit="10"/>
<path d="M15.3385 17.2775C15.2684 16.6906 14.9856 16.1497 14.5435 15.7573C14.1014 15.3649 13.5308 15.1483 12.9397 15.1483H11.0323C10.3917 15.1483 9.77734 15.4028 9.32435 15.8558C8.87137 16.3088 8.61688 16.9232 8.61688 17.5638V20.467" stroke="white" stroke-miterlimit="10"/>
<path d="M18.0975 22.3248V19.7527C18.0975 19.1475 17.5564 18.6732 16.9931 18.8945C16.5531 19.0674 16.1487 19.3049 15.7993 19.5985C15.397 19.9585 15.0903 20.3883 14.9001 20.8588C14.7098 21.3293 14.6406 21.8293 14.697 22.3248" stroke="white" stroke-miterlimit="10"/>
<path d="M11.2785 22.3248V19.7527C11.2785 19.1475 11.8197 18.6732 12.383 18.8946C12.8229 19.0674 13.2273 19.3049 13.5767 19.5985C13.9789 19.9585 14.2856 20.3884 14.4758 20.8589C14.666 21.3293 14.7353 21.8293 14.679 22.3248" stroke="white" stroke-miterlimit="10"/>
<path d="M11.8173 13.5022C10.9279 13.5022 10.207 12.7813 10.207 11.8919C10.207 11.0026 10.9279 10.2816 11.8173 10.2816C12.7067 10.2816 13.4276 11.0026 13.4276 11.8919C13.4276 12.7813 12.7067 13.5022 11.8173 13.5022Z" stroke="white" stroke-miterlimit="10"/>
<path d="M17.0956 12.7866C15.9592 12.7866 15.038 11.8653 15.038 10.7289C15.038 9.59255 15.9592 8.67133 17.0956 8.67133C18.232 8.67133 19.1532 9.59255 19.1532 10.7289C19.1532 11.8653 18.232 12.7866 17.0956 12.7866Z" stroke="white" stroke-miterlimit="10"/>
<path d="M20.8903 12.8148C21.4827 13.4088 22.548 13.3188 22.548 13.3188C22.548 13.3188 22.6359 12.2525 22.0435 11.6584C21.451 11.0644 20.3877 11.1524 20.3877 11.1524C20.3877 11.1524 20.2982 12.2188 20.8903 12.8148Z" fill="white"/>
</svg>
