<svg width="30" height="30" viewBox="0 0 30 30" fill="none" xmlns="http://www.w3.org/2000/svg">
<circle cx="15" cy="15" r="14.5" fill="#3763FF" stroke="white"/>
<path d="M9.66671 14.3333H9.00004C8.63337 14.3333 8.33337 14.0333 8.33337 13.6667V11.4533C8.33337 11.2067 8.52004 10.9267 8.75338 10.8333L14.7534 8.43334C14.8867 8.38001 15.1134 8.38001 15.2467 8.43334L21.2467 10.8333C21.48 10.9267 21.6667 11.2067 21.6667 11.4533V13.6667C21.6667 14.0333 21.3667 14.3333 21 14.3333H20.3334" stroke="white" stroke-miterlimit="10" stroke-linecap="round" stroke-linejoin="round"/>
<path d="M21.6667 21.6667H8.33337V20.1667C8.33337 19.8917 8.63337 19.6667 9.00004 19.6667H21C21.3667 19.6667 21.6667 19.8917 21.6667 20.1667V21.6667Z" stroke="white" stroke-miterlimit="10" stroke-linecap="round" stroke-linejoin="round"/>
<path d="M9.66663 19.6667V14.3333" stroke="white" stroke-miterlimit="10" stroke-linecap="round" stroke-linejoin="round"/>
<path d="M20.3334 19.6667V14.3333" stroke="white" stroke-miterlimit="10" stroke-linecap="round" stroke-linejoin="round"/>
<path d="M7.66663 21.6667H22.3333" stroke="white" stroke-miterlimit="10" stroke-linecap="round" stroke-linejoin="round"/>
<path d="M14.498 15.7228C14.4778 15.7228 14.4613 15.7064 14.4613 15.6861C14.4654 15.2964 14.5062 14.9862 14.5837 14.7557C14.6613 14.5251 14.7714 14.3384 14.9143 14.1956C15.0571 14.0528 15.2285 13.9212 15.4284 13.8008C15.5488 13.7274 15.6569 13.6407 15.7528 13.5407C15.8487 13.4387 15.9242 13.3213 15.9793 13.1887C16.0364 13.0561 16.065 12.9092 16.065 12.748C16.065 12.5481 16.0181 12.3746 15.9242 12.2277C15.8304 12.0808 15.7049 11.9676 15.5478 11.888C15.3907 11.8084 15.2162 11.7687 15.0244 11.7687C14.8571 11.7687 14.696 11.8033 14.5409 11.8727C14.3858 11.9421 14.2563 12.0512 14.1522 12.2002C14.1055 12.267 14.0676 12.3431 14.0386 12.4285C13.9727 12.6222 13.8127 12.7847 13.6081 12.7847C13.3861 12.7847 13.2038 12.5971 13.2579 12.3818C13.3031 12.2019 13.3737 12.0394 13.4697 11.8941C13.635 11.6473 13.8523 11.4585 14.1216 11.328C14.393 11.1974 14.6939 11.1321 15.0244 11.1321C15.3835 11.1321 15.6957 11.2035 15.961 11.3463C16.2282 11.4891 16.4343 11.685 16.5792 11.9339C16.7261 12.1828 16.7995 12.4665 16.7995 12.7847C16.7995 13.0092 16.7648 13.2122 16.6955 13.3938C16.6281 13.5754 16.5302 13.7376 16.4017 13.8804C16.2752 14.0232 16.1221 14.1497 15.9426 14.2599C15.763 14.3721 15.6192 14.4904 15.5111 14.6149C15.4029 14.7373 15.3244 14.8832 15.2754 15.0526C15.2264 15.2219 15.1999 15.4331 15.1958 15.6861C15.1958 15.7064 15.1794 15.7228 15.1591 15.7228H14.498ZM14.8531 17.5346C14.7021 17.5346 14.5725 17.4805 14.4644 17.3724C14.3562 17.2643 14.3022 17.1347 14.3022 16.9837C14.3022 16.8327 14.3562 16.7032 14.4644 16.595C14.5725 16.4869 14.7021 16.4328 14.8531 16.4328C15.004 16.4328 15.1336 16.4869 15.2417 16.595C15.3499 16.7032 15.4039 16.8327 15.4039 16.9837C15.4039 17.0837 15.3784 17.1755 15.3274 17.2592C15.2785 17.3428 15.2122 17.4101 15.1285 17.4612C15.0469 17.5101 14.9551 17.5346 14.8531 17.5346Z" fill="white"/>
<path fill-rule="evenodd" clip-rule="evenodd" d="M14.4613 15.6861C14.4654 15.2964 14.5062 14.9862 14.5837 14.7557C14.6613 14.5251 14.7714 14.3384 14.9143 14.1956C15.0571 14.0528 15.2285 13.9212 15.4284 13.8008C15.5488 13.7274 15.6569 13.6407 15.7528 13.5407C15.8487 13.4387 15.9242 13.3213 15.9793 13.1887C16.0364 13.0561 16.065 12.9092 16.065 12.748C16.065 12.5481 16.0181 12.3746 15.9242 12.2277C15.8304 12.0808 15.7049 11.9676 15.5478 11.888C15.3907 11.8084 15.2162 11.7687 15.0244 11.7687C14.8571 11.7687 14.696 11.8033 14.5409 11.8727C14.3858 11.9421 14.2563 12.0512 14.1522 12.2002C14.1055 12.267 14.0676 12.3431 14.0386 12.4285C13.9727 12.6222 13.8127 12.7847 13.6081 12.7847C13.3861 12.7847 13.2038 12.5971 13.2579 12.3818C13.3031 12.2019 13.3737 12.0394 13.4697 11.8941C13.635 11.6473 13.8523 11.4585 14.1216 11.328C14.393 11.1974 14.6939 11.1321 15.0244 11.1321C15.3835 11.1321 15.6957 11.2035 15.961 11.3463C16.2282 11.4891 16.4343 11.685 16.5792 11.9339C16.7261 12.1828 16.7995 12.4665 16.7995 12.7847C16.7995 13.0092 16.7648 13.2122 16.6955 13.3938C16.6281 13.5754 16.5302 13.7376 16.4017 13.8804C16.2752 14.0232 16.1221 14.1497 15.9426 14.2599C15.763 14.3721 15.6192 14.4904 15.5111 14.6149C15.4029 14.7373 15.3244 14.8832 15.2754 15.0526C15.2264 15.2219 15.1999 15.4331 15.1958 15.6861C15.1958 15.7064 15.1794 15.7228 15.1591 15.7228H14.498C14.4778 15.7228 14.4613 15.7064 14.4613 15.6861ZM15.3292 15.6875C15.3284 15.7808 15.2525 15.8561 15.1591 15.8561H14.498C14.4041 15.8561 14.328 15.78 14.328 15.6861H14.4613L14.328 15.6847C14.3321 15.2883 14.3735 14.9625 14.4574 14.7132C14.5401 14.4671 14.6599 14.2614 14.82 14.1013C14.9715 13.9499 15.1516 13.8119 15.3593 13.6868C15.4697 13.6194 15.5686 13.5401 15.6561 13.4489C15.7405 13.359 15.8072 13.2555 15.8562 13.1376L15.8568 13.136C15.906 13.0218 15.9317 12.8932 15.9317 12.748C15.9317 12.5697 15.8901 12.422 15.8119 12.2995C15.731 12.1729 15.6236 12.0759 15.4875 12.007C15.3507 11.9377 15.1972 11.902 15.0244 11.902C14.8762 11.902 14.7335 11.9326 14.5953 11.9944C14.4639 12.0532 14.3527 12.146 14.2615 12.2766C14.2227 12.3321 14.1903 12.3967 14.1648 12.4714C14.088 12.6972 13.89 12.9181 13.6081 12.9181C13.3205 12.9181 13.0485 12.6682 13.1286 12.3493C13.1772 12.1558 13.2536 11.9792 13.3585 11.8206L13.3589 11.82C13.5375 11.5533 13.773 11.3488 14.0634 11.208C14.3545 11.0679 14.6759 10.9987 15.0244 10.9987C15.4014 10.9987 15.7361 11.0738 16.0242 11.2289C16.3118 11.3827 16.5363 11.5954 16.6942 11.8665C16.8543 12.1379 16.9329 12.4452 16.9329 12.7847C16.9329 13.0227 16.8961 13.242 16.8203 13.4408C16.7472 13.6376 16.6407 13.814 16.5011 13.9692C16.3652 14.1225 16.202 14.2571 16.0128 14.3733C15.8417 14.4803 15.709 14.5903 15.6117 14.7024L15.611 14.7032C15.5169 14.8097 15.4474 14.9377 15.4035 15.0896C15.3589 15.2437 15.3332 15.442 15.3292 15.6875ZM15.1979 17.575L15.1971 17.5755C15.0933 17.6378 14.9774 17.6679 14.8531 17.6679C14.6662 17.6679 14.5029 17.5995 14.3701 17.4667C14.2373 17.3339 14.1688 17.1706 14.1688 16.9837C14.1688 16.7969 14.2373 16.6335 14.3701 16.5008C14.5029 16.368 14.6662 16.2995 14.8531 16.2995C15.0399 16.2995 15.2032 16.368 15.336 16.5008C15.4688 16.6335 15.5373 16.7969 15.5373 16.9837C15.5373 17.1073 15.5055 17.2228 15.4419 17.3276C15.3817 17.43 15.2998 17.5128 15.1979 17.575ZM15.3274 17.2592C15.3784 17.1755 15.4039 17.0837 15.4039 16.9837C15.4039 16.8327 15.3499 16.7032 15.2417 16.595C15.1336 16.4869 15.004 16.4328 14.8531 16.4328C14.7021 16.4328 14.5725 16.4869 14.4644 16.595C14.3562 16.7032 14.3022 16.8327 14.3022 16.9837C14.3022 17.1347 14.3562 17.2643 14.4644 17.3724C14.5725 17.4805 14.7021 17.5346 14.8531 17.5346C14.9551 17.5346 15.0469 17.5101 15.1285 17.4612C15.2122 17.4101 15.2785 17.3428 15.3274 17.2592Z" fill="white"/>
</svg>
