<svg width="24" height="24" viewBox="0 0 24 24" fill="none" xmlns="http://www.w3.org/2000/svg">
<g clip-path="url(#clip0_358_6357)">
<path d="M9 11C11.2091 11 13 9.20914 13 7C13 4.79086 11.2091 3 9 3C6.79086 3 5 4.79086 5 7C5 9.20914 6.79086 11 9 11Z" stroke="white" stroke-width="1.5" stroke-linejoin="round"/>
<path d="M3 21V19C3 17.9391 3.42143 16.9217 4.17157 16.1716C4.92172 15.4214 5.93913 15 7 15H11C12.0609 15 13.0783 15.4214 13.8284 16.1716C14.5786 16.9217 15 17.9391 15 19V21" stroke="white" stroke-width="1.5" stroke-linejoin="round"/>
<path d="M16 3.13004C16.8604 3.35034 17.623 3.85074 18.1676 4.55235C18.7122 5.25396 19.0078 6.11687 19.0078 7.00504C19.0078 7.89321 18.7122 8.75612 18.1676 9.45773C17.623 10.1593 16.8604 10.6597 16 10.88" stroke="white" stroke-width="1.5" stroke-linejoin="round"/>
<path d="M21 21.0001V19.0001C20.9949 18.1172 20.6979 17.2609 20.1553 16.5645C19.6126 15.8681 18.8548 15.3708 18 15.1501" stroke="white" stroke-width="1.5" stroke-linejoin="round"/>
</g>
<defs>
<clipPath id="clip0_358_6357">
<rect width="24" height="24" fill="white"/>
</clipPath>
</defs>
</svg>
