<svg width="24" height="24" viewBox="0 0 24 24" fill="none" xmlns="http://www.w3.org/2000/svg">
<g clip-path="url(#clip0_358_6337)">
<path d="M5 4.99997V21" stroke="white" stroke-width="1.5" stroke-linejoin="round"/>
<path d="M19 4.99997V14" stroke="white" stroke-width="1.5" stroke-linejoin="round"/>
<path d="M5 4.99996C5.93464 4.08383 7.19124 3.57068 8.5 3.57068C9.80876 3.57068 11.0654 4.08383 12 4.99996C12.9346 5.9161 14.1912 6.42925 15.5 6.42925C16.8088 6.42925 18.0654 5.9161 19 4.99996" stroke="white" stroke-width="1.5" stroke-linejoin="round"/>
<path d="M5 14C5.93464 13.0838 7.19124 12.5707 8.5 12.5707C9.80876 12.5707 11.0654 13.0838 12 14C12.9346 14.9161 14.1912 15.4293 15.5 15.4293C16.8088 15.4293 18.0654 14.9161 19 14" stroke="white" stroke-width="1.5" stroke-linejoin="round"/>
</g>
<defs>
<clipPath id="clip0_358_6337">
<rect width="24" height="24" fill="white"/>
</clipPath>
</defs>
</svg>
