<svg width="36" height="36" viewBox="0 0 36 36" fill="none" xmlns="http://www.w3.org/2000/svg">
<g clip-path="url(#clip0_358_6449)">
<path d="M10.5 10.5C12.1569 10.5 13.5 9.15685 13.5 7.5C13.5 5.84315 12.1569 4.5 10.5 4.5C8.84315 4.5 7.5 5.84315 7.5 7.5C7.5 9.15685 8.84315 10.5 10.5 10.5Z" stroke="#292D32" stroke-width="2.75" stroke-linejoin="round"/>
<path d="M7.5 33V25.5L6 24V18C6 17.6022 6.15804 17.2207 6.43934 16.9394C6.72064 16.6581 7.10218 16.5 7.5 16.5H13.5C13.8978 16.5 14.2794 16.6581 14.5607 16.9394C14.842 17.2207 15 17.6022 15 18V24L13.5 25.5V33" stroke="#292D32" stroke-width="2.75" stroke-linejoin="round"/>
<path d="M25.5 10.5C27.1569 10.5 28.5 9.15685 28.5 7.5C28.5 5.84315 27.1569 4.5 25.5 4.5C23.8431 4.5 22.5 5.84315 22.5 7.5C22.5 9.15685 23.8431 10.5 25.5 10.5Z" stroke="#292D32" stroke-width="2.75" stroke-linejoin="round"/>
<path d="M22.5 33V27H19.5L22.5 18C22.5 17.6022 22.658 17.2207 22.9393 16.9394C23.2206 16.6581 23.6022 16.5 24 16.5H27C27.3978 16.5 27.7794 16.6581 28.0607 16.9394C28.342 17.2207 28.5 17.6022 28.5 18L31.5 27H28.5V33" stroke="#292D32" stroke-width="2.75" stroke-linejoin="round"/>
</g>
<defs>
<clipPath id="clip0_358_6449">
<rect width="36" height="36" fill="white"/>
</clipPath>
</defs>
</svg>
