<svg width="100" height="42" viewBox="0 0 100 42" fill="none" xmlns="http://www.w3.org/2000/svg">
<rect width="100" height="42" rx="3" fill="white"/>
<path d="M11.2487 16.5473C11.3514 16.5453 11.4525 16.574 11.5389 16.6296C11.6254 16.6852 11.6933 16.7653 11.734 16.8597C11.7748 16.9541 11.7865 17.0585 11.7677 17.1595C11.7489 17.2606 11.7004 17.3538 11.6284 17.4272C11.5564 17.5006 11.4642 17.5509 11.3636 17.5717C11.2629 17.5925 11.1583 17.5829 11.0631 17.544C10.968 17.5052 10.8865 17.4388 10.8292 17.3535C10.7719 17.2682 10.7412 17.1677 10.7412 17.0649C10.7408 16.9293 10.7937 16.7989 10.8887 16.702C10.9837 16.6051 11.113 16.5496 11.2487 16.5473Z" fill="#0000F0"/>
<path d="M11.6506 19.0788C11.739 19.028 11.8405 19.0045 11.9423 19.0113C12.0441 19.0181 12.1415 19.0549 12.2224 19.1171C12.3032 19.1793 12.3638 19.264 12.3965 19.3606C12.4292 19.4572 12.4326 19.5614 12.4061 19.6599C12.3797 19.7584 12.3246 19.8468 12.2479 19.914C12.1712 19.9813 12.0763 20.0242 11.9752 20.0375C11.874 20.0508 11.7713 20.0339 11.6798 19.9888C11.5883 19.9437 11.5122 19.8725 11.4612 19.7842C11.3931 19.6655 11.3748 19.5246 11.4103 19.3924C11.4458 19.2602 11.5322 19.1475 11.6506 19.0788Z" fill="#0000F0"/>
<path d="M13.2676 21.0696C13.3186 20.9808 13.3948 20.909 13.4866 20.8635C13.5784 20.8179 13.6816 20.8007 13.7833 20.8139C13.8849 20.8271 13.9803 20.8701 14.0574 20.9376C14.1345 21.0051 14.1899 21.0939 14.2165 21.1929C14.243 21.2919 14.2396 21.3965 14.2067 21.4935C14.1738 21.5906 14.1128 21.6756 14.0314 21.738C13.9501 21.8003 13.8521 21.8371 13.7499 21.8437C13.6476 21.8503 13.5457 21.8264 13.457 21.775C13.3386 21.7064 13.2522 21.5936 13.2167 21.4614C13.1812 21.3292 13.1995 21.1884 13.2676 21.0696Z" fill="#0000F0"/>
<path d="M15.6555 21.9874C15.6555 21.8851 15.6859 21.785 15.7427 21.6999C15.7996 21.6148 15.8805 21.5484 15.975 21.5092C16.0696 21.4701 16.1737 21.4598 16.2741 21.4798C16.3745 21.4998 16.4667 21.5491 16.5391 21.6214C16.6115 21.6938 16.6608 21.7861 16.6808 21.8865C16.7007 21.9869 16.6905 22.0909 16.6513 22.1855C16.6121 22.2801 16.5458 22.3609 16.4607 22.4178C16.3756 22.4747 16.2755 22.505 16.1731 22.505C16.0358 22.505 15.9042 22.4505 15.8071 22.3534C15.7101 22.2564 15.6555 22.1247 15.6555 21.9874Z" fill="#0000F0"/>
<path d="M18.187 21.5872C18.1353 21.4987 18.1111 21.3968 18.1174 21.2945C18.1238 21.1922 18.1603 21.0941 18.2225 21.0126C18.2846 20.9311 18.3695 20.8699 18.4665 20.8367C18.5635 20.8035 18.6681 20.7999 18.7672 20.8263C18.8662 20.8526 18.9552 20.9078 19.0229 20.9848C19.0905 21.0618 19.1338 21.1571 19.1472 21.2588C19.1606 21.3604 19.1435 21.4637 19.0982 21.5556C19.0528 21.6475 18.9811 21.7239 18.8923 21.775C18.834 21.8102 18.7692 21.8332 18.7017 21.8428C18.6343 21.8524 18.5656 21.8483 18.4998 21.8308C18.434 21.8133 18.3724 21.7827 18.3186 21.7408C18.2649 21.699 18.2201 21.6467 18.187 21.5872Z" fill="#0000F0"/>
<path d="M20.1777 19.9737C20.0894 19.9227 20.0182 19.8466 19.9731 19.7551C19.928 19.6636 19.911 19.5608 19.9243 19.4597C19.9376 19.3586 19.9806 19.2637 20.0478 19.187C20.1151 19.1103 20.2035 19.0552 20.302 19.0288C20.4005 19.0023 20.5046 19.0056 20.6012 19.0383C20.6979 19.071 20.7826 19.1317 20.8448 19.2125C20.907 19.2933 20.9438 19.3908 20.9506 19.4926C20.9574 19.5943 20.9339 19.6958 20.883 19.7842C20.8144 19.9027 20.7017 19.9891 20.5695 20.0246C20.4373 20.0601 20.2964 20.0418 20.1777 19.9737Z" fill="#0000F0"/>
<path d="M21.0956 17.5808C20.9927 17.5812 20.8921 17.5508 20.8066 17.4937C20.721 17.4366 20.6544 17.3552 20.6153 17.2601C20.5762 17.1649 20.5663 17.0603 20.5869 16.9595C20.6075 16.8587 20.6577 16.7664 20.7311 16.6942C20.8044 16.6221 20.8976 16.5735 20.9987 16.5545C21.0998 16.5356 21.2042 16.5472 21.2987 16.5879C21.3932 16.6285 21.4734 16.6965 21.5291 16.7829C21.5849 16.8694 21.6135 16.9705 21.6115 17.0734C21.6115 17.1408 21.5981 17.2074 21.5721 17.2696C21.5461 17.3317 21.5079 17.388 21.4599 17.4352C21.4119 17.4825 21.3549 17.5197 21.2924 17.5447C21.2298 17.5697 21.163 17.582 21.0956 17.5808Z" fill="#0000F0"/>
<path d="M9.65361 18.0513C9.79384 18.0138 9.94202 18.0187 10.0794 18.0654C10.2169 18.1121 10.3374 18.1985 10.4257 18.3137C10.5141 18.4288 10.5663 18.5676 10.5758 18.7124C10.5853 18.8573 10.5516 19.0017 10.4791 19.1274C10.4065 19.2531 10.2983 19.3545 10.1682 19.4187C10.038 19.483 9.89176 19.5072 9.74784 19.4884C9.60393 19.4695 9.46883 19.4084 9.35963 19.3128C9.25043 19.2172 9.17203 19.0913 9.13433 18.9512C9.10926 18.858 9.10282 18.7608 9.11536 18.6651C9.12789 18.5694 9.15917 18.4771 9.2074 18.3936C9.25563 18.31 9.31987 18.2367 9.39644 18.178C9.473 18.1193 9.56039 18.0762 9.65361 18.0513Z" fill="#0000F0"/>
<path d="M11.0204 21.1811C11.123 21.0785 11.2539 21.0087 11.3962 20.9804C11.5386 20.9521 11.6862 20.9667 11.8203 21.0222C11.9544 21.0778 12.069 21.1719 12.1497 21.2926C12.2303 21.4133 12.2734 21.5552 12.2734 21.7004C12.2734 21.8456 12.2303 21.9875 12.1497 22.1082C12.069 22.2289 11.9544 22.323 11.8203 22.3786C11.6862 22.4342 11.5386 22.4487 11.3962 22.4205C11.2539 22.3922 11.123 22.3223 11.0204 22.2197C10.9519 22.1516 10.8976 22.0707 10.8606 21.9816C10.8235 21.8925 10.8044 21.7969 10.8044 21.7004C10.8044 21.6039 10.8235 21.5083 10.8606 21.4192C10.8976 21.3301 10.9519 21.2492 11.0204 21.1811Z" fill="#0000F0"/>
<path d="M13.7746 23.2093C13.8123 23.0692 13.8907 22.9433 13.9999 22.8477C14.1091 22.7521 14.2442 22.691 14.3881 22.6721C14.532 22.6533 14.6783 22.6775 14.8085 22.7417C14.9386 22.806 15.0468 22.9074 15.1193 23.0331C15.1919 23.1588 15.2255 23.3032 15.216 23.448C15.2066 23.5929 15.1543 23.7316 15.066 23.8468C14.9777 23.962 14.8572 24.0484 14.7197 24.0951C14.5823 24.1418 14.4341 24.1467 14.2939 24.1092C14.2006 24.0845 14.113 24.0415 14.0363 23.9829C13.9597 23.9242 13.8953 23.8509 13.8471 23.7673C13.7988 23.6836 13.7676 23.5913 13.7551 23.4955C13.7427 23.3998 13.7493 23.3025 13.7746 23.2093Z" fill="#0000F0"/>
<path d="M17.1544 23.5831C17.1168 23.4428 17.1217 23.2945 17.1684 23.157C17.2151 23.0195 17.3015 22.8989 17.4168 22.8105C17.532 22.7221 17.6709 22.6699 17.8158 22.6605C17.9607 22.6511 18.1052 22.6848 18.2309 22.7575C18.3567 22.8302 18.458 22.9386 18.5222 23.0689C18.5863 23.1992 18.6103 23.3456 18.5912 23.4895C18.5721 23.6335 18.5108 23.7686 18.4149 23.8777C18.319 23.9868 18.1929 24.065 18.0526 24.1024C17.9595 24.1274 17.8624 24.1338 17.7669 24.1213C17.6713 24.1087 17.5792 24.0774 17.4957 24.0292C17.4123 23.9809 17.3392 23.9167 17.2806 23.8402C17.222 23.7636 17.1792 23.6762 17.1544 23.5831Z" fill="#0000F0"/>
<path d="M20.2859 22.2164C20.1833 22.1137 20.1134 21.9829 20.0851 21.8405C20.0568 21.6981 20.0714 21.5505 20.127 21.4164C20.1826 21.2823 20.2766 21.1677 20.3974 21.0871C20.5181 21.0064 20.66 20.9634 20.8052 20.9634C20.9503 20.9634 21.0922 21.0064 21.2129 21.0871C21.3337 21.1677 21.4277 21.2823 21.4833 21.4164C21.5389 21.5505 21.5535 21.6981 21.5252 21.8405C21.4969 21.9829 21.4271 22.1137 21.3244 22.2164C21.2564 22.2848 21.1755 22.3391 21.0863 22.3762C20.9972 22.4132 20.9017 22.4323 20.8052 22.4323C20.7086 22.4323 20.6131 22.4132 20.524 22.3762C20.4348 22.3391 20.3539 22.2848 20.2859 22.2164Z" fill="#0000F0"/>
<path d="M22.3105 19.4705C22.1704 19.4328 22.0445 19.3544 21.9489 19.2452C21.8533 19.136 21.7922 19.0009 21.7733 18.857C21.7545 18.7131 21.7787 18.5668 21.8429 18.4366C21.9072 18.3065 22.0086 18.1983 22.1343 18.1257C22.26 18.0532 22.4044 18.0195 22.5492 18.029C22.6941 18.0385 22.8328 18.0908 22.948 18.1791C23.0632 18.2674 23.1496 18.3879 23.1963 18.5254C23.243 18.6628 23.2479 18.811 23.2104 18.9512C23.1597 19.1392 23.0364 19.2995 22.8678 19.3968C22.6991 19.4941 22.4987 19.5206 22.3105 19.4705Z" fill="#0000F0"/>
<path d="M7.99272 16.2161C8.15999 16.2161 8.32351 16.2657 8.46259 16.3586C8.60167 16.4515 8.71007 16.5836 8.77409 16.7382C8.8381 16.8927 8.85485 17.0627 8.82221 17.2268C8.78958 17.3909 8.70903 17.5416 8.59075 17.6598C8.47247 17.7781 8.32177 17.8587 8.15772 17.8913C7.99366 17.9239 7.82361 17.9072 7.66907 17.8432C7.51453 17.7792 7.38244 17.6708 7.28951 17.5317C7.19657 17.3926 7.14697 17.2291 7.14697 17.0618C7.14697 16.8375 7.23608 16.6224 7.39469 16.4638C7.55329 16.3052 7.76841 16.2161 7.99272 16.2161Z" fill="#0000F0"/>
<path d="M8.66484 20.4206C8.80982 20.3376 8.97613 20.2994 9.14279 20.3108C9.30945 20.3222 9.469 20.3827 9.60131 20.4847C9.73362 20.5867 9.83277 20.7256 9.88624 20.8838C9.93972 21.0421 9.94513 21.2127 9.90179 21.374C9.85846 21.5353 9.76832 21.6802 9.64274 21.7904C9.51716 21.9005 9.36177 21.971 9.19617 21.993C9.03057 22.0149 8.86217 21.9874 8.71222 21.9137C8.56228 21.8401 8.43749 21.7237 8.35361 21.5793C8.29762 21.4828 8.26125 21.3763 8.2466 21.2657C8.23194 21.1552 8.23929 21.0429 8.26821 20.9352C8.29714 20.8275 8.34707 20.7266 8.41514 20.6383C8.48321 20.55 8.56807 20.476 8.66484 20.4206Z" fill="#0000F0"/>
<path d="M11.3482 23.7245C11.4322 23.5801 11.5571 23.4639 11.7072 23.3904C11.8572 23.3169 12.0257 23.2895 12.1913 23.3117C12.3569 23.3338 12.5122 23.4045 12.6377 23.5149C12.7631 23.6252 12.8531 23.7702 12.8962 23.9317C12.9394 24.0931 12.9337 24.2636 12.88 24.4219C12.8263 24.5801 12.7269 24.7188 12.5944 24.8206C12.4619 24.9224 12.3023 24.9827 12.1355 24.9938C11.9688 25.0049 11.8026 24.9665 11.6577 24.8832C11.5611 24.8277 11.4764 24.7536 11.4085 24.6652C11.3406 24.5768 11.2908 24.4759 11.2621 24.3682C11.2333 24.2606 11.2261 24.1483 11.2409 24.0378C11.2556 23.9273 11.2921 23.8209 11.3482 23.7245Z" fill="#0000F0"/>
<path d="M15.3242 25.2459C15.3242 25.0786 15.3738 24.9151 15.4668 24.776C15.5597 24.6369 15.6918 24.5285 15.8463 24.4645C16.0009 24.4005 16.1709 24.3838 16.335 24.4164C16.499 24.449 16.6497 24.5296 16.768 24.6479C16.8863 24.7661 16.9668 24.9168 16.9995 25.0809C17.0321 25.245 17.0153 25.415 16.9513 25.5695C16.8873 25.7241 16.7789 25.8562 16.6398 25.9491C16.5008 26.042 16.3372 26.0916 16.17 26.0916C15.9457 26.0916 15.7305 26.0025 15.5719 25.8439C15.4133 25.6853 15.3242 25.4702 15.3242 25.2459Z" fill="#0000F0"/>
<path d="M19.5287 24.5737C19.4455 24.4288 19.407 24.2626 19.4181 24.0959C19.4293 23.9292 19.4896 23.7695 19.5913 23.637C19.6931 23.5045 19.8319 23.4051 19.9901 23.3514C20.1483 23.2977 20.3189 23.2921 20.4803 23.3352C20.6417 23.3783 20.7867 23.4683 20.8971 23.5937C21.0074 23.7192 21.0781 23.8745 21.1003 24.0401C21.1224 24.2057 21.095 24.3742 21.0216 24.5242C20.9481 24.6743 20.8318 24.7992 20.6874 24.8832C20.5911 24.9393 20.4846 24.9758 20.3742 24.9905C20.2637 25.0053 20.1514 24.9981 20.0437 24.9694C19.936 24.9406 19.8351 24.8908 19.7467 24.8229C19.6584 24.755 19.5843 24.6703 19.5287 24.5737Z" fill="#0000F0"/>
<path d="M22.8327 21.8888C22.6883 21.8048 22.572 21.6799 22.4985 21.5298C22.4251 21.3798 22.3977 21.2113 22.4198 21.0457C22.442 20.8801 22.5127 20.7248 22.623 20.5993C22.7334 20.4739 22.8784 20.3839 23.0398 20.3408C23.2012 20.2977 23.3718 20.3033 23.53 20.357C23.6882 20.4107 23.827 20.5101 23.9288 20.6426C24.0306 20.7751 24.0908 20.9348 24.102 21.1015C24.1131 21.2682 24.0746 21.4344 23.9914 21.5793C23.9358 21.6759 23.8617 21.7606 23.7734 21.8285C23.685 21.8964 23.5841 21.9462 23.4764 21.975C23.3687 22.0037 23.2564 22.0109 23.1459 21.9962C23.0355 21.9814 22.929 21.9449 22.8327 21.8888Z" fill="#0000F0"/>
<path d="M24.354 17.9127C24.1868 17.9127 24.0233 17.8631 23.8842 17.7701C23.7451 17.6772 23.6367 17.5451 23.5727 17.3906C23.5087 17.2361 23.4919 17.066 23.5246 16.9019C23.5572 16.7379 23.6377 16.5872 23.756 16.4689C23.8743 16.3506 24.025 16.2701 24.189 16.2374C24.3531 16.2048 24.5232 16.2216 24.6777 16.2856C24.8322 16.3496 24.9643 16.458 25.0573 16.5971C25.1502 16.7361 25.1998 16.8997 25.1998 17.0669C25.1998 17.2912 25.1107 17.5064 24.9521 17.665C24.7935 17.8236 24.5784 17.9127 24.354 17.9127Z" fill="#0000F0"/>
<path d="M17.0208 8.88456C17.0208 9.05184 16.9712 9.21535 16.8783 9.35443C16.7854 9.49352 16.6533 9.60192 16.4987 9.66593C16.3442 9.72994 16.1742 9.74669 16.0101 9.71406C15.846 9.68143 15.6953 9.60088 15.5771 9.4826C15.4588 9.36432 15.3782 9.21362 15.3456 9.04956C15.313 8.8855 15.3297 8.71545 15.3937 8.56091C15.4577 8.40637 15.5661 8.27428 15.7052 8.18135C15.8443 8.08842 16.0078 8.03882 16.1751 8.03882C16.3994 8.03882 16.6145 8.12792 16.7731 8.28653C16.9317 8.44514 17.0208 8.66026 17.0208 8.88456Z" fill="#0000F0"/>
<path d="M16.6889 12.1406C16.6909 12.2438 16.662 12.3453 16.6059 12.4319C16.5498 12.5186 16.4691 12.5865 16.3741 12.6269C16.2791 12.6673 16.1742 12.6784 16.0729 12.6588C15.9716 12.6391 15.8784 12.5896 15.8054 12.5166C15.7324 12.4437 15.6829 12.3505 15.6633 12.2492C15.6436 12.1478 15.6547 12.0429 15.6952 11.9479C15.7356 11.853 15.8035 11.7722 15.8901 11.7161C15.9768 11.6601 16.0782 11.6311 16.1815 11.6332C16.316 11.6332 16.4451 11.6866 16.5403 11.7818C16.6354 11.8769 16.6889 12.006 16.6889 12.1406Z" fill="#0000F0"/>
<path d="M14.1574 12.5426C14.2083 12.631 14.2318 12.7325 14.225 12.8343C14.2182 12.936 14.1814 13.0335 14.1192 13.1144C14.057 13.1952 13.9723 13.2558 13.8757 13.2885C13.7791 13.3212 13.6749 13.3245 13.5764 13.2981C13.4779 13.2716 13.3895 13.2166 13.3222 13.1399C13.255 13.0632 13.212 12.9683 13.1987 12.8671C13.1854 12.766 13.2024 12.6632 13.2475 12.5717C13.2926 12.4803 13.3638 12.4042 13.4521 12.3532C13.5708 12.2851 13.7117 12.2668 13.8439 12.3023C13.9761 12.3378 14.0888 12.4242 14.1574 12.5426Z" fill="#0000F0"/>
<path d="M12.1666 14.1562C12.252 14.2077 12.3203 14.2831 12.363 14.373C12.4058 14.463 12.4211 14.5636 12.4071 14.6622C12.393 14.7608 12.3503 14.8532 12.2842 14.9277C12.2181 15.0022 12.1315 15.0556 12.0352 15.0812C11.9389 15.1068 11.8372 15.1035 11.7428 15.0718C11.6484 15.04 11.5654 14.9811 11.5042 14.9025C11.4431 14.8239 11.4063 14.7291 11.3987 14.6297C11.3911 14.5304 11.4128 14.431 11.4613 14.344C11.4944 14.2845 11.5392 14.2322 11.5929 14.1904C11.6467 14.1486 11.7083 14.118 11.7741 14.1004C11.84 14.0829 11.9086 14.0788 11.9761 14.0884C12.0435 14.098 12.1083 14.1211 12.1666 14.1562Z" fill="#0000F0"/>
<path d="M20.6937 15.0493C20.6065 15.0975 20.5071 15.119 20.4078 15.1111C20.3086 15.1032 20.2138 15.0662 20.1354 15.0048C20.057 14.9435 19.9983 14.8604 19.9668 14.7659C19.9352 14.6714 19.9322 14.5698 19.958 14.4736C19.9839 14.3774 20.0374 14.291 20.1121 14.225C20.1867 14.1591 20.2791 14.1165 20.3777 14.1027C20.4763 14.0889 20.5768 14.1044 20.6667 14.1473C20.7566 14.1902 20.8319 14.2586 20.8831 14.3439C20.9512 14.4627 20.9695 14.6035 20.934 14.7357C20.8985 14.8679 20.8121 14.9807 20.6937 15.0493Z" fill="#0000F0"/>
<path d="M19.0817 13.0585C19.0307 13.1468 18.9546 13.218 18.8631 13.2631C18.7717 13.3082 18.6689 13.3251 18.5677 13.3118C18.4666 13.2985 18.3717 13.2555 18.295 13.1883C18.2183 13.1211 18.1633 13.0326 18.1368 12.9341C18.1103 12.8356 18.1137 12.7315 18.1464 12.6349C18.1791 12.5383 18.2397 12.4536 18.3205 12.3914C18.4014 12.3292 18.4988 12.2924 18.6006 12.2856C18.7024 12.2788 18.8039 12.3023 18.8923 12.3531C19.0107 12.4218 19.0971 12.5345 19.1326 12.6667C19.1681 12.7989 19.1498 12.9397 19.0817 13.0585Z" fill="#0000F0"/>
<path d="M15.1871 10.5455C15.2246 10.6855 15.2198 10.8334 15.1734 10.9707C15.1269 11.108 15.0408 11.2285 14.926 11.3169C14.8112 11.4054 14.6728 11.4578 14.5282 11.4678C14.3836 11.4777 14.2393 11.4446 14.1135 11.3726C13.9877 11.3007 13.886 11.1931 13.8213 11.0634C13.7565 10.9338 13.7316 10.7878 13.7496 10.644C13.7676 10.5002 13.8278 10.365 13.9226 10.2553C14.0174 10.1457 14.1425 10.0665 14.2822 10.0279C14.4704 9.97772 14.6707 10.0042 14.8394 10.1016C15.0081 10.1989 15.1313 10.3591 15.182 10.5472" fill="#0000F0"/>
<path d="M12.0588 11.9122C12.1614 12.0149 12.2313 12.1457 12.2596 12.2881C12.2879 12.4305 12.2733 12.5781 12.2177 12.7122C12.1621 12.8463 12.068 12.9609 11.9473 13.0415C11.8266 13.1222 11.6847 13.1652 11.5395 13.1652C11.3944 13.1652 11.2524 13.1222 11.1317 13.0415C11.011 12.9609 10.9169 12.8463 10.8614 12.7122C10.8058 12.5781 10.7912 12.4305 10.8195 12.2881C10.8478 12.1457 10.9176 12.0149 11.0202 11.9122C11.0883 11.8438 11.1692 11.7895 11.2583 11.7524C11.3475 11.7154 11.443 11.6963 11.5395 11.6963C11.636 11.6963 11.7316 11.7154 11.8207 11.7524C11.9098 11.7895 11.9908 11.8438 12.0588 11.9122Z" fill="#0000F0"/>
<path d="M10.0342 14.6597C10.1743 14.6974 10.3002 14.7758 10.3958 14.885C10.4914 14.9942 10.5525 15.1293 10.5714 15.2732C10.5902 15.4171 10.566 15.5634 10.5018 15.6936C10.4375 15.8237 10.3361 15.9319 10.2104 16.0045C10.0847 16.077 9.94029 16.1107 9.79545 16.1012C9.65061 16.0917 9.51185 16.0394 9.39668 15.9511C9.28151 15.8628 9.19512 15.7423 9.14842 15.6048C9.10171 15.4674 9.0968 15.3192 9.13429 15.179C9.15921 15.0858 9.20227 14.9984 9.261 14.9218C9.31974 14.8453 9.39299 14.781 9.47656 14.7328C9.56014 14.6846 9.65241 14.6533 9.74809 14.6407C9.84377 14.6282 9.94098 14.6347 10.0342 14.6597Z" fill="#0000F0"/>
<path d="M22.6913 16.0789C22.5511 16.1164 22.4029 16.1115 22.2655 16.0648C22.128 16.0181 22.0075 15.9317 21.9192 15.8165C21.8309 15.7014 21.7786 15.5626 21.7692 15.4178C21.7597 15.2729 21.7933 15.1285 21.8659 15.0028C21.9384 14.8771 22.0466 14.7757 22.1767 14.7115C22.3069 14.6472 22.4532 14.623 22.5971 14.6418C22.741 14.6607 22.8761 14.7218 22.9853 14.8174C23.0945 14.913 23.1729 15.0389 23.2106 15.179C23.2357 15.2722 23.2421 15.3694 23.2296 15.4651C23.217 15.5608 23.1857 15.6531 23.1375 15.7366C23.0893 15.8202 23.0251 15.8935 22.9485 15.9522C22.8719 16.0109 22.7845 16.054 22.6913 16.0789Z" fill="#0000F0"/>
<path d="M21.3245 12.9508C21.2218 13.0534 21.091 13.1233 20.9487 13.1515C20.8063 13.1798 20.6587 13.1652 20.5246 13.1097C20.3905 13.0541 20.2759 12.96 20.1952 12.8393C20.1146 12.7186 20.0715 12.5767 20.0715 12.4315C20.0715 12.2863 20.1146 12.1444 20.1952 12.0237C20.2759 11.903 20.3905 11.8089 20.5246 11.7533C20.6587 11.6977 20.8063 11.6832 20.9487 11.7115C21.091 11.7397 21.2218 11.8096 21.3245 11.9122C21.393 11.9803 21.4473 12.0612 21.4843 12.1503C21.5214 12.2394 21.5405 12.335 21.5405 12.4315C21.5405 12.528 21.5214 12.6236 21.4843 12.7127C21.4473 12.8018 21.393 12.8827 21.3245 12.9508Z" fill="#0000F0"/>
<path d="M18.5786 10.9261C18.5412 11.0664 18.4632 11.1925 18.3542 11.2884C18.2452 11.3843 18.1103 11.4458 17.9663 11.465C17.8224 11.4843 17.6761 11.4604 17.5457 11.3964C17.4154 11.3325 17.3069 11.2313 17.2341 11.1057C17.1613 10.9801 17.1273 10.8358 17.1365 10.6909C17.1457 10.546 17.1976 10.4071 17.2858 10.2917C17.3739 10.1764 17.4943 10.0897 17.6317 10.0428C17.769 9.9958 17.9173 9.99063 18.0576 10.0279C18.2456 10.0786 18.4058 10.2018 18.5032 10.3705C18.6005 10.5392 18.627 10.7396 18.5769 10.9278" fill="#0000F0"/>
<path d="M12.8163 9.55681C12.8993 9.70179 12.9375 9.8681 12.9261 10.0348C12.9147 10.2014 12.8542 10.361 12.7522 10.4933C12.6502 10.6256 12.5113 10.7247 12.3531 10.7782C12.1948 10.8317 12.0242 10.8371 11.8629 10.7938C11.7016 10.7504 11.5567 10.6603 11.4465 10.5347C11.3364 10.4091 11.2659 10.2537 11.2439 10.0881C11.222 9.92253 11.2495 9.75414 11.3232 9.60419C11.3968 9.45424 11.5132 9.32946 11.6576 9.24558C11.7541 9.18959 11.8606 9.15322 11.9712 9.13856C12.0817 9.12391 12.194 9.13125 12.3017 9.16018C12.4094 9.18911 12.5103 9.23904 12.5986 9.30711C12.6869 9.37518 12.7609 9.46004 12.8163 9.55681Z" fill="#0000F0"/>
<path d="M9.51236 12.24C9.65683 12.3238 9.77321 12.4486 9.84685 12.5986C9.92048 12.7485 9.94805 12.9169 9.9261 13.0825C9.90414 13.2481 9.83363 13.4035 9.72347 13.5291C9.61331 13.6547 9.46842 13.7448 9.30709 13.7881C9.14576 13.8315 8.97521 13.8261 8.81695 13.7726C8.65869 13.7191 8.51981 13.62 8.41783 13.4877C8.31585 13.3554 8.25533 13.1958 8.24392 13.0291C8.23251 12.8625 8.2707 12.6962 8.35369 12.5512C8.40909 12.4544 8.48307 12.3696 8.57138 12.3015C8.6597 12.2334 8.7606 12.1835 8.86829 12.1546C8.97597 12.1256 9.08832 12.1183 9.19885 12.1329C9.30939 12.1476 9.41594 12.184 9.51236 12.24Z" fill="#0000F0"/>
<path d="M23.6817 13.7082C23.5369 13.7917 23.3705 13.8303 23.2037 13.8193C23.0369 13.8082 22.8771 13.748 22.7445 13.6462C22.6119 13.5444 22.5125 13.4056 22.4587 13.2473C22.405 13.089 22.3993 12.9183 22.4426 12.7568C22.4858 12.5953 22.5759 12.4502 22.7015 12.3399C22.8271 12.2296 22.9826 12.159 23.1483 12.137C23.314 12.115 23.4825 12.1426 23.6326 12.2163C23.7826 12.2901 23.9074 12.4066 23.9913 12.5513C24.0471 12.6475 24.0833 12.7538 24.098 12.8641C24.1126 12.9744 24.1053 13.0865 24.0766 13.194C24.0478 13.3014 23.9981 13.4022 23.9304 13.4904C23.8626 13.5787 23.7781 13.6527 23.6817 13.7082Z" fill="#0000F0"/>
<path d="M20.9969 10.4042C20.9128 10.5486 20.7879 10.6649 20.6379 10.7384C20.4878 10.8118 20.3194 10.8392 20.1538 10.8171C19.9882 10.7949 19.8328 10.7242 19.7074 10.6139C19.5819 10.5035 19.4919 10.3585 19.4488 10.1971C19.4057 10.0357 19.4114 9.8651 19.4651 9.7069C19.5188 9.54869 19.6182 9.40994 19.7506 9.30814C19.8831 9.20635 20.0428 9.14608 20.2095 9.13494C20.3762 9.1238 20.5425 9.16228 20.6873 9.24553C20.784 9.30107 20.8687 9.37515 20.9366 9.46353C21.0045 9.55191 21.0542 9.65284 21.083 9.76051C21.1118 9.86819 21.119 9.98049 21.1042 10.091C21.0894 10.2014 21.0529 10.3079 20.9969 10.4042Z" fill="#0000F0"/>
<path d="M36.5995 22.7322C33.8349 22.7322 31.1733 20.8734 31.1733 17.0526C31.1733 15.9221 31.6549 14.2035 32.4728 13.4076C32.5506 13.3298 32.6561 13.2861 32.766 13.2861C32.876 13.2861 32.9815 13.3298 33.0592 13.4076C33.137 13.4853 33.1807 13.5908 33.1807 13.7008C33.1807 13.8107 33.137 13.9162 33.0592 13.9939C32.3681 14.6699 32.0115 16.1316 32.0115 17.0526C32.0115 20.3005 34.254 21.9346 36.5995 21.9346C37.2503 21.9378 37.8948 21.8074 38.4933 21.5516C39.0918 21.2959 39.6314 20.9201 40.0789 20.4475C40.1567 20.3642 40.2644 20.3151 40.3783 20.3111C40.4922 20.3072 40.6031 20.3486 40.6864 20.4264C40.7698 20.5042 40.8188 20.6119 40.8228 20.7258C40.8268 20.8397 40.7853 20.9506 40.7075 21.0339C40.1707 21.5767 39.5306 22.0065 38.8251 22.2982C38.1196 22.5898 37.3629 22.7374 36.5995 22.7322ZM32.8294 17.1557C32.7236 17.1613 32.62 17.1246 32.5412 17.0538C32.4625 16.983 32.4151 16.8838 32.4095 16.778C32.4039 16.6722 32.4405 16.5686 32.5113 16.4898C32.5822 16.4111 32.6814 16.3637 32.7872 16.3581H40.6856C40.7379 16.3554 40.7903 16.3631 40.8397 16.3807C40.8891 16.3982 40.9346 16.4254 40.9735 16.4605C41.0124 16.4957 41.044 16.5382 41.0665 16.5855C41.089 16.6329 41.102 16.6842 41.1047 16.7366C41.1073 16.789 41.0996 16.8414 41.0821 16.8908C41.0645 16.9402 41.0373 16.9856 41.0022 17.0245C40.967 17.0634 40.9246 17.0951 40.8772 17.1176C40.8298 17.1401 40.7785 17.153 40.7261 17.1557H32.8294ZM36.5589 11.3933C38.7997 11.3933 41.0844 13.2521 41.1047 15.5199C41.1047 15.6319 41.0601 15.7394 40.9809 15.8186C40.9017 15.8979 40.7942 15.9424 40.6822 15.9424C40.5701 15.9424 40.4627 15.8979 40.3835 15.8186C40.3042 15.7394 40.2597 15.6319 40.2597 15.5199C40.2394 13.6982 38.3738 12.1892 36.5522 12.1892C35.4402 12.1892 34.8116 12.4815 33.9329 13.1524C33.8432 13.2196 33.7306 13.2485 33.6197 13.2326C33.5087 13.2168 33.4087 13.1575 33.3414 13.0679C33.2742 12.9783 33.2453 12.8656 33.2612 12.7547C33.277 12.6438 33.3363 12.5437 33.4259 12.4765C34.4398 11.7228 35.2273 11.3882 36.5488 11.3882" fill="#0000F0"/>
<path d="M46.323 21.9363C48.0618 21.9363 49.4036 21.0136 49.4441 20.2599C49.4495 20.1479 49.4992 20.0426 49.5822 19.9671C49.6653 19.8917 49.7748 19.8524 49.8869 19.8577C49.9989 19.8631 50.1043 19.9128 50.1797 19.9958C50.2551 20.0788 50.2945 20.1884 50.2891 20.3005C50.2485 21.2434 48.9068 22.7322 46.3297 22.7322C44.5689 22.7322 42.6627 21.7893 42.1592 20.6368C42.1382 20.594 42.126 20.5475 42.1232 20.4999C42.1204 20.4524 42.127 20.4048 42.1427 20.3598C42.1584 20.3149 42.1829 20.2735 42.2148 20.2381C42.2466 20.2026 42.2851 20.1739 42.3281 20.1535C42.3427 20.1453 42.358 20.1385 42.3738 20.1332C42.4691 20.0871 42.5787 20.0806 42.6788 20.1151C42.7788 20.1496 42.8612 20.2223 42.9078 20.3174C42.9124 20.3255 42.9164 20.334 42.9196 20.3427C43.3387 21.2857 44.9474 21.9363 46.3348 21.9363M46.5241 11.3966C48.1159 11.3966 49.5658 12.0252 50.2316 13.0307C50.2607 13.0759 50.2805 13.1264 50.2899 13.1793C50.2994 13.2322 50.2982 13.2865 50.2866 13.3389C50.275 13.3914 50.2531 13.4411 50.2222 13.485C50.1913 13.529 50.152 13.5664 50.1066 13.5951C50.01 13.6536 49.8941 13.6713 49.7845 13.6443C49.6748 13.6174 49.5804 13.548 49.5219 13.4515C48.9761 12.6556 47.7813 12.1942 46.5258 12.1942C45.0995 12.1942 43.5279 12.9479 43.4232 13.9331C43.4178 14.0451 43.3681 14.1505 43.2851 14.2259C43.2021 14.3013 43.0925 14.3407 42.9804 14.3353C42.8684 14.3299 42.7631 14.2802 42.6876 14.1972C42.6122 14.1142 42.5729 14.0046 42.5782 13.8925C42.5791 13.8852 42.5791 13.8779 42.5782 13.8706C42.7253 12.6133 44.5064 11.3983 46.519 11.3983M46.644 17.7251L45.3665 17.2638C44.1498 16.8244 42.852 16.0285 42.6425 15.2529C42.6221 15.15 42.6418 15.0432 42.6974 14.9542C42.7531 14.8653 42.8405 14.8009 42.942 14.7742C43.0434 14.7475 43.1512 14.7605 43.2435 14.8105C43.3357 14.8605 43.4054 14.9437 43.4384 15.0433C43.6074 15.6517 44.7379 16.1333 45.6589 16.4679L46.9364 16.9292C48.5925 17.5376 49.8497 17.9972 50.2266 18.8996C50.2714 19.0051 50.2724 19.1242 50.2295 19.2305C50.1865 19.3368 50.1031 19.4217 49.9976 19.4665C49.892 19.5114 49.773 19.5124 49.6667 19.4695C49.5604 19.4265 49.4754 19.3431 49.4306 19.2376C49.1366 18.4619 47.9638 18.2101 46.644 17.7285" fill="#0000F0"/>
<path d="M77.1781 22.7323C74.4118 22.7323 71.7502 20.8734 71.7502 17.0526C71.7502 15.9221 72.2335 14.2035 73.0497 13.4076C73.0881 13.369 73.1338 13.3383 73.184 13.3173C73.2343 13.2964 73.2881 13.2855 73.3426 13.2853C73.397 13.2852 73.451 13.2957 73.5014 13.3164C73.5517 13.3371 73.5975 13.3675 73.6361 13.4059C73.6747 13.4443 73.7054 13.4899 73.7264 13.5402C73.7474 13.5904 73.7583 13.6443 73.7584 13.6988C73.7586 13.7532 73.748 13.8072 73.7273 13.8575C73.7066 13.9079 73.6762 13.9537 73.6378 13.9923C72.9467 14.6682 72.5901 16.13 72.5901 17.0509C72.5901 20.2989 74.8326 21.933 77.1798 21.933C77.8303 21.9361 78.4746 21.8057 79.0728 21.5499C79.671 21.2941 80.2103 20.9184 80.6575 20.4459C80.696 20.4046 80.7423 20.3713 80.7936 20.3479C80.845 20.3245 80.9005 20.3115 80.9569 20.3095C81.0133 20.3075 81.0695 20.3167 81.1224 20.3365C81.1753 20.3563 81.2237 20.3863 81.265 20.4248C81.3063 20.4633 81.3396 20.5095 81.363 20.5609C81.3864 20.6122 81.3994 20.6677 81.4014 20.7241C81.4033 20.7805 81.3942 20.8368 81.3744 20.8897C81.3546 20.9425 81.3246 20.991 81.2861 21.0323C80.7495 21.5749 80.1098 22.0047 79.4045 22.2963C78.6993 22.588 77.9429 22.7356 77.1798 22.7306M73.408 17.154C73.3022 17.1594 73.1987 17.1225 73.1201 17.0516C73.0415 16.9806 72.9943 16.8813 72.9889 16.7755C72.9835 16.6697 73.0204 16.5662 73.0914 16.4876C73.1624 16.409 73.2617 16.3618 73.3674 16.3564H81.2659C81.3182 16.3538 81.3706 16.3614 81.42 16.379C81.4694 16.3966 81.5149 16.4237 81.5538 16.4589C81.5927 16.494 81.6243 16.5365 81.6468 16.5839C81.6693 16.6312 81.6823 16.6826 81.6849 16.7349C81.6876 16.7873 81.6799 16.8397 81.6623 16.8891C81.6448 16.9385 81.6176 16.984 81.5825 17.0229C81.5473 17.0618 81.5048 17.0934 81.4575 17.1159C81.4101 17.1384 81.3588 17.1514 81.3064 17.154H73.4063H73.408ZM77.1443 11.3967C79.3867 11.3967 81.6697 13.2555 81.6917 15.5233C81.6917 15.6354 81.6472 15.7428 81.568 15.822C81.4887 15.9013 81.3813 15.9458 81.2692 15.9458C81.1572 15.9458 81.0497 15.9013 80.9705 15.822C80.8913 15.7428 80.8468 15.6354 80.8468 15.5233C80.8248 13.7016 78.9609 12.1926 77.1375 12.1926C76.0273 12.1926 75.3987 12.4849 74.5182 13.1558C74.4286 13.223 74.3159 13.2519 74.205 13.2361C74.0941 13.2202 73.994 13.161 73.9268 13.0713C73.8596 12.9817 73.8307 12.869 73.8465 12.7581C73.8624 12.6472 73.9216 12.5471 74.0113 12.4799C75.0167 11.7262 75.8127 11.3916 77.1325 11.3916" fill="#0000F0"/>
<path d="M82.2276 12.1689C82.1827 12.0726 82.178 11.9624 82.2145 11.8625C82.2509 11.7627 82.3255 11.6814 82.4219 11.6366C82.5182 11.5918 82.6285 11.5871 82.7283 11.6235C82.8281 11.66 82.9094 11.7346 82.9542 11.831C82.9549 11.8366 82.9549 11.8422 82.9542 11.8479L87.2498 22.1357C87.2845 22.2343 87.2802 22.3423 87.2378 22.4378C87.1953 22.5333 87.1179 22.6088 87.0215 22.6491C86.9251 22.6893 86.817 22.6911 86.7193 22.654C86.6216 22.617 86.5417 22.544 86.4962 22.45L82.2276 12.1689ZM88.0525 21.2198C88.0131 21.318 87.9363 21.3964 87.839 21.438C87.7417 21.4795 87.6319 21.4806 87.5337 21.4412C87.4356 21.4018 87.3571 21.3249 87.3156 21.2276C87.2741 21.1304 87.2729 21.0206 87.3123 20.9224C87.3128 20.9168 87.3128 20.9111 87.3123 20.9055L91.1264 11.8546C91.1624 11.7597 91.2345 11.683 91.327 11.6411C91.4195 11.5993 91.5248 11.5959 91.6198 11.6316L91.6502 11.6451C91.7457 11.6841 91.8219 11.7593 91.8621 11.8543C91.9023 11.9493 91.9033 12.0563 91.8648 12.152V12.1639L88.0525 21.2198Z" fill="#0000F0"/>
<path d="M55.7965 18.5362C55.7436 18.5365 55.6912 18.5262 55.6423 18.5061C55.5934 18.4859 55.549 18.4563 55.5116 18.4189C55.4742 18.3816 55.4446 18.3371 55.4244 18.2882C55.4043 18.2393 55.3941 18.1869 55.3943 18.1341V13.0307C55.4009 12.9287 55.4461 12.8331 55.5206 12.7633C55.5951 12.6934 55.6935 12.6545 55.7956 12.6545C55.8978 12.6545 55.9961 12.6934 56.0707 12.7633C56.1452 12.8331 56.1904 12.9287 56.197 13.0307V18.1391C56.197 18.2455 56.1548 18.3475 56.0798 18.4229C56.0047 18.4983 55.9029 18.5409 55.7965 18.5413" fill="#0000F0"/>
<path d="M60.1021 12.3936H51.5041C51.4021 12.387 51.3065 12.3418 51.2367 12.2673C51.1668 12.1928 51.1279 12.0944 51.1279 11.9923C51.1279 11.8901 51.1668 11.7918 51.2367 11.7173C51.3065 11.6427 51.4021 11.5976 51.5041 11.5909H60.1021C60.157 11.5874 60.212 11.5951 60.2638 11.6137C60.3156 11.6322 60.363 11.6612 60.4032 11.6988C60.4433 11.7364 60.4753 11.7819 60.4972 11.8324C60.519 11.8828 60.5303 11.9373 60.5303 11.9923C60.5303 12.0473 60.519 12.1017 60.4972 12.1522C60.4753 12.2027 60.4433 12.2481 60.4032 12.2857C60.363 12.3233 60.3156 12.3523 60.2638 12.3709C60.212 12.3894 60.157 12.3972 60.1021 12.3936Z" fill="#0000F0"/>
<path d="M55.7963 22.543C55.7436 22.5432 55.6913 22.533 55.6426 22.513C55.5938 22.493 55.5494 22.4635 55.5121 22.4263C55.4747 22.3891 55.445 22.3449 55.4248 22.2962C55.4046 22.2475 55.3942 22.1952 55.3942 22.1425V19.4049C55.3906 19.35 55.3983 19.295 55.4169 19.2432C55.4354 19.1914 55.4644 19.144 55.502 19.1038C55.5397 19.0637 55.5851 19.0317 55.6356 19.0098C55.6861 18.988 55.7405 18.9767 55.7955 18.9767C55.8505 18.9767 55.9049 18.988 55.9554 19.0098C56.0059 19.0317 56.0513 19.0637 56.089 19.1038C56.1266 19.144 56.1556 19.1914 56.1741 19.2432C56.1927 19.295 56.2004 19.35 56.1968 19.4049V22.1425C56.1968 22.2487 56.1546 22.3506 56.0795 22.4257C56.0044 22.5008 55.9026 22.543 55.7963 22.543Z" fill="#0000F0"/>
<path d="M62.0775 22.543C61.9711 22.543 61.8691 22.5008 61.7937 22.4258C61.7183 22.3507 61.6757 22.2488 61.6753 22.1425V17.6643C61.6819 17.5624 61.7271 17.4668 61.8016 17.3969C61.8762 17.3271 61.9745 17.2882 62.0766 17.2882C62.1788 17.2882 62.2771 17.3271 62.3517 17.3969C62.4262 17.4668 62.4714 17.5624 62.478 17.6643V22.1425C62.478 22.2487 62.4358 22.3506 62.3607 22.4257C62.2856 22.5008 62.1837 22.543 62.0775 22.543Z" fill="#0000F0"/>
<path d="M70.7044 17.1894C70.6832 18.3844 70.31 19.5465 69.6314 20.5303C68.2659 22.3418 66.0235 22.5362 65.1853 22.5429H63.2876C63.1857 22.5363 63.0901 22.4911 63.0202 22.4166C62.9504 22.3421 62.9115 22.2437 62.9115 22.1416C62.9115 22.0394 62.9504 21.9411 63.0202 21.8666C63.0901 21.792 63.1857 21.7469 63.2876 21.7402H65.1634H65.4067C66.2398 21.6946 67.955 21.4293 68.9892 20.0504C69.56 19.2039 69.8767 18.2118 69.9017 17.1911V16.9562C69.8793 15.931 69.5625 14.9338 68.9892 14.0835C67.955 12.713 66.2398 12.446 65.4067 12.3936H65.1634H63.2876C63.2327 12.3972 63.1777 12.3894 63.1259 12.3709C63.0741 12.3523 63.0267 12.3233 62.9865 12.2857C62.9464 12.2481 62.9144 12.2027 62.8925 12.1522C62.8707 12.1017 62.8594 12.0473 62.8594 11.9923C62.8594 11.9373 62.8707 11.8828 62.8925 11.8324C62.9144 11.7819 62.9464 11.7364 62.9865 11.6988C63.0267 11.6612 63.0741 11.6322 63.1259 11.6137C63.1777 11.5951 63.2327 11.5874 63.2876 11.5909H65.1803C66.0252 11.5909 68.2609 11.7937 69.6263 13.6036C70.3089 14.5901 70.6841 15.7567 70.7044 16.9562V17.1894Z" fill="#0000F0"/>
<path d="M62.0776 16.8869C61.9712 16.8869 61.8692 16.8448 61.7938 16.7697C61.7184 16.6947 61.6759 16.5928 61.6754 16.4864V11.9965C61.6718 11.9416 61.6796 11.8865 61.6981 11.8348C61.7167 11.783 61.7457 11.7355 61.7833 11.6954C61.8209 11.6553 61.8664 11.6233 61.9168 11.6014C61.9673 11.5795 62.0217 11.5682 62.0767 11.5682C62.1318 11.5682 62.1862 11.5795 62.2367 11.6014C62.2871 11.6233 62.3326 11.6553 62.3702 11.6954C62.4078 11.7355 62.4368 11.783 62.4554 11.8348C62.4739 11.8865 62.4817 11.9416 62.4781 11.9965V16.4848C62.4783 16.5375 62.4681 16.5898 62.4481 16.6385C62.4281 16.6873 62.3986 16.7317 62.3614 16.769C62.3242 16.8064 62.2799 16.8361 62.2312 16.8563C62.1825 16.8765 62.1303 16.8869 62.0776 16.8869Z" fill="#0000F0"/>
<path d="M31.3491 31.8575V28.1313H33.6659V28.5082H31.7868V29.757H33.4074V30.1254H31.7868V31.8575H31.3491Z" fill="#0000F0"/>
<path d="M33.8535 29.2382H34.276V29.6979H34.347C34.3627 29.5606 34.4302 29.4345 34.5357 29.3453C34.6412 29.2561 34.7768 29.2106 34.9147 29.2179H35.2781V29.5813H34.9147C34.6038 29.5813 34.3216 29.8989 34.2912 30.3366V31.8575H33.8535V29.2382Z" fill="#0000F0"/>
<path d="M36.7145 29.1791C37.5087 29.1791 38.0478 29.7114 38.0478 30.5428C38.0478 31.3742 37.529 31.9285 36.7145 31.9285C35.9 31.9285 35.3896 31.3843 35.3896 30.558C35.3896 29.7317 35.9236 29.1791 36.7145 29.1791ZM36.7145 31.5804C37.2215 31.5804 37.6203 31.1934 37.6203 30.5665C37.6203 29.8905 37.2282 29.5289 36.7145 29.5289C36.2312 29.5289 35.8172 29.8922 35.8172 30.5665C35.8172 31.1883 36.2312 31.5804 36.7145 31.5804Z" fill="#0000F0"/>
<path d="M40.3883 30.1862C40.3883 29.7823 40.0977 29.5609 39.6735 29.5609C39.3862 29.5609 38.9283 29.7975 38.908 30.1709V31.8608H38.5007V29.2415H38.8877V29.7012H38.9536C39.0284 29.5425 39.1486 29.4096 39.299 29.3193C39.4495 29.229 39.6233 29.1855 39.7985 29.1942C40.3224 29.1942 40.5945 29.4274 40.6891 29.7434H40.7601C40.8469 29.5749 40.9792 29.4342 41.142 29.3371C41.3048 29.24 41.4916 29.1905 41.6811 29.1942C42.2911 29.1942 42.695 29.4866 42.695 30.1473V31.854H42.2826V30.1828C42.2826 29.7789 41.9903 29.5575 41.5628 29.5575C41.2806 29.5575 40.7973 29.8042 40.7973 30.1929V31.854H40.3883V30.1862Z" fill="#0000F0"/>
<path d="M45.1183 29.2382H45.7469V29.5761H45.1183L45.1081 31.1376C45.1081 31.4755 45.2433 31.5448 45.4461 31.5448H45.708V31.8625H45.3701C44.9205 31.8625 44.7144 31.6935 44.7195 31.1021V29.5812H44.3071V29.2432H44.7195V28.3425H45.1233L45.1183 29.2382Z" fill="#0000F0"/>
<path d="M48.0451 30.22C48.0451 29.7874 47.7392 29.5609 47.315 29.5609C47.0193 29.5609 46.5698 29.7975 46.5495 30.171V31.8608H46.1372V28.0198H46.558V29.6978H46.6087C46.6822 29.5381 46.8021 29.4043 46.9529 29.3138C47.1036 29.2234 47.2781 29.1805 47.4536 29.1908C48.0467 29.1908 48.4557 29.4832 48.4557 30.1794V31.8507H48.0451V30.22Z" fill="#0000F0"/>
<path d="M49.3022 30.5732V30.6188C49.2977 30.758 49.3218 30.8966 49.3732 31.026C49.5287 31.3742 49.821 31.5651 50.284 31.5651C50.5929 31.5585 50.8929 31.4603 51.1459 31.2829H51.2405V31.6107C50.968 31.8203 50.6329 31.9322 50.2891 31.9284C49.3884 31.9284 48.8899 31.4654 48.8899 30.5377C48.8899 29.7925 49.3326 29.1858 50.1286 29.1858C51.0141 29.1858 51.3419 29.7941 51.3672 30.5749L49.3022 30.5732ZM49.3276 30.2605H50.9194C50.9176 30.0636 50.8378 29.8755 50.6975 29.7374C50.5571 29.5992 50.3677 29.5224 50.1708 29.5238H50.1336C49.6503 29.5238 49.4036 29.7958 49.3276 30.2589V30.2605Z" fill="#0000F0"/>
<path d="M53.1096 29.2382H53.5321V29.5508H53.5828C53.6737 29.43 53.7929 29.3334 53.9299 29.2694C54.0669 29.2055 54.2176 29.1762 54.3686 29.1841C55.1493 29.1841 55.6529 29.7063 55.6529 30.4972C55.6529 31.3421 55.0682 31.8981 54.3534 31.8981C54.0661 31.8981 53.6994 31.7612 53.5929 31.484H53.527V32.9644H53.1096V29.2382ZM53.527 30.2521V31.0176C53.5422 31.3556 53.9055 31.5516 54.2824 31.5516C54.7893 31.5516 55.2253 31.2137 55.2253 30.5242C55.2253 29.9006 54.8164 29.5424 54.3077 29.5424C54.1121 29.5404 53.9229 29.6124 53.7781 29.7441C53.6333 29.8757 53.5436 30.0572 53.527 30.2521Z" fill="#0000F0"/>
<path d="M56.3708 30.5732V30.6188C56.3656 30.758 56.3898 30.8968 56.4418 31.0261C56.5973 31.3742 56.8896 31.5651 57.3526 31.5651C57.6615 31.5585 57.9615 31.4603 58.2145 31.2829H58.3091V31.6107C58.037 31.8212 57.7016 31.9332 57.3577 31.9284C56.457 31.9284 55.9585 31.4654 55.9585 30.5377C55.9585 29.7925 56.4012 29.1858 57.1972 29.1858C58.0826 29.1858 58.4105 29.7941 58.4358 30.5749L56.3708 30.5732ZM56.3962 30.2605H57.9863C57.9845 30.0639 57.905 29.876 57.765 29.738C57.625 29.5999 57.436 29.5229 57.2394 29.5238H57.2039C56.7189 29.5238 56.4722 29.7958 56.3979 30.2589L56.3962 30.2605Z" fill="#0000F0"/>
<path d="M60.0566 29.1791C60.8525 29.1791 61.3916 29.7114 61.3916 30.5428C61.3916 31.3742 60.8728 31.9285 60.0566 31.9285C59.2404 31.9285 58.7334 31.3843 58.7334 30.558C58.7334 29.7317 59.2674 29.1791 60.0566 29.1791ZM60.0566 31.5804C60.5635 31.5804 60.964 31.1934 60.964 30.5665C60.964 29.8905 60.5703 29.5289 60.0566 29.5289C59.5733 29.5289 59.1609 29.8922 59.1609 30.5665C59.1609 31.1883 59.5699 31.5804 60.0566 31.5804Z" fill="#0000F0"/>
<path d="M61.8459 29.2382H62.2735V29.5508H62.3242C62.4151 29.43 62.5343 29.3334 62.6713 29.2694C62.8083 29.2055 62.959 29.1762 63.11 29.1841C63.8907 29.1841 64.3943 29.7063 64.3943 30.4972C64.3943 31.3421 63.8096 31.8981 63.0948 31.8981C62.8075 31.8981 62.4408 31.7612 62.3343 31.484H62.2684V32.9644H61.851L61.8459 29.2382ZM62.2633 30.2521V31.0176C62.2786 31.3556 62.6419 31.5516 63.0187 31.5516C63.5172 31.5516 63.9617 31.2137 63.9617 30.5242C63.9617 29.9006 63.5527 29.5424 63.0441 29.5424C62.8484 29.5404 62.6592 29.6124 62.5144 29.7441C62.3696 29.8757 62.28 30.0572 62.2633 30.2521Z" fill="#0000F0"/>
<path d="M65.2612 28.0198V31.8575H64.8489V28.0198H65.2612Z" fill="#0000F0"/>
<path d="M66.1333 30.5732V30.6188C66.1287 30.758 66.1529 30.8966 66.2043 31.026C66.3597 31.3742 66.6521 31.5651 67.1151 31.5651C67.424 31.5585 67.7239 31.4603 67.9769 31.2829H68.0715V31.6107C67.799 31.8203 67.4639 31.9322 67.1202 31.9284C66.2195 31.9284 65.7209 31.4654 65.7209 30.5377C65.7209 29.7925 66.1637 29.1858 66.9596 29.1858C67.8451 29.1858 68.1729 29.7941 68.1983 30.5749L66.1333 30.5732ZM66.1586 30.2605H67.7505C67.7487 30.0636 67.6689 29.8755 67.5285 29.7374C67.3882 29.5992 67.1988 29.5224 67.0019 29.5238H66.9647C66.4814 29.5238 66.2347 29.7958 66.1586 30.2589V30.2605Z" fill="#0000F0"/>
<path d="M71.1032 29.1791C71.8991 29.1791 72.4382 29.7114 72.4382 30.5428C72.4382 31.3742 71.9194 31.9285 71.1032 31.9285C70.287 31.9285 69.78 31.3843 69.78 30.558C69.78 29.7317 70.3123 29.1791 71.1032 29.1791ZM71.1032 31.5804C71.6101 31.5804 72.0106 31.1934 72.0106 30.5665C72.0106 29.8905 71.6169 29.5289 71.1032 29.5289C70.6199 29.5289 70.2076 29.8922 70.2076 30.5665C70.216 31.1883 70.6199 31.5804 71.1032 31.5804Z" fill="#0000F0"/>
<path d="M72.5447 29.2382H73.0516V28.8562C73.0516 28.2665 73.3643 27.9792 73.9135 27.9792C74.1012 27.972 74.2882 28.0066 74.461 28.0806V28.3831H74.3866C74.2493 28.3344 74.1048 28.3087 73.9591 28.307C73.6363 28.307 73.464 28.4879 73.464 28.8309V29.2382H74.074V29.5761H73.464V31.8625H73.0516V29.5711H72.5447V29.2382Z" fill="#0000F0"/>
<path d="M75.7671 31.8575V28.1313H78.3154V28.5133H76.2014V29.7671H78.1582V30.1507H76.2014V31.4739H78.3103V31.8575H75.7671Z" fill="#0000F0"/>
<path d="M78.6753 31.2271H78.8122C78.9191 31.3457 79.0493 31.441 79.1946 31.507C79.34 31.573 79.4975 31.6083 79.6571 31.6107C80.0813 31.6107 80.2976 31.4654 80.2976 31.1984C80.2976 30.6492 78.6854 30.8249 78.6854 29.9344C78.6854 29.49 79.0234 29.1925 79.7281 29.1925C80.0205 29.1907 80.3086 29.264 80.5646 29.4055V29.8229H80.4429C80.3534 29.7215 80.2434 29.6403 80.1202 29.5847C79.9969 29.529 79.8633 29.5002 79.7281 29.5001C79.2904 29.5001 79.0893 29.6573 79.0893 29.8786C79.0893 30.5123 80.6997 30.2403 80.6997 31.1781C80.6997 31.6411 80.3922 31.9284 79.652 31.9284C79.3039 31.9252 78.9643 31.8201 78.6753 31.6259V31.2271Z" fill="#0000F0"/>
<path d="M81.6851 29.2382H82.3138V29.5761H81.6851L81.675 31.1376C81.675 31.4755 81.8102 31.5448 82.013 31.5448H82.2732V31.8625H81.9352C81.4874 31.8625 81.2796 31.6935 81.2846 31.1021V29.5812H80.8723V29.2432H81.2846V28.3425H81.6885L81.6851 29.2382Z" fill="#0000F0"/>
<path d="M83.7992 29.1791C84.5951 29.1791 85.1325 29.7114 85.1325 30.5428C85.1325 31.3742 84.6154 31.9285 83.7992 31.9285C82.983 31.9285 82.4744 31.3843 82.4744 30.558C82.4744 29.7317 83.0084 29.1791 83.7992 29.1791ZM83.7992 31.5804C84.3062 31.5804 84.705 31.1934 84.705 30.5665C84.705 29.8905 84.3129 29.5289 83.7992 29.5289C83.3159 29.5289 82.9019 29.8922 82.9019 30.5665C82.9019 31.1883 83.3159 31.5804 83.7992 31.5804Z" fill="#0000F0"/>
<path d="M87.5134 30.22C87.5134 29.7874 87.2025 29.561 86.7733 29.561C86.4708 29.561 86.0128 29.7976 85.9926 30.171V31.8609H85.5938V29.2416H85.9807V29.7013H86.0517C86.1302 29.5397 86.2551 29.4052 86.4104 29.3149C86.5657 29.2246 86.7444 29.1826 86.9237 29.1943C87.5168 29.1943 87.9376 29.4866 87.9376 30.1829V31.8541H87.5286L87.5134 30.22Z" fill="#0000F0"/>
<path d="M88.5002 28.5994V28.0603H88.9126V28.5994H88.5002ZM88.5002 31.8574V29.2381H88.9126V31.8574H88.5002Z" fill="#0000F0"/>
<path d="M91.1856 31.5448H91.1196C91.0168 31.6722 90.8852 31.7733 90.7357 31.84C90.5862 31.9067 90.423 31.937 90.2595 31.9284C89.7407 31.9284 89.3521 31.5904 89.3521 31.1375C89.3521 30.5985 89.761 30.3923 90.3795 30.2453C90.5485 30.2098 90.9439 30.1507 91.1247 30.1253L91.1653 30.0594C91.1267 29.9092 91.0376 29.7769 90.913 29.6846C90.7884 29.5923 90.6358 29.5456 90.4809 29.5525C90.3217 29.5465 90.163 29.5734 90.0147 29.6315C89.8664 29.6897 89.7317 29.7778 89.6191 29.8904H89.5447V29.522C89.8085 29.298 90.145 29.1779 90.491 29.1841C91.1805 29.1841 91.6029 29.5812 91.6029 30.2149C91.6029 30.7996 91.6029 31.2727 91.6029 31.8524H91.1889L91.1856 31.5448ZM91.1856 31.0378V30.4836C90.9642 30.5191 90.6414 30.5698 90.5096 30.5951C89.9908 30.6897 89.7745 30.8367 89.7745 31.124C89.7745 31.4113 90.0415 31.5566 90.4285 31.5566C90.7056 31.5566 91.1839 31.3876 91.1839 31.0277L91.1856 31.0378Z" fill="#0000F0"/>
</svg>
