<svg width="71" height="29" viewBox="0 0 71 29" fill="none" xmlns="http://www.w3.org/2000/svg">
<g clip-path="url(#clip0_11_193)">
<path fill-rule="evenodd" clip-rule="evenodd" d="M18.259 0.0653449C20.2831 0.0687669 22.2233 0.874358 23.6546 2.30562C25.0858 3.73689 25.8914 5.67711 25.8948 7.70122C25.8031 9.32515 25.2658 10.8924 24.3418 12.231C24.3418 12.231 21.0415 7.11883 20.9768 7.05412L19.1002 10.0308L15.2176 5.88932L12.3056 2.91262C13.0174 2.01802 13.9231 1.29686 14.9545 0.803611C15.9858 0.31036 17.1158 0.0579159 18.259 0.0653449Z" fill="#FFDA00"/>
<path fill-rule="evenodd" clip-rule="evenodd" d="M11.982 3.23633L18.7119 10.3545L11.1408 22.9731H0.0105133L11.982 3.23633Z" fill="#036202"/>
<path fill-rule="evenodd" clip-rule="evenodd" d="M11.982 3.23633L18.906 10.5487L11.1407 23.0378L11.982 3.23633Z" fill="#078607"/>
<path fill-rule="evenodd" clip-rule="evenodd" d="M21.0415 8.67188L30.1658 22.973H27.2732L21.061 12.6192L14.9134 22.973H12.1309L21.0415 8.67188Z" fill="#078607"/>
<path fill-rule="evenodd" clip-rule="evenodd" d="M44.3374 16.4371V16.243H47.3789V21.5492H43.4509C44.0992 19.9255 44.4011 18.1843 44.3374 16.4371ZM41.5549 21.5492C40.3901 21.5492 40.6489 21.2257 40.6489 24.3965C40.6489 24.7848 41.4255 24.6554 41.9431 24.6554C42.4608 24.6554 42.2667 23.5553 42.2667 22.9082H48.3495C48.3495 24.9142 48.0907 24.6554 49.6437 24.6554C49.8379 24.5906 49.9673 24.4612 49.9673 24.3318V21.8599C49.9673 21.4069 49.3202 21.5363 49.0613 21.5363V15.1946C49.0568 15.1275 49.0281 15.0642 48.9805 15.0167C48.9329 14.9691 48.8696 14.9403 48.8025 14.9358H42.9138C42.4608 14.9358 42.655 16.1653 42.655 16.6183C42.4608 18.249 42.655 19.9962 41.5549 21.5492Z" fill="#078607"/>
<path fill-rule="evenodd" clip-rule="evenodd" d="M31.3953 15.2074V22.5845C31.3953 23.1021 32.5601 22.908 33.0778 22.908L37.9311 17.3429V20.3196C37.9311 23.1021 37.6075 22.908 39.29 22.908C39.3572 22.9035 39.4204 22.8747 39.468 22.8271C39.5156 22.7796 39.5443 22.7163 39.5489 22.6492V15.2074C39.5489 14.7544 38.7076 14.9486 37.9958 14.9486C37.6723 14.9486 33.6602 19.996 32.9484 20.5137V16.1134C32.9484 14.7544 33.1425 14.9486 31.6542 14.9486C31.5894 14.9486 31.46 15.078 31.3953 15.2074Z" fill="#078607"/>
<path fill-rule="evenodd" clip-rule="evenodd" d="M51.5204 15.2075V22.5845C51.5851 22.7786 51.7145 22.908 51.8439 22.908H59.0268C59.5445 22.908 59.5445 21.5491 59.0268 21.5491H53.2028V19.4784H58.4444C58.8327 19.4784 58.7033 18.8313 58.7033 18.3783C58.6987 18.3111 58.67 18.2479 58.6224 18.2003C58.5748 18.1527 58.5116 18.124 58.4444 18.1194H53.2028V16.3075H58.768C59.2856 16.3075 59.2856 14.9486 58.768 14.9486H51.8633C51.8237 14.9422 51.7832 14.9439 51.7442 14.9536C51.7053 14.9633 51.6687 14.9807 51.6366 15.0049C51.6046 15.0291 51.5778 15.0595 51.5578 15.0943C51.5378 15.1291 51.5251 15.1676 51.5204 15.2075Z" fill="#078607"/>
<path fill-rule="evenodd" clip-rule="evenodd" d="M65.3684 18.4431H62.8641V16.243H65.5819C66.5526 16.243 67.2644 16.5018 67.2644 17.4078C67.2644 18.3137 66.2744 18.4431 65.3684 18.4431ZM61.0975 15.2076V22.5846C61.0975 23.0376 61.9387 22.8435 62.5858 22.8435C62.653 22.8389 62.7162 22.8102 62.7638 22.7626C62.8114 22.715 62.8401 22.6518 62.8447 22.5846V19.8021C64.9154 19.8021 69.1216 20.1903 69.1216 17.4078V17.0842C69.1216 15.4017 67.3097 14.8193 65.5625 14.8193H61.421C61.2269 14.9488 61.0975 15.0782 61.0975 15.2076Z" fill="#078607"/>
<path d="M26.8007 11.3896H27.0596V13.331H28.0302V11.3896H28.2891V13.331H28.4832V14.0428H28.2891V13.5251H26.8007V11.3896ZM30.1657 12.878H29.0656C29.0686 13.0175 29.1138 13.1528 29.195 13.2663C29.3131 13.338 29.4458 13.3823 29.5833 13.3957C29.7372 13.4061 29.8915 13.3841 30.0363 13.331L30.101 13.5251C29.9423 13.6096 29.7579 13.6326 29.5833 13.5898C29.3741 13.5851 29.1711 13.5174 29.0009 13.3957C28.8749 13.2277 28.8068 13.0233 28.8068 12.8133C28.8068 12.6033 28.8749 12.3989 29.0009 12.2309C29.1349 12.0827 29.3197 11.9903 29.5186 11.972C29.6304 11.962 29.7428 11.9844 29.8421 12.0368L30.0363 12.2309C30.101 12.2956 30.101 12.3603 30.1657 12.4897V12.878ZM29.0656 12.6192H29.9069V12.4897C29.9 12.4407 29.8773 12.3952 29.8421 12.3603C29.8421 12.2956 29.7774 12.2956 29.7127 12.2309C29.648 12.1662 29.5833 12.1662 29.5186 12.1662C29.3986 12.1684 29.2835 12.2144 29.195 12.2956C29.1303 12.425 29.0656 12.4897 29.0656 12.6192ZM30.554 11.972H30.8128V12.6192H31.5246V11.972H31.8029V13.5251H31.544V12.878H30.8322V13.5898H30.5734L30.554 11.972ZM32.1717 11.972H33.466V12.2309H32.9483V13.5898H32.6894V12.2956H32.1717V11.972ZM33.7248 14.2369V12.0368H33.9836V12.2956C34.0448 12.1962 34.1305 12.1142 34.2325 12.0575C34.3345 12.0009 34.4493 11.9714 34.566 11.972C34.6518 11.963 34.7385 11.9761 34.8178 12.0101C34.8971 12.0441 34.9664 12.0978 35.019 12.1662C35.1495 12.3318 35.2182 12.5378 35.2131 12.7486C35.2184 12.9794 35.1504 13.2059 35.019 13.3957C34.8781 13.5251 34.6925 13.5947 34.5013 13.5898C34.4 13.5949 34.2992 13.5737 34.2085 13.5284C34.1178 13.483 34.0403 13.415 33.9836 13.331V14.1722L33.7248 14.2369ZM33.9836 12.6839V13.0721C33.9998 13.1694 34.0449 13.2596 34.1131 13.331C34.189 13.3824 34.2807 13.4054 34.3719 13.3957C34.4919 13.3935 34.607 13.3474 34.6955 13.2663C34.7764 13.1287 34.821 12.9728 34.8249 12.8133C34.8218 12.6738 34.7767 12.5384 34.6955 12.425C34.6651 12.3656 34.6187 12.3159 34.5615 12.2815C34.5043 12.2472 34.4386 12.2297 34.3719 12.2309C34.2425 12.2309 34.1778 12.2956 34.1131 12.2956C34.0736 12.3264 34.0415 12.3656 34.0191 12.4104C33.9967 12.4552 33.9846 12.5044 33.9836 12.5544V12.6839ZM36.3132 11.3896H37.478V11.6485H36.6368V13.5898H36.3326L36.3132 11.3896ZM37.478 14.2369V12.0368H37.7369V12.2956C37.798 12.1962 37.8837 12.1142 37.9857 12.0575C38.0877 12.0009 38.2026 11.9714 38.3193 11.972C38.4051 11.963 38.4918 11.9761 38.5711 12.0101C38.6504 12.0441 38.7196 12.0978 38.7722 12.1662C38.9028 12.3318 38.9714 12.5378 38.9664 12.7486C38.9716 12.9794 38.9036 13.2059 38.7722 13.3957C38.6314 13.5251 38.4458 13.5947 38.2546 13.5898C38.1533 13.5949 38.0524 13.5737 37.9617 13.5284C37.871 13.483 37.7936 13.415 37.7369 13.331V14.1722L37.478 14.2369ZM37.8016 12.6839V13.0721C37.8178 13.1694 37.8629 13.2596 37.931 13.331C38.0069 13.3824 38.0986 13.4054 38.1898 13.3957C38.3099 13.3935 38.425 13.3474 38.5134 13.2663C38.5944 13.1287 38.6389 12.9728 38.6428 12.8133C38.6398 12.6738 38.5947 12.5384 38.5134 12.425C38.4831 12.3656 38.4367 12.3159 38.3795 12.2815C38.3223 12.2472 38.2565 12.2297 38.1898 12.2309C38.0604 12.2309 37.9957 12.2956 37.931 12.2956C37.8915 12.3264 37.8594 12.3656 37.837 12.4104C37.8147 12.4552 37.8025 12.5044 37.8016 12.5544V12.6839ZM40.5194 12.6192V13.5898H40.2606V13.3957L40.0665 13.5898C39.9905 13.6413 39.8988 13.6642 39.8076 13.6545C39.7476 13.6563 39.6879 13.6458 39.6322 13.6237C39.5764 13.6016 39.5257 13.5683 39.4833 13.5258C39.4409 13.4834 39.4076 13.4328 39.3855 13.377C39.3633 13.3212 39.3528 13.2615 39.3546 13.2016C39.3502 13.1092 39.3722 13.0176 39.418 12.9373C39.4639 12.8571 39.5317 12.7916 39.6135 12.7486C39.7167 12.6789 39.8333 12.6314 39.9558 12.6091C40.0783 12.5869 40.2042 12.5903 40.3253 12.6192V12.4897C40.3253 12.425 40.3253 12.425 40.2606 12.3603C40.1959 12.2956 40.1959 12.2956 40.1312 12.2956C40.0665 12.2956 40.0017 12.2309 39.937 12.2309C39.7995 12.2443 39.6668 12.2885 39.5488 12.3603L39.4841 12.1662C39.6449 12.0853 39.8217 12.0411 40.0017 12.0368C40.3253 11.972 40.5194 12.2309 40.5194 12.6192ZM40.1959 13.0721V12.8003C39.7429 12.8003 39.5488 12.9298 39.5488 13.1239C39.5488 13.318 39.6135 13.3827 39.7429 13.3827H39.8076C39.8988 13.3924 39.9905 13.3695 40.0665 13.318C40.0909 13.2925 40.1094 13.2618 40.1206 13.2282C40.1318 13.1947 40.1354 13.159 40.1312 13.1239C40.1397 13.1239 40.1481 13.1222 40.1559 13.119C40.1638 13.1157 40.1709 13.111 40.1769 13.1049C40.1829 13.0989 40.1877 13.0918 40.191 13.084C40.1942 13.0761 40.1959 13.0677 40.1959 13.0592V13.0721ZM40.843 12.0368H41.1665L41.6842 12.7486H41.7489V12.0368H42.0078V12.7486H42.0725L42.5902 12.0368H42.9137L42.2666 12.7486C42.3712 12.7636 42.4693 12.8081 42.5495 12.8769C42.6297 12.9456 42.6887 13.0358 42.7196 13.1368C42.7454 13.3017 42.8121 13.4575 42.9137 13.5898H42.6549C42.5947 13.4896 42.551 13.3803 42.5255 13.2663C42.5255 13.1368 42.4608 13.0721 42.3313 13.0074C42.2554 12.956 42.1637 12.933 42.0725 12.9427H42.0078V13.6545H41.7489V12.9427H41.6842C41.5548 12.9427 41.4901 12.9427 41.4254 13.0074C41.3455 13.0812 41.2797 13.1689 41.2313 13.2663C41.1665 13.3957 41.1665 13.5251 41.1018 13.5898H40.7783C40.8204 13.4301 40.8858 13.2775 40.9724 13.1368C41.0371 13.0074 41.1018 12.9427 41.1665 12.8133C41.2379 12.7452 41.3281 12.7001 41.4254 12.6839L40.843 12.0368ZM43.4314 12.0368H44.4668V13.3957H44.6609V14.0946H44.4668V13.5769H43.302V14.0946H43.1079V13.3827H43.2373C43.302 13.2533 43.3667 13.1886 43.3667 13.0592C43.4202 12.8479 43.442 12.6298 43.4314 12.4121V12.0368ZM43.6903 12.2309V12.4897C43.7008 12.6861 43.6789 12.8829 43.6255 13.0721C43.5608 13.2016 43.5608 13.2663 43.4961 13.3957H44.2079V12.2309H43.6903ZM46.1493 12.6192V13.5898H45.8904V13.3957L45.6963 13.5898C45.6204 13.6413 45.5287 13.6642 45.4375 13.6545C45.2999 13.6411 45.1672 13.5969 45.0492 13.5251C44.968 13.4367 44.922 13.3216 44.9198 13.2016C44.9153 13.1092 44.9373 13.0176 44.9831 12.9373C45.029 12.8571 45.0968 12.7916 45.1786 12.7486C45.3988 12.6386 45.6457 12.5937 45.8904 12.6192V12.4897C45.8904 12.425 45.8904 12.425 45.8257 12.3603C45.761 12.2956 45.761 12.2956 45.6963 12.2956C45.6316 12.2956 45.5669 12.2309 45.5022 12.2309C45.3647 12.2443 45.2319 12.2885 45.1139 12.3603L45.0492 12.1662C45.21 12.0853 45.3869 12.0411 45.5669 12.0368C45.8904 11.972 46.0846 12.2309 46.1493 12.6192ZM45.8257 13.0721V12.8003C45.3727 12.8003 45.1786 12.9298 45.1786 13.1239C45.1731 13.1592 45.176 13.1952 45.187 13.2291C45.1981 13.2631 45.217 13.2939 45.2422 13.3191C45.2674 13.3444 45.2983 13.3633 45.3322 13.3743C45.3661 13.3854 45.4022 13.3883 45.4375 13.3827C45.5287 13.3924 45.6204 13.3695 45.6963 13.318C45.761 13.2533 45.8257 13.1886 45.8257 13.1239V13.0592V13.0721ZM46.6023 12.0368H46.8611V12.6839H47.6376V12.0368H47.8965V13.5898H47.6376V12.878H46.8611V13.5898H46.6023V12.0368ZM49.5142 13.331L49.5789 13.5251C49.4342 13.5782 49.2798 13.6002 49.126 13.5898C48.9167 13.5851 48.7138 13.5174 48.5436 13.3957C48.4131 13.2301 48.3444 13.0241 48.3494 12.8133C48.3442 12.7068 48.3603 12.6004 48.3967 12.5002C48.433 12.4001 48.489 12.3081 48.5613 12.2298C48.6336 12.1515 48.7207 12.0884 48.8177 12.0441C48.9146 11.9999 49.0194 11.9754 49.126 11.972H49.1907C49.3234 11.9618 49.4567 11.9841 49.5789 12.0368L49.5142 12.2309C49.4149 12.1786 49.3025 12.1561 49.1907 12.1662C49.115 12.164 49.0399 12.1806 48.9722 12.2145C48.9044 12.2484 48.8461 12.2985 48.8024 12.3603C48.7306 12.4784 48.6864 12.6111 48.673 12.7486C48.6857 12.9066 48.7297 13.0606 48.8024 13.2016C48.9318 13.331 49.0613 13.3957 49.1907 13.331C49.2386 13.363 49.2949 13.38 49.3525 13.38C49.4101 13.38 49.4664 13.363 49.5142 13.331ZM49.9025 12.0368H50.1613V12.7486H50.2261L50.8085 12.1015H51.132L50.4849 12.8133C50.6143 12.8133 50.679 12.878 50.8085 12.9427C50.8679 12.973 50.9176 13.0194 50.9519 13.0766C50.9863 13.1339 51.0038 13.1996 51.0026 13.2663L51.1967 13.6545H50.8732C50.8732 13.5898 50.8085 13.5251 50.7437 13.331C50.6953 13.2336 50.6295 13.1459 50.5496 13.0721C50.4526 13.0134 50.3382 12.9905 50.2261 13.0074H50.1613V13.7192H49.8378L49.9025 12.0368ZM51.4556 12.0368H51.7791V13.331C51.8514 13.1517 51.9379 12.9786 52.038 12.8133L52.4909 12.0368H52.8145V13.5898H52.5556V12.2956C52.4564 12.4614 52.3699 12.6344 52.2968 12.8133L52.038 13.2663L51.7791 13.5898H51.4556V12.0368ZM53.138 12.0368H53.4616L53.6557 12.3603L53.7852 12.6192C53.8533 12.5478 53.8984 12.4576 53.9146 12.3603L54.1087 12.0368H54.4517L53.934 12.8133L54.4517 13.5898H54.1281L53.934 13.2663C53.8693 13.2016 53.8046 13.0721 53.7399 13.0074L53.5457 13.2663L53.3516 13.5898H53.0927L53.6751 12.8133L53.138 12.0368ZM55.5971 11.3896H55.8559V13.2016C55.9617 12.9522 56.0918 12.7137 56.2442 12.4897L56.956 11.3896H57.2148V13.5898H56.956V11.7132C56.8502 11.9626 56.7201 12.201 56.5677 12.425L55.8559 13.5251H55.5323V11.3896H55.5971ZM57.7325 12.0368H57.9914V12.6839H58.7679V12.0368H59.0267V13.5898H58.7679V12.878H57.9914V13.5898H57.7325V12.0368ZM59.4797 12.0368H59.7385V13.331C59.8108 13.1517 59.8973 12.9786 59.9974 12.8133L60.5151 12.0368H60.8386V13.5898H60.5798V12.2956C60.4805 12.4614 60.394 12.6344 60.3209 12.8133L60.0621 13.2663L59.868 13.6545H59.5444L59.4797 12.0368ZM61.3563 12.0368H61.6152V13.3957H62.327V12.0368H62.5858V13.3957H62.78V14.0946H62.5858V13.5769H61.3563V12.0368ZM63.1682 12.0368H63.4271V13.331C63.4993 13.1517 63.5859 12.9786 63.6859 12.8133L64.2036 12.0368H64.5271V13.5898H64.2683V12.2956C64.169 12.4614 64.0825 12.6344 64.0095 12.8133L63.7506 13.2663L63.5565 13.6545H63.2329L63.1682 12.0368ZM66.0802 12.6192V13.5898H65.8214V13.3957L65.6272 13.5898C65.5513 13.6413 65.4596 13.6642 65.3684 13.6545C65.3084 13.6563 65.2487 13.6458 65.1929 13.6237C65.1372 13.6016 65.0865 13.5683 65.0441 13.5258C65.0017 13.4834 64.9684 13.4328 64.9462 13.377C64.9241 13.3212 64.9136 13.2615 64.9154 13.2016C64.911 13.1092 64.9329 13.0176 64.9788 12.9373C65.0246 12.8571 65.0925 12.7916 65.1743 12.7486C65.2775 12.6789 65.3941 12.6314 65.5166 12.6091C65.6391 12.5869 65.7649 12.5903 65.8861 12.6192V12.4897C65.8861 12.425 65.8861 12.425 65.8214 12.3603C65.7567 12.2956 65.7567 12.2956 65.6919 12.2956C65.6272 12.2956 65.5625 12.2309 65.4978 12.2309C65.3603 12.2443 65.2276 12.2885 65.1095 12.3603L65.0448 12.1662C65.2057 12.0853 65.3825 12.0411 65.5625 12.0368C65.8861 11.972 66.0996 12.2309 66.0996 12.6192H66.0802ZM65.7567 13.0721V12.8003C65.3037 12.8003 65.1095 12.9298 65.1095 13.1239C65.1095 13.318 65.1743 13.3827 65.3037 13.3827H65.3684C65.4596 13.3924 65.5513 13.3695 65.6272 13.318C65.6919 13.2533 65.7567 13.1886 65.7567 13.1239V13.0592V13.0721ZM66.3391 12.0368H67.6333V12.2956H67.1156V13.6545H66.8567V12.2956H66.3391V12.0368ZM67.8274 12.0368H68.0862V13.331C68.1585 13.1517 68.245 12.9786 68.3451 12.8133L68.8628 12.0368H69.1863V13.5898H68.9275V12.2956C68.8282 12.4614 68.7417 12.6344 68.6686 12.8133C68.5931 12.9702 68.5066 13.1215 68.4098 13.2663L68.2157 13.6545H67.8921L67.8274 12.0368ZM69.704 13.5898V12.0368C69.8982 12.0368 70.0276 11.972 70.2217 11.972C70.6747 11.972 70.9335 12.1015 70.9335 12.3603C70.9432 12.4515 70.9203 12.5432 70.8688 12.6192C70.838 12.6586 70.7988 12.6907 70.754 12.7131C70.7092 12.7355 70.66 12.7476 70.61 12.7486C70.66 12.7495 70.7092 12.7616 70.754 12.784C70.7988 12.8064 70.838 12.8385 70.8688 12.878C70.9369 12.9493 70.982 13.0395 70.9982 13.1368C70.9982 13.4604 70.7394 13.5898 70.157 13.5898H69.704ZM69.9629 12.2309V12.6839H70.157C70.2688 12.6939 70.3812 12.6715 70.4805 12.6192C70.5453 12.6192 70.61 12.4897 70.61 12.425C70.61 12.3603 70.4805 12.1662 70.157 12.1662L69.9629 12.2309ZM69.9629 12.878V13.3957H70.157C70.2691 13.4126 70.3836 13.3897 70.4805 13.331C70.5453 13.331 70.61 13.2016 70.61 13.1368C70.61 13.0721 70.5453 12.9427 70.4805 12.9427C70.3583 12.89 70.225 12.8678 70.0923 12.878H69.9629Z" fill="#036202"/>
<path d="M25.5713 27.1791H24.7948L24.536 27.8909H24.2124L24.9889 25.6907H25.3319L26.1084 27.8909H25.7849L25.5713 27.1791ZM24.8595 26.9849H25.5066L25.3125 26.3378C25.2798 26.2051 25.2366 26.0753 25.1831 25.9496C25.1697 26.0871 25.1254 26.2198 25.0536 26.3378L24.8595 26.9849ZM26.1537 26.3378H27.4479V26.532H26.9303V27.8909H26.6261V26.532H26.1084L26.1537 26.3378ZM27.5127 26.3378H27.8362L28.1598 27.2438C28.2245 27.3732 28.2245 27.4379 28.2892 27.5673C28.2892 27.5026 28.2892 27.5026 28.3539 27.4379C28.4186 27.3732 28.4186 27.3085 28.4186 27.2438L28.7422 26.3378H29.0657L28.6127 27.4379C28.548 27.632 28.4186 27.8909 28.3539 28.085C28.3054 28.2183 28.2145 28.332 28.0951 28.4086C27.9656 28.4733 27.9009 28.538 27.7715 28.6027L27.7068 28.3439C27.8041 28.3277 27.8943 28.2826 27.9656 28.2144C28.085 28.1379 28.176 28.0242 28.2245 27.8909V27.7615L27.5127 26.3378ZM29.1304 26.3378H29.454L29.7775 27.2438C29.8422 27.3732 29.8422 27.4379 29.907 27.5673C29.907 27.5026 29.907 27.5026 29.9717 27.4379L30.0364 27.2438L30.3599 26.3378H30.6835L30.2305 27.4379C30.1658 27.632 30.0364 27.8909 29.9717 28.085C29.9232 28.2183 29.8322 28.332 29.7128 28.4086C29.5834 28.4733 29.5187 28.538 29.3893 28.6027L29.3246 28.3439C29.4219 28.3277 29.5121 28.2826 29.5834 28.2144C29.7028 28.1379 29.7938 28.0242 29.8422 27.8909V27.7615L29.1304 26.3378ZM30.9423 26.3378H32.0424V27.8909H31.803V26.532H31.2853V26.9202C31.2958 27.1166 31.274 27.3134 31.2206 27.5026C31.2206 27.632 31.1559 27.6968 31.0265 27.8262C30.9271 27.8785 30.8147 27.901 30.7029 27.8909V27.6838C30.7676 27.6838 30.8323 27.6838 30.8323 27.6191C30.8323 27.5544 30.9617 27.4897 30.9617 27.425C30.9617 27.3603 31.0265 27.1014 30.9617 26.972L30.9423 26.3378ZM32.6895 26.3378H33.7443V27.6838H33.8737V28.3956H33.6796V27.8779H32.5795V28.3956H32.3854V27.6838H32.4501C32.5148 27.5544 32.5795 27.4897 32.5795 27.3603C32.633 27.149 32.6548 26.9309 32.6442 26.7131L32.6895 26.3378ZM32.9484 26.532V26.7908C32.9589 26.9872 32.937 27.1839 32.8837 27.3732C32.8837 27.5026 32.8189 27.5673 32.7542 27.6968H33.4661V26.532H32.9484ZM34.0484 26.3378H34.3073L34.6308 27.2438C34.6956 27.3732 34.6956 27.4379 34.7603 27.5673C34.7603 27.5026 34.7603 27.5026 34.825 27.4379L34.8897 27.2438L35.2132 26.3378H35.5368L35.0838 27.4379C35.0191 27.632 34.8897 27.8909 34.825 28.085C34.7765 28.2183 34.6855 28.332 34.5661 28.4086C34.4367 28.4733 34.372 28.538 34.2426 28.6027L34.1779 28.3439C34.2752 28.3277 34.3654 28.2826 34.4367 28.2144C34.5561 28.1379 34.6471 28.0242 34.6956 27.8909V27.7615L34.0484 26.3378ZM35.8604 26.3378H36.1192V26.9849H36.1839L36.7663 26.3378H37.0899L36.378 27.0367C36.5075 27.0367 36.5722 27.1014 36.7016 27.1661L36.8957 27.5544C36.9328 27.6959 36.9989 27.8281 37.0899 27.9427H36.7663C36.7016 27.8132 36.6369 27.7485 36.6369 27.6191C36.5885 27.5217 36.5227 27.434 36.4427 27.3603C36.4308 27.3299 36.4127 27.3023 36.3897 27.2792C36.3667 27.256 36.3392 27.2378 36.3089 27.2257C36.2786 27.2136 36.2461 27.2078 36.2135 27.2087C36.1809 27.2096 36.1488 27.2171 36.1192 27.2308H36.0545V27.8779H35.7956L35.8604 26.3378ZM38.4488 25.6907H39.6783V27.632H39.8724V28.4086H39.6783V27.8909H38.1899V28.4086H37.9958V27.632H38.1252C38.1899 27.5026 38.2547 27.3085 38.3194 27.1791C38.3709 26.88 38.3926 26.5765 38.3841 26.2731L38.4488 25.6907ZM38.7076 25.9496V26.3378C38.7285 26.6455 38.6844 26.9542 38.5782 27.2438L38.3841 27.632H39.3547V25.9496H38.7076ZM41.4255 27.1791H40.3254C40.3284 27.3186 40.3735 27.4539 40.4548 27.5673C40.5729 27.6391 40.7056 27.6834 40.8431 27.6968C40.9969 27.7072 41.1513 27.6851 41.2961 27.632L41.3608 27.8262C41.1929 27.8757 41.018 27.8976 40.8431 27.8909C40.6339 27.8861 40.4309 27.8185 40.2607 27.6968C40.1347 27.5287 40.0666 27.3244 40.0666 27.1144C40.0666 26.9043 40.1347 26.7 40.2607 26.532C40.3596 26.411 40.4959 26.3263 40.6481 26.2912C40.8004 26.256 40.96 26.2724 41.1019 26.3378L41.2961 26.532C41.3608 26.5967 41.3608 26.6614 41.4255 26.7908V27.1791ZM40.3254 26.9202H41.1666V26.7908C41.1598 26.7417 41.1371 26.6963 41.1019 26.6614C41.1019 26.5967 41.0372 26.5967 40.9725 26.532C40.9078 26.4672 40.8431 26.4672 40.7784 26.4672C40.6583 26.4695 40.5433 26.5155 40.4548 26.5967C40.3901 26.7261 40.3254 26.7908 40.3254 26.9202ZM41.749 27.8909L41.8785 26.3378H42.202L42.4609 27.1144C42.5336 27.2553 42.5776 27.4093 42.5903 27.5673C42.6727 27.3952 42.7441 27.218 42.8038 27.0367L43.0627 26.3896H43.3862L43.5156 27.9427H43.2568L43.1921 27.1661V26.5837C43.1552 26.7655 43.0896 26.9402 42.998 27.1014L42.7391 27.8779H42.545L42.2861 27.1014C42.2128 26.9378 42.169 26.7626 42.1567 26.5837V27.1661L42.092 27.8779L41.749 27.8909ZM43.9492 26.3378H44.208V27.632L44.4669 27.1791L44.9846 26.4025H45.3081V27.8909H45.0493V26.5967C44.9376 26.7553 44.8504 26.9298 44.7904 27.1144C44.7291 27.2783 44.6417 27.4313 44.5316 27.5673L44.2728 27.8909H43.9492V26.3378ZM45.8905 26.3378H46.9906V27.8909H46.6865V26.532H46.1688V26.9202C46.1793 27.1166 46.1574 27.3134 46.1041 27.5026C46.1053 27.5693 46.0877 27.635 46.0534 27.6922C46.0191 27.7495 45.9694 27.7959 45.9099 27.8262C45.8106 27.8785 45.6982 27.901 45.5864 27.8909V27.6838C45.6511 27.6838 45.7158 27.6838 45.7158 27.6191C45.7158 27.5544 45.8452 27.4897 45.8452 27.425C45.8452 27.3603 45.9099 27.1014 45.9099 26.972L45.8905 26.3378ZM47.4436 26.3378H48.4143V26.532H47.7024V27.8909H47.4436V26.3378ZM49.9026 27.1144H48.8025C48.8055 27.2539 48.8507 27.3892 48.9319 27.5026C49.05 27.5744 49.1827 27.6186 49.3202 27.632C49.4741 27.6425 49.6284 27.6204 49.7732 27.5673L49.8379 27.7615C49.6623 27.8651 49.4584 27.9104 49.2555 27.8909C49.0463 27.8861 48.8433 27.8185 48.6731 27.6968C48.5471 27.5287 48.479 27.3244 48.479 27.1144C48.479 26.9043 48.5471 26.7 48.6731 26.532C48.772 26.411 48.9083 26.3263 49.0605 26.2912C49.2128 26.256 49.3724 26.2724 49.5143 26.3378L49.7085 26.532C49.7732 26.5967 49.7732 26.6614 49.8379 26.7908C49.9026 26.9202 49.9026 26.9202 49.9026 27.0496V27.1144ZM48.8025 26.9202H49.6438V26.7908C49.6438 26.7261 49.6438 26.6614 49.579 26.6614C49.5143 26.6614 49.5143 26.5967 49.4496 26.532C49.4241 26.5075 49.3934 26.489 49.3598 26.4778C49.3263 26.4666 49.2906 26.463 49.2555 26.4672C49.1355 26.4695 49.0204 26.5155 48.9319 26.5967C48.8672 26.7261 48.8025 26.7908 48.8025 26.9202ZM50.3556 26.2731H51.4557V27.8262H51.2162V26.4672H50.6985V26.8555C50.7091 27.0519 50.6872 27.2486 50.6338 27.4379C50.6087 27.5595 50.5446 27.6696 50.4511 27.7514C50.3577 27.8332 50.24 27.8822 50.1161 27.8909V27.6838C50.1809 27.6838 50.2456 27.6838 50.2456 27.6191C50.2456 27.5544 50.375 27.4897 50.375 27.425V26.2602L50.3556 26.2731ZM53.2029 27.1144H52.1028C52.1058 27.2539 52.1509 27.3892 52.2322 27.5026C52.3502 27.5744 52.483 27.6186 52.6205 27.632C52.7743 27.6425 52.9286 27.6204 53.0734 27.5673L53.1381 27.7615C52.9746 27.8348 52.7993 27.8786 52.6205 27.8909C52.4112 27.8861 52.2083 27.8185 52.0381 27.6968C51.912 27.5287 51.8439 27.3244 51.8439 27.1144C51.8439 26.9043 51.912 26.7 52.0381 26.532C52.137 26.411 52.2732 26.3263 52.4255 26.2912C52.5778 26.256 52.7374 26.2724 52.8793 26.3378L53.0734 26.532C53.1381 26.5967 53.1381 26.6614 53.2029 26.7908V27.0367C53.2029 27.0367 53.2676 27.1014 53.2029 27.1014V27.1144ZM52.1028 26.9202H52.944V26.7908C52.9372 26.7417 52.9144 26.6963 52.8793 26.6614C52.8793 26.5967 52.8146 26.5967 52.7499 26.532C52.6852 26.4672 52.6205 26.4672 52.5557 26.4672C52.4357 26.4695 52.3206 26.5155 52.2322 26.5967C52.1675 26.7261 52.1675 26.7908 52.1028 26.9202ZM53.5911 28.4733V26.2731H53.85V26.5967C53.9111 26.4973 53.9968 26.4153 54.0988 26.3586C54.2008 26.3019 54.3157 26.2725 54.4324 26.2731C54.5182 26.2641 54.6048 26.2772 54.6842 26.3111C54.7635 26.3451 54.8327 26.3989 54.8853 26.4672C55.0159 26.6329 55.0845 26.8388 55.0795 27.0496C55.0847 27.2804 55.0167 27.5069 54.8853 27.6968C54.7445 27.8261 54.5589 27.8957 54.3677 27.8909C54.2664 27.896 54.1655 27.8748 54.0748 27.8295C53.9841 27.7841 53.9067 27.7161 53.85 27.632V28.538L53.5911 28.4733ZM53.9147 26.9202V27.3085C53.9309 27.4058 53.976 27.496 54.0441 27.5673C54.12 27.6188 54.2117 27.6417 54.3029 27.632C54.3696 27.6333 54.4353 27.6157 54.4926 27.5814C54.5498 27.5471 54.5962 27.4973 54.6265 27.4379C54.7075 27.3004 54.752 27.1445 54.7559 26.9849C54.7529 26.8454 54.7078 26.7101 54.6265 26.5967C54.5962 26.5372 54.5498 26.4875 54.4926 26.4532C54.4353 26.4189 54.3696 26.4013 54.3029 26.4025C54.205 26.4168 54.1144 26.4623 54.0444 26.5323C53.9745 26.6022 53.929 26.6929 53.9147 26.7908V26.9202ZM56.2443 25.626H57.4738V25.8849H56.5678V26.4672H56.8267C57.0264 26.4793 57.223 26.523 57.4091 26.5967C57.4822 26.6527 57.5425 26.7236 57.586 26.8048C57.6294 26.886 57.6551 26.9755 57.6612 27.0673C57.6674 27.1592 57.6538 27.2514 57.6215 27.3376C57.5892 27.4238 57.5388 27.5021 57.4738 27.5673C57.3747 27.6733 57.2542 27.7569 57.1203 27.8127C56.9864 27.8685 56.8422 27.8951 56.6972 27.8909H56.2443V25.626ZM56.5031 26.6614V27.632H56.762C56.847 27.6343 56.9315 27.6182 57.0097 27.5846C57.0879 27.5511 57.1579 27.5011 57.2149 27.4379C57.2961 27.3495 57.3421 27.2344 57.3443 27.1144C57.3456 27.0477 57.328 26.9819 57.2937 26.9247C57.2594 26.8675 57.2096 26.8211 57.1502 26.7908C57.0322 26.719 56.8995 26.6748 56.762 26.6614H56.5031ZM58.6386 27.8262C58.4474 27.831 58.2617 27.7614 58.1209 27.632C57.9949 27.464 57.9267 27.2597 57.9267 27.0496C57.9267 26.8396 57.9949 26.6353 58.1209 26.4672C58.1912 26.385 58.2825 26.3235 58.3851 26.2893C58.4877 26.2551 58.5977 26.2495 58.7033 26.2731C58.8945 26.2683 59.0801 26.3379 59.221 26.4672C59.2977 26.5436 59.3585 26.6344 59.4 26.7343C59.4416 26.8343 59.4629 26.9414 59.4629 27.0496C59.4629 27.1579 59.4416 27.265 59.4 27.365C59.3585 27.4649 59.2977 27.5557 59.221 27.632C59.1603 27.7257 59.0696 27.7959 58.9638 27.8311C58.8579 27.8664 58.7433 27.8647 58.6386 27.8262ZM58.6386 27.632C58.7053 27.6333 58.771 27.6157 58.8282 27.5814C58.8854 27.5471 58.9318 27.4973 58.9621 27.4379C59.0431 27.3004 59.0876 27.1445 59.0915 26.9849C59.0885 26.8454 59.0434 26.7101 58.9621 26.5967C58.9318 26.5372 58.8854 26.4875 58.8282 26.4532C58.771 26.4189 58.7053 26.4013 58.6386 26.4025C58.5641 26.4072 58.4914 26.4268 58.4247 26.4602C58.358 26.4935 58.2987 26.5399 58.2503 26.5967C58.1693 26.7342 58.1248 26.8901 58.1209 27.0496C58.1336 27.2077 58.1776 27.3617 58.2503 27.5026C58.3797 27.632 58.5091 27.6968 58.6386 27.632ZM59.8034 28.4733V26.3378H60.0622V26.5967C60.1233 26.4973 60.209 26.4153 60.311 26.3586C60.413 26.3019 60.5279 26.2725 60.6446 26.2731C60.7304 26.2641 60.8171 26.2772 60.8964 26.3111C60.9757 26.3451 61.045 26.3989 61.0976 26.4672C61.2281 26.6329 61.2967 26.8388 61.2917 27.0496C61.2969 27.2804 61.229 27.5069 61.0976 27.6968C60.9567 27.8261 60.7711 27.8957 60.5799 27.8909C60.4786 27.896 60.3777 27.8748 60.287 27.8295C60.1964 27.7841 60.1189 27.7161 60.0622 27.632V28.538L59.8034 28.4733ZM60.1269 26.9202V27.3085C60.1431 27.4058 60.1882 27.496 60.2563 27.5673C60.3323 27.6188 60.424 27.6417 60.5152 27.632C60.5855 27.641 60.6568 27.634 60.7241 27.6116C60.7913 27.5892 60.8526 27.5519 60.9034 27.5026C60.9844 27.3651 61.0289 27.2092 61.0329 27.0496C61.0298 26.9101 60.9847 26.7748 60.9034 26.6614C60.8731 26.6019 60.8267 26.5522 60.7695 26.5179C60.7123 26.4836 60.6466 26.466 60.5799 26.4672C60.5298 26.4682 60.4806 26.4803 60.4358 26.5027C60.3911 26.5251 60.3518 26.5572 60.321 26.5967C60.2563 26.6199 60.2016 26.6648 60.1662 26.7238C60.1308 26.7827 60.1169 26.8522 60.1269 26.9202ZM62.9095 25.4966V25.7425C62.7801 25.7425 62.7153 25.8072 62.5859 25.8072C62.4708 25.8141 62.3587 25.8467 62.2579 25.9027C62.1571 25.9587 62.0702 26.0367 62.0035 26.1308C61.8741 26.2602 61.8741 26.4543 61.8094 26.6484C61.8578 26.5511 61.9236 26.4633 62.0035 26.3896C62.1029 26.3373 62.2152 26.3148 62.3271 26.3249C62.5183 26.32 62.7039 26.3896 62.8448 26.519C62.9736 26.6849 63.0451 26.8881 63.0486 27.0982C63.0521 27.3082 62.9874 27.5137 62.8642 27.6838C62.8036 27.7601 62.7234 27.8184 62.6322 27.8526C62.541 27.8868 62.4423 27.8956 62.3465 27.8779C62.2344 27.8948 62.1199 27.8719 62.0229 27.8132C61.9582 27.7485 61.8288 27.6838 61.8288 27.5544C61.8288 27.425 61.7641 27.3603 61.6994 27.2308C61.6347 27.1014 61.6347 26.972 61.6347 26.8426C61.62 26.5405 61.7116 26.2429 61.8935 26.0013C61.9582 25.8719 62.0877 25.8072 62.1524 25.7425C62.2704 25.6707 62.4031 25.6265 62.5406 25.6131C62.67 25.5484 62.7995 25.5484 62.9289 25.4836L62.9095 25.4966ZM62.7801 27.0496C62.7897 26.9584 62.7668 26.8667 62.7153 26.7908C62.7153 26.7261 62.6506 26.6614 62.5859 26.5967C62.5146 26.5285 62.4244 26.4835 62.3271 26.4672C62.2527 26.4719 62.1799 26.4915 62.1132 26.5249C62.0465 26.5582 61.9872 26.6047 61.9388 26.6614C61.8865 26.7607 61.864 26.8731 61.8741 26.9849C61.8644 27.0761 61.8873 27.1678 61.9388 27.2438C61.955 27.3411 62.0001 27.4313 62.0682 27.5026C62.14 27.565 62.232 27.5993 62.3271 27.5993C62.4222 27.5993 62.5141 27.565 62.5859 27.5026C62.5859 27.4855 62.5927 27.469 62.6049 27.4569C62.617 27.4447 62.6335 27.4379 62.6506 27.4379C62.7421 27.33 62.7885 27.1909 62.7801 27.0496ZM64.0743 27.8262C63.8831 27.831 63.6975 27.7614 63.5566 27.632C63.4306 27.464 63.3625 27.2597 63.3625 27.0496C63.3625 26.8396 63.4306 26.6353 63.5566 26.4672C63.6269 26.385 63.7182 26.3235 63.8208 26.2893C63.9234 26.2551 64.0334 26.2495 64.139 26.2731C64.3302 26.2683 64.5158 26.3379 64.6567 26.4672C64.7334 26.5436 64.7942 26.6344 64.8358 26.7343C64.8773 26.8343 64.8987 26.9414 64.8987 27.0496C64.8987 27.1579 64.8773 27.265 64.8358 27.365C64.7942 27.4649 64.7334 27.5557 64.6567 27.632C64.5227 27.7802 64.3379 27.8726 64.139 27.8909L64.0743 27.8262ZM64.0743 27.632C64.141 27.6333 64.2067 27.6157 64.2639 27.5814C64.3211 27.5471 64.3675 27.4973 64.3978 27.4379C64.4788 27.3004 64.5233 27.1445 64.5272 26.9849C64.5138 26.8474 64.4696 26.7147 64.3978 26.5967C64.3675 26.5372 64.3211 26.4875 64.2639 26.4532C64.2067 26.4189 64.141 26.4013 64.0743 26.4025C63.9999 26.4072 63.9271 26.4268 63.8604 26.4602C63.7937 26.4935 63.7344 26.5399 63.686 26.5967C63.605 26.7342 63.5605 26.8901 63.5566 27.0496C63.5693 27.2077 63.6133 27.3617 63.686 27.5026C63.7507 27.632 63.9449 27.7615 64.0743 27.6968V27.632ZM65.1744 28.4733V26.3378H65.4332V26.5967C65.4943 26.4973 65.58 26.4153 65.682 26.3586C65.784 26.3019 65.8989 26.2725 66.0156 26.2731C66.1014 26.2641 66.1881 26.2772 66.2674 26.3111C66.3467 26.3451 66.416 26.3989 66.4686 26.4672C66.5991 26.6329 66.6678 26.8388 66.6627 27.0496C66.6679 27.2804 66.6 27.5069 66.4686 27.6968C66.3277 27.8261 66.1421 27.8957 65.9509 27.8909C65.8496 27.896 65.7487 27.8748 65.6581 27.8295C65.5674 27.7841 65.4899 27.7161 65.4332 27.632V28.538L65.1744 28.4733ZM65.4979 26.9202V27.3085C65.5141 27.4058 65.5592 27.496 65.6273 27.5673C65.7033 27.6188 65.795 27.6417 65.8862 27.632C65.9529 27.6333 66.0186 27.6157 66.0758 27.5814C66.133 27.5471 66.1794 27.4973 66.2097 27.4379C66.2907 27.3004 66.3352 27.1445 66.3392 26.9849C66.3361 26.8454 66.291 26.7101 66.2097 26.5967C66.1794 26.5372 66.133 26.4875 66.0758 26.4532C66.0186 26.4189 65.9529 26.4013 65.8862 26.4025C65.7883 26.4168 65.6976 26.4623 65.6277 26.5323C65.5577 26.6022 65.5122 26.6929 65.4979 26.7908V26.9202ZM66.8568 26.2731H67.1804L67.5039 27.1791C67.5687 27.3085 67.5687 27.3732 67.6334 27.5026L67.6981 27.3732L67.7628 27.1791L68.0863 26.2731H68.4099L67.9569 27.3732C67.8922 27.5673 67.7628 27.8262 67.6981 28.0203C67.6496 28.1536 67.5587 28.2673 67.4392 28.3439C67.3098 28.4086 67.2451 28.4733 67.1157 28.538L67.051 28.2792C67.1483 28.2629 67.2385 28.2179 67.3098 28.1497C67.4292 28.0732 67.5202 27.9595 67.5687 27.8262V27.6838L66.8568 26.2731Z" fill="#036202"/>
</g>
<defs>
<clipPath id="clip0_11_193">
<rect width="71" height="28.643" fill="white"/>
</clipPath>
</defs>
</svg>
