<svg width="100" height="42" viewBox="0 0 100 42" fill="none" xmlns="http://www.w3.org/2000/svg">
<rect width="100" height="42" rx="3" fill="white"/>
<g clip-path="url(#clip0_400_3224)">
<path d="M51.9932 26.3762V23.3234H54.0862V23.8395H52.6088V24.5633H53.8886V25.0794H52.6088V26.3762H51.9932Z" fill="#034EA2"/>
<path d="M56.0456 26.3762V26.0463C55.9657 26.1664 55.8566 26.2642 55.7285 26.3307C55.6 26.3982 55.457 26.4333 55.3119 26.4331C55.1725 26.4352 55.0349 26.4014 54.9124 26.3349C54.7987 26.2741 54.7086 26.177 54.6564 26.0591C54.5968 25.9032 54.5697 25.7367 54.5768 25.57V24.1708H55.1626V25.1875C55.1544 25.3777 55.1653 25.5682 55.1953 25.7562C55.2145 25.8232 55.2555 25.8817 55.3119 25.9226C55.3761 25.9655 55.4523 25.9869 55.5295 25.9837C55.6255 25.985 55.7194 25.9562 55.7982 25.9013C55.873 25.8531 55.93 25.7816 55.9603 25.6979C56.0006 25.5016 56.0154 25.3009 56.0044 25.1007V24.168H56.5902V26.379L56.0456 26.3762Z" fill="#034EA2"/>
<path d="M59.2079 26.3762H58.6221V25.2514C58.63 25.096 58.6176 24.9401 58.5852 24.7879C58.5633 24.7215 58.5204 24.6641 58.4629 24.6244C58.403 24.5838 58.3318 24.5634 58.2595 24.5661C58.1622 24.5648 58.0669 24.5936 57.9865 24.6485C57.9087 24.7018 57.8507 24.7793 57.8216 24.8689C57.7837 25.0358 57.7684 25.207 57.7761 25.378V26.3733H57.1931V24.1651H57.7363V24.4893C57.8189 24.373 57.9283 24.2783 58.0553 24.2132C58.1823 24.1481 58.323 24.1145 58.4657 24.1153C58.5873 24.1135 58.7079 24.1373 58.8198 24.185C58.9149 24.2222 58.9986 24.2834 59.0629 24.3627C59.1177 24.4359 59.1564 24.5197 59.1767 24.6087C59.2017 24.7385 59.2127 24.8705 59.2094 25.0026L59.2079 26.3762Z" fill="#034EA2"/>
<path d="M61.8299 26.3761H61.2867V26.0519C61.2051 26.1716 61.0952 26.2693 60.9668 26.3363C60.8518 26.3968 60.7241 26.4289 60.5943 26.4302C60.4695 26.4304 60.3463 26.403 60.2334 26.3499C60.1206 26.2968 60.0209 26.2193 59.9416 26.123C59.7491 25.8818 59.6524 25.578 59.67 25.2699C59.67 24.8907 59.7582 24.6063 59.9345 24.4168C60.0166 24.3194 60.1196 24.2416 60.2357 24.1892C60.3518 24.1368 60.4782 24.1111 60.6056 24.1139C60.7286 24.1143 60.85 24.1421 60.9609 24.1952C61.0718 24.2483 61.1695 24.3255 61.2469 24.421V23.3219H61.8327L61.8299 26.3761ZM60.2658 25.223C60.2531 25.3993 60.2869 25.5758 60.3639 25.7349C60.4031 25.8056 60.461 25.8641 60.5312 25.9043C60.6014 25.9444 60.6812 25.9645 60.762 25.9624C60.8285 25.9626 60.8941 25.9473 60.9536 25.9177C61.0131 25.888 61.0648 25.8449 61.1047 25.7917C61.2102 25.6423 61.2604 25.4608 61.2469 25.2784C61.2629 25.0847 61.2128 24.8912 61.1047 24.7296C61.0637 24.6758 61.0104 24.6325 60.9494 24.6033C60.8883 24.5741 60.8212 24.5599 60.7535 24.5618C60.6865 24.5608 60.6201 24.5751 60.5595 24.6037C60.4989 24.6323 60.4456 24.6744 60.4037 24.7267C60.3011 24.8708 60.2527 25.0466 60.2672 25.223H60.2658Z" fill="#034EA2"/>
<path d="M63.6883 25.6781L64.2713 25.7762C64.2087 25.9733 64.084 26.1449 63.9158 26.2653C63.7353 26.382 63.5234 26.4406 63.3087 26.4331C62.9247 26.4331 62.6389 26.3065 62.4555 26.0549C62.3024 25.831 62.2256 25.5637 62.2365 25.2927C62.2191 24.9825 62.3208 24.6773 62.5209 24.4396C62.6114 24.3355 62.7236 24.2524 62.8496 24.1961C62.9756 24.1399 63.1124 24.1118 63.2504 24.114C63.3963 24.1068 63.542 24.1323 63.6768 24.1887C63.8116 24.245 63.9321 24.3307 64.0296 24.4396C64.2191 24.6576 64.3101 24.9894 64.3026 25.4349H62.8366C62.8314 25.5831 62.8822 25.7277 62.9788 25.8402C63.0217 25.8864 63.0739 25.923 63.132 25.9475C63.1901 25.972 63.2527 25.9839 63.3158 25.9824C63.3994 25.985 63.4814 25.9583 63.5475 25.907C63.6158 25.8461 63.6648 25.7665 63.6883 25.6781ZM63.721 25.0866C63.7264 24.9464 63.6798 24.8091 63.5902 24.7012C63.5503 24.6588 63.5022 24.625 63.4487 24.602C63.3953 24.5789 63.3377 24.5669 63.2795 24.5669C63.2213 24.5669 63.1637 24.5789 63.1103 24.602C63.0568 24.625 63.0087 24.6588 62.9688 24.7012C62.8815 24.8072 62.8378 24.9424 62.8465 25.0794L63.721 25.0866Z" fill="#034EA2"/>
<path d="M66.8079 26.3761H66.2647V26.0519C66.1831 26.1716 66.0732 26.2693 65.9448 26.3363C65.8299 26.3968 65.7022 26.4289 65.5723 26.4302C65.4476 26.4304 65.3243 26.403 65.2115 26.3499C65.0986 26.2968 64.9989 26.2193 64.9196 26.123C64.7271 25.8818 64.6304 25.578 64.648 25.2699C64.648 24.8907 64.7362 24.6063 64.9125 24.4168C64.9945 24.3196 65.0972 24.2419 65.2131 24.1895C65.329 24.1371 65.4551 24.1113 65.5822 24.1139C65.7052 24.1143 65.8266 24.1421 65.9375 24.1952C66.0484 24.2483 66.1461 24.3255 66.2235 24.421V23.3219H66.8093L66.8079 26.3761ZM65.2438 25.223C65.2311 25.3993 65.2649 25.5758 65.3419 25.7349C65.3809 25.8054 65.4385 25.864 65.5085 25.9041C65.5784 25.9442 65.658 25.9644 65.7386 25.9624C65.8054 25.9628 65.8712 25.9476 65.931 25.918C65.9907 25.8883 66.0427 25.8451 66.0827 25.7917C66.1882 25.6423 66.2385 25.4608 66.2249 25.2784C66.2409 25.0847 66.1908 24.8912 66.0827 24.7296C66.0417 24.6758 65.9885 24.6325 65.9274 24.6033C65.8663 24.5741 65.7992 24.5599 65.7315 24.5618C65.6645 24.5608 65.5982 24.5751 65.5375 24.6037C65.4769 24.6323 65.4236 24.6744 65.3818 24.7267C65.2791 24.8708 65.2307 25.0466 65.2452 25.223H65.2438Z" fill="#034EA2"/>
<path d="M68.5454 26.3762V23.3234H69.1369V24.4225C69.2144 24.327 69.3121 24.2499 69.423 24.1968C69.5339 24.1437 69.6552 24.1159 69.7782 24.1154C69.9046 24.1115 70.0302 24.1358 70.146 24.1865C70.2618 24.2371 70.365 24.3129 70.4479 24.4083C70.6352 24.6476 70.7255 24.9486 70.701 25.2515C70.7211 25.5653 70.625 25.8756 70.4309 26.1231C70.3513 26.2198 70.2512 26.2976 70.1378 26.3507C70.0244 26.4038 69.9006 26.431 69.7754 26.4302C69.6449 26.4286 69.5167 26.396 69.4014 26.3349C69.2741 26.2674 69.1653 26.1698 69.0843 26.0506V26.3748L68.5454 26.3762ZM69.1255 25.223C69.1133 25.3992 69.1513 25.5752 69.235 25.7306C69.2755 25.8019 69.3343 25.8611 69.4053 25.9021C69.4762 25.9431 69.5569 25.9644 69.6389 25.9638C69.7029 25.9639 69.7661 25.9491 69.8233 25.9204C69.8806 25.8918 69.9304 25.8502 69.9687 25.7989C70.0741 25.6462 70.1242 25.4621 70.1109 25.2771C70.1268 25.0842 70.0767 24.8917 69.9687 24.731C69.9277 24.6772 69.8745 24.6339 69.8134 24.6048C69.7523 24.5756 69.6852 24.5614 69.6175 24.5633C69.5506 24.562 69.4843 24.576 69.4236 24.6044C69.363 24.6327 69.3097 24.6746 69.2677 24.7268C69.1626 24.8699 69.1122 25.0459 69.1255 25.223Z" fill="#034EA2"/>
<path d="M70.8987 24.1652H71.5215L72.0504 25.7293L72.5666 24.1652H73.1737L72.3917 26.298L72.2495 26.6833C72.2122 26.7865 72.1646 26.8856 72.1073 26.9791C72.0646 27.0437 72.0101 27.0997 71.9466 27.144C71.8786 27.19 71.803 27.2237 71.7234 27.2436C71.6259 27.2686 71.5254 27.2805 71.4248 27.2791C71.3134 27.2795 71.2023 27.2676 71.0935 27.2436L71.0423 26.7857C71.1238 26.8022 71.2066 26.8113 71.2897 26.8127C71.3457 26.8173 71.4021 26.8088 71.4543 26.7881C71.5066 26.7674 71.5534 26.735 71.5911 26.6933C71.6614 26.6026 71.7127 26.4986 71.7419 26.3876L70.8987 24.1652Z" fill="#034EA2"/>
<path d="M52.9985 29.2839V29.7503H52.5989V30.6419C52.5947 30.7472 52.5985 30.8527 52.6103 30.9575C52.6177 30.988 52.6366 31.0145 52.6629 31.0315C52.6919 31.0508 52.7262 31.0608 52.761 31.0599C52.8421 31.0539 52.9218 31.0352 52.9971 31.0044L53.0468 31.458C52.9004 31.5185 52.7432 31.5485 52.5847 31.5462C52.4873 31.5473 52.3906 31.5289 52.3003 31.4922C52.2262 31.4631 52.1617 31.4138 52.1141 31.35C52.0698 31.2808 52.0416 31.2026 52.0316 31.121C52.0153 30.9842 52.0091 30.8464 52.0131 30.7087V29.7446H51.7444V29.2783H52.0131V28.8389L52.6004 28.4962V29.2783L52.9985 29.2839Z" fill="#034EA2"/>
<path d="M53.9882 28.4423V29.5656C54.1089 29.4138 54.2765 29.3063 54.4648 29.2597C54.653 29.2132 54.8514 29.2302 55.029 29.3082C55.1262 29.3499 55.2109 29.416 55.275 29.5002C55.3289 29.5783 55.3671 29.6662 55.3873 29.7589C55.4111 29.9041 55.4211 30.0512 55.4172 30.1983V31.4951H54.8314V30.3277C54.8388 30.1795 54.8278 30.031 54.7987 29.8855C54.7776 29.8236 54.7359 29.7709 54.6806 29.7362C54.6167 29.6982 54.5431 29.6794 54.4688 29.6822C54.3772 29.6806 54.2871 29.7047 54.2086 29.7518C54.13 29.8024 54.0709 29.8781 54.0408 29.9665C53.999 30.1047 53.9812 30.249 53.9882 30.3931V31.5008H53.4023V28.4423H53.9882Z" fill="#034EA2"/>
<path d="M57.2911 30.7969L57.8741 30.895C57.812 31.0924 57.6872 31.2642 57.5186 31.3841C57.3382 31.5011 57.1262 31.5597 56.9114 31.5519C56.7491 31.5634 56.5865 31.5349 56.4378 31.469C56.2891 31.403 56.1587 31.3016 56.0583 31.1737C55.9052 30.9498 55.8284 30.6825 55.8393 30.4115C55.8208 30.099 55.9225 29.7912 56.1237 29.5513C56.2152 29.4501 56.3275 29.3699 56.4529 29.3161C56.5784 29.2624 56.7139 29.2364 56.8503 29.2399C56.9962 29.2325 57.142 29.2579 57.2768 29.3143C57.4117 29.3706 57.5322 29.4565 57.6295 29.5655C57.8191 29.7835 57.9101 30.1153 57.9025 30.5608H56.4394C56.4342 30.709 56.4849 30.8537 56.5815 30.9661C56.6243 31.0125 56.6765 31.0492 56.7346 31.0738C56.7927 31.0983 56.8555 31.1101 56.9185 31.1083C57.0018 31.1109 57.0833 31.0842 57.1489 31.0329C57.2193 30.9706 57.269 30.8883 57.2911 30.7969ZM57.3252 30.2054C57.3312 30.0649 57.284 29.9273 57.193 29.82C57.1531 29.7779 57.105 29.7443 57.0517 29.7213C56.9984 29.6983 56.941 29.6865 56.883 29.6865C56.825 29.6865 56.7675 29.6983 56.7142 29.7213C56.6609 29.7443 56.6129 29.7779 56.573 29.82C56.4846 29.9255 56.4403 30.061 56.4493 30.1983L57.3252 30.2054Z" fill="#034EA2"/>
<path d="M59.572 31.4951V28.4423H61.8357V28.9584H60.1891V29.6352H61.7219V30.15H60.1891V30.9818H61.8954V31.4951H59.572Z" fill="#034EA2"/>
<path d="M63.8759 31.4951V31.1652C63.796 31.2853 63.6869 31.3831 63.5588 31.4496C63.4304 31.517 63.2874 31.5522 63.1422 31.552C63.0028 31.5541 62.8652 31.5203 62.7427 31.4538C62.629 31.393 62.5389 31.2959 62.4867 31.178C62.4271 31.0221 62.4 30.8556 62.4071 30.6889V29.2897H62.9929V30.3064C62.9847 30.4966 62.9957 30.6871 63.0256 30.8751C63.0448 30.9421 63.0859 31.0006 63.1422 31.0415C63.2063 31.0846 63.2826 31.106 63.3598 31.1026C63.4558 31.1039 63.5498 31.0751 63.6285 31.0202C63.7033 30.972 63.7603 30.9005 63.7906 30.8168C63.8309 30.6205 63.8458 30.4198 63.8347 30.2196V29.2869H64.4191V31.4979L63.8759 31.4951Z" fill="#034EA2"/>
<path d="M65.5822 31.495H64.9963V29.284H65.5409V29.5982C65.6037 29.4843 65.6888 29.3842 65.7912 29.3039C65.8671 29.2568 65.955 29.2326 66.0443 29.2342C66.1803 29.2351 66.3135 29.273 66.4296 29.3437L66.249 29.8542C66.1682 29.7965 66.0724 29.7634 65.9732 29.7589C65.8984 29.757 65.8252 29.7806 65.7656 29.8257C65.6965 29.892 65.6494 29.9779 65.6305 30.0717C65.588 30.3162 65.5718 30.5646 65.5822 30.8125V31.495Z" fill="#034EA2"/>
<path d="M66.5433 30.359C66.543 30.1606 66.5919 29.9652 66.6855 29.7902C66.7759 29.6135 66.9177 29.4682 67.0922 29.3736C67.2731 29.2768 67.4757 29.2278 67.6809 29.2314C67.8331 29.226 67.9849 29.2521 68.1265 29.3081C68.2682 29.3642 68.3968 29.4489 68.5041 29.557C68.6101 29.6657 68.6931 29.7946 68.7481 29.936C68.803 30.0775 68.8289 30.2286 68.8241 30.3803C68.8288 30.5337 68.8027 30.6865 68.7472 30.8297C68.6918 30.9728 68.6082 31.1033 68.5013 31.2135C68.3953 31.3218 68.2681 31.407 68.1277 31.4638C67.9872 31.5205 67.8366 31.5477 67.6851 31.5434C67.4833 31.5417 67.2847 31.493 67.105 31.4012C66.9236 31.3159 66.7741 31.175 66.6784 30.9988C66.5818 30.7998 66.5355 30.5801 66.5433 30.359ZM67.1434 30.3903C67.1314 30.5716 67.1871 30.751 67.2998 30.8936C67.3477 30.9485 67.4068 30.9925 67.4732 31.0227C67.5395 31.0529 67.6115 31.0685 67.6844 31.0685C67.7573 31.0685 67.8293 31.0529 67.8957 31.0227C67.962 30.9925 68.0211 30.9485 68.069 30.8936C68.1817 30.7494 68.237 30.5686 68.224 30.386C68.2363 30.2057 68.181 30.0273 68.069 29.8855C68.0211 29.8306 67.962 29.7866 67.8957 29.7564C67.8293 29.7262 67.7573 29.7106 67.6844 29.7106C67.6115 29.7106 67.5395 29.7262 67.4732 29.7564C67.4068 29.7866 67.3477 29.8306 67.2998 29.8855C67.1879 30.0289 67.1332 30.2088 67.1462 30.3903H67.1434Z" fill="#034EA2"/>
<path d="M69.2679 29.284H69.8139V29.6082C69.8855 29.4964 69.983 29.4037 70.0983 29.338C70.2207 29.2681 70.3597 29.2322 70.5007 29.2342C70.6252 29.233 70.7484 29.2595 70.8615 29.3116C70.9746 29.3637 71.0748 29.4402 71.1548 29.5357C71.346 29.773 71.4418 30.0732 71.4235 30.3774C71.4426 30.6883 71.3459 30.9953 71.1519 31.2391C71.0722 31.3357 70.9721 31.4133 70.8587 31.4664C70.7454 31.5196 70.6216 31.5468 70.4964 31.5462C70.3812 31.548 70.2673 31.5227 70.1637 31.4723C70.0441 31.4094 69.9371 31.3251 69.848 31.2234V32.3368H69.2622L69.2679 29.284ZM69.8466 30.3518C69.8294 30.5466 69.8796 30.7413 69.9888 30.9035C70.0314 30.9588 70.0861 31.0035 70.1487 31.0344C70.2113 31.0652 70.2802 31.0812 70.35 31.0813C70.4151 31.0817 70.4795 31.0671 70.5381 31.0388C70.5968 31.0104 70.6482 30.969 70.6884 30.9177C70.7954 30.7604 70.8455 30.5713 70.8306 30.3817C70.8437 30.1984 70.7935 30.0162 70.6884 29.8655C70.6479 29.812 70.5954 29.7688 70.5351 29.7394C70.4749 29.71 70.4085 29.6953 70.3414 29.6963C70.2736 29.6953 70.2064 29.7096 70.1448 29.7381C70.0833 29.7667 70.029 29.8088 69.986 29.8613C69.883 30.0031 69.834 30.1771 69.848 30.3518H69.8466Z" fill="#034EA2"/>
<path d="M73.171 30.7969L73.7539 30.895C73.6913 31.0921 73.5666 31.2637 73.3985 31.3841C73.2181 31.5011 73.0061 31.5597 72.7913 31.5519C72.629 31.5634 72.4664 31.5349 72.3177 31.469C72.1689 31.403 72.0386 31.3016 71.9382 31.1737C71.785 30.9498 71.7082 30.6825 71.7192 30.4115C71.7006 30.099 71.8024 29.7912 72.0036 29.5513C72.0951 29.4501 72.2074 29.3699 72.3328 29.3161C72.4582 29.2624 72.5938 29.2364 72.7302 29.2399C72.8761 29.2325 73.0219 29.2579 73.1567 29.3143C73.2916 29.3706 73.4121 29.4565 73.5094 29.5655C73.699 29.7835 73.79 30.1153 73.7824 30.5608H72.3192C72.3141 30.709 72.3648 30.8537 72.4614 30.9661C72.5042 31.0125 72.5563 31.0492 72.6145 31.0738C72.6726 31.0983 72.7353 31.1101 72.7984 31.1083C72.8817 31.1109 72.9632 31.0842 73.0288 31.0329C73.0992 30.9706 73.1488 30.8883 73.171 30.7969ZM73.2037 30.2054C73.2108 30.0649 73.164 29.9271 73.0728 29.82C73.033 29.7779 72.9849 29.7443 72.9316 29.7213C72.8783 29.6983 72.8209 29.6865 72.7629 29.6865C72.7048 29.6865 72.6474 29.6983 72.5941 29.7213C72.5408 29.7443 72.4928 29.7779 72.4529 29.82C72.3645 29.9255 72.3202 30.061 72.3292 30.1983L73.2037 30.2054Z" fill="#034EA2"/>
<path d="M74.6996 29.958L74.1692 29.8627C74.2128 29.673 74.3221 29.5047 74.4778 29.3878C74.6739 29.2721 74.9004 29.2186 75.1276 29.2342C75.3263 29.223 75.5251 29.2545 75.7106 29.3267C75.823 29.374 75.9172 29.4563 75.9793 29.5613C76.0441 29.7282 76.0709 29.9074 76.0575 30.086V30.7685C76.0543 30.9112 76.0638 31.054 76.0859 31.195C76.1083 31.2977 76.1437 31.3971 76.1912 31.4908H75.6068C75.5911 31.4524 75.5726 31.3955 75.5499 31.3187C75.5395 31.2837 75.5324 31.2609 75.5286 31.2505C75.4363 31.3422 75.3279 31.416 75.2086 31.468C75.0933 31.5178 74.9688 31.543 74.8432 31.542C74.6465 31.5528 74.4535 31.4859 74.3057 31.3557C74.2416 31.2962 74.1907 31.2237 74.1567 31.143C74.1226 31.0624 74.106 30.9754 74.1081 30.8879C74.1059 30.7703 74.137 30.6545 74.1977 30.5538C74.2576 30.4554 74.3451 30.3768 74.4493 30.3277C74.5981 30.2619 74.7542 30.2142 74.9143 30.1855C75.108 30.1564 75.2985 30.1088 75.4831 30.0433V29.985C75.4876 29.9412 75.4825 29.897 75.468 29.8555C75.4535 29.8139 75.43 29.7761 75.3992 29.7447C75.3053 29.6866 75.1947 29.6616 75.0849 29.6736C74.9995 29.6684 74.9146 29.6898 74.8418 29.7348C74.7719 29.7922 74.7221 29.8704 74.6996 29.958ZM75.4831 30.4329C75.3663 30.4692 75.2476 30.4991 75.1276 30.5225C75.0165 30.5406 74.9086 30.5751 74.8077 30.6249C74.773 30.647 74.7444 30.6774 74.7245 30.7135C74.7046 30.7495 74.6941 30.7899 74.6939 30.831C74.6932 30.871 74.701 30.9106 74.7167 30.9474C74.7324 30.9841 74.7556 31.0172 74.7849 31.0443C74.8158 31.0741 74.8524 31.0973 74.8924 31.1127C74.9325 31.1281 74.9752 31.1353 75.0181 31.1339C75.1277 31.1324 75.234 31.0955 75.321 31.0287C75.3889 30.9822 75.439 30.914 75.4631 30.8353C75.4826 30.7418 75.4903 30.6463 75.4859 30.5509L75.4831 30.4329Z" fill="#034EA2"/>
<path d="M78.6466 31.495H78.0622V30.3703C78.0706 30.2148 78.0577 30.0588 78.0238 29.9068C78.0026 29.8401 77.9595 29.7825 77.9015 29.7433C77.8421 29.7029 77.7714 29.6825 77.6996 29.685C77.6022 29.6832 77.5067 29.712 77.4266 29.7674C77.3483 29.8204 77.2898 29.898 77.2603 29.9878C77.223 30.1548 77.2082 30.326 77.2162 30.4969V31.4922H76.6304V29.284H77.1735V29.6082C77.2562 29.4919 77.3656 29.3972 77.4926 29.3321C77.6195 29.267 77.7603 29.2334 77.903 29.2342C78.0246 29.2324 78.1452 29.2562 78.257 29.3039C78.3521 29.3411 78.4359 29.4023 78.5002 29.4816C78.5549 29.5548 78.5937 29.6386 78.6139 29.7276C78.6397 29.8573 78.6507 29.9894 78.6466 30.1215V31.495Z" fill="#034EA2"/>
<path d="M80.4253 28.4423H81.0424V30.0959C81.0372 30.2664 81.0448 30.4371 81.0652 30.6064C81.0887 30.7265 81.1555 30.8338 81.2529 30.9078C81.373 30.9889 81.5163 31.0283 81.661 31.0202C81.801 31.0303 81.9403 30.9927 82.0562 30.9135C82.1404 30.8502 82.1981 30.758 82.2183 30.6547C82.2407 30.4827 82.2497 30.3092 82.2454 30.1357V28.4423H82.8625V30.0462C82.8706 30.306 82.8534 30.566 82.8113 30.8225C82.7835 30.9639 82.7204 31.096 82.6279 31.2064C82.5296 31.317 82.4062 31.4023 82.2681 31.4553C82.08 31.5231 81.8807 31.5545 81.6809 31.5477C81.455 31.5584 81.2293 31.5241 81.0168 31.4467C80.879 31.3887 80.7568 31.299 80.6599 31.1851C80.5777 31.0862 80.5189 30.9701 80.4879 30.8453C80.4399 30.5904 80.4194 30.331 80.4268 30.0718L80.4253 28.4423Z" fill="#034EA2"/>
<path d="M85.5188 31.495H84.933V30.3703C84.9409 30.2148 84.9285 30.059 84.896 29.9067C84.8742 29.8403 84.8313 29.7829 84.7737 29.7432C84.7139 29.7027 84.6427 29.6822 84.5704 29.6849C84.4731 29.6836 84.3777 29.7124 84.2974 29.7674C84.2196 29.8206 84.1616 29.8981 84.1325 29.9878C84.0946 30.1547 84.0792 30.3259 84.087 30.4968V31.4922H83.4983V29.284H84.0415V29.6081C84.1246 29.4906 84.2351 29.395 84.3634 29.3296C84.4917 29.2642 84.634 29.231 84.778 29.2328C84.8996 29.231 85.0202 29.2547 85.1321 29.3024C85.2271 29.3396 85.3109 29.4008 85.3752 29.4802C85.4299 29.5533 85.4687 29.6371 85.489 29.7262C85.514 29.8559 85.525 29.9879 85.5217 30.12L85.5188 31.495Z" fill="#034EA2"/>
<path d="M86.1116 28.984V28.4423H86.6974V28.984H86.1116ZM86.1116 31.4951V29.284H86.6974V31.4951H86.1116Z" fill="#034EA2"/>
<path d="M87.1624 30.3589C87.162 30.1604 87.2109 29.965 87.3046 29.7901C87.3955 29.6133 87.5378 29.4681 87.7127 29.3735C87.8934 29.2764 88.0962 29.2274 88.3013 29.2313C88.4534 29.2258 88.6049 29.2519 88.7464 29.308C88.8878 29.364 89.0161 29.4488 89.1232 29.5569C89.2296 29.6653 89.313 29.7941 89.3682 29.9356C89.4235 30.0771 89.4494 30.2284 89.4445 30.3802C89.4496 30.5338 89.4234 30.6868 89.3677 30.83C89.312 30.9732 89.2279 31.1036 89.1203 31.2134C89.0145 31.3215 88.8876 31.4066 88.7474 31.4634C88.6072 31.5201 88.4568 31.5473 88.3056 31.5433C88.1038 31.542 87.905 31.4933 87.7255 31.4011C87.5442 31.3156 87.3948 31.1747 87.2989 30.9987C87.2018 30.7998 87.1549 30.5801 87.1624 30.3589ZM87.761 30.3902C87.749 30.5715 87.8047 30.7509 87.9174 30.8935C87.9655 30.9484 88.0247 30.9925 88.0912 31.0227C88.1576 31.0528 88.2298 31.0684 88.3027 31.0684C88.3757 31.0684 88.4479 31.0528 88.5143 31.0227C88.5808 30.9925 88.64 30.9484 88.6881 30.8935C88.8001 30.7489 88.8552 30.5684 88.8431 30.3859C88.8546 30.2057 88.7995 30.0275 88.6881 29.8854C88.64 29.8304 88.5808 29.7864 88.5143 29.7562C88.4479 29.7261 88.3757 29.7105 88.3027 29.7105C88.2298 29.7105 88.1576 29.7261 88.0912 29.7562C88.0247 29.7864 87.9655 29.8304 87.9174 29.8854C87.8055 30.0288 87.7508 30.2087 87.7638 30.3902H87.761Z" fill="#034EA2"/>
<path d="M91.9144 31.495H91.33V30.3703C91.3384 30.2147 91.3255 30.0588 91.2916 29.9067C91.2704 29.84 91.2273 29.7824 91.1693 29.7432C91.1099 29.7029 91.0392 29.6824 90.9674 29.6849C90.8701 29.6834 90.7747 29.7122 90.6944 29.7674C90.6161 29.8204 90.5575 29.8979 90.5281 29.9878C90.4908 30.1548 90.476 30.3259 90.484 30.4968V31.4922H89.8967V29.284H90.4413V29.6081C90.5241 29.4905 90.6343 29.3948 90.7624 29.3294C90.8905 29.264 91.0326 29.2308 91.1764 29.2328C91.298 29.231 91.4186 29.2547 91.5305 29.3024C91.6256 29.3396 91.7094 29.4008 91.7736 29.4802C91.8284 29.5533 91.8671 29.6371 91.8874 29.7262C91.9132 29.8558 91.9241 29.9879 91.9201 30.12L91.9144 31.495Z" fill="#034EA2"/>
<path d="M47.385 7H7V34.6406H47.385V7Z" fill="#034EA2"/>
<path d="M26.3037 13.6474L27.154 13.026L28.0058 13.6474L27.6816 12.6421L28.5461 12.0222H27.4811L27.154 11.0055L26.8284 12.0236L25.7634 12.0222L26.6279 12.6421L26.3037 13.6474Z" fill="#FFF200"/>
<path d="M21.9002 14.8304L22.7505 14.2091L23.6008 14.8304L23.278 13.8252L24.1425 13.2052H23.0761L22.7505 12.1871L22.4249 13.2052H21.3599L22.223 13.8252L21.9002 14.8304Z" fill="#FFF200"/>
<path d="M19.5283 15.4163L19.2027 16.4358L18.1377 16.4343L19.0022 17.0557L18.678 18.0596L19.5283 17.4382L20.38 18.0596L20.0558 17.0557L20.9189 16.4343H19.8554L19.5283 15.4163Z" fill="#FFF200"/>
<path d="M18.3469 21.8362L19.1972 22.4575L18.8744 21.4537L19.7375 20.8323H18.6725L18.3469 19.8142L18.0213 20.8337L16.9563 20.8323L17.8194 21.4537L17.4966 22.4575L18.3469 21.8362Z" fill="#FFF200"/>
<path d="M19.8554 25.2429L19.5283 24.2249L19.2027 25.2444L18.1377 25.2429L19.0022 25.8643L18.678 26.8682L19.5283 26.2468L20.38 26.8682L20.0558 25.8643L20.9189 25.2429H19.8554Z" fill="#FFF200"/>
<path d="M23.0832 28.4707L22.7576 27.4554L22.4319 28.4721L21.3669 28.4707L22.23 29.0921L21.9073 30.0959L22.7576 29.476L23.6079 30.0959L23.2851 29.0921L24.1482 28.4707H23.0832Z" fill="#FFF200"/>
<path d="M27.4809 29.6409L27.1553 28.6243L26.8297 29.6423L25.7646 29.6409L26.6277 30.2623L26.305 31.2662L27.1553 30.6448L28.0056 31.2662L27.6814 30.2623L28.5459 29.6409H27.4809Z" fill="#FFF200"/>
<path d="M31.8791 28.4707L31.5535 27.4554L31.2264 28.4721L30.1628 28.4707L31.0259 29.0921L30.7032 30.0959L31.5535 29.476L32.4038 30.0959L32.0796 29.0921L32.9441 28.4707H31.8791Z" fill="#FFF200"/>
<path d="M35.108 25.2429L34.781 24.2249L34.4554 25.2444L33.3904 25.2429L34.2549 25.8643L33.9307 26.8682L34.781 26.2468L35.6327 26.8682L35.3085 25.8643L36.1716 25.2429H35.108Z" fill="#FFF200"/>
<path d="M37.342 20.8194H36.277L35.9499 19.8027L35.6243 20.8208L34.5593 20.8194L35.4238 21.4408L35.1011 22.4446L35.9499 21.8233L36.8017 22.4446L36.4775 21.4408L37.342 20.8194Z" fill="#FFF200"/>
<path d="M33.9307 18.0453L34.781 17.4253L35.6327 18.0453L35.3085 17.0414L36.1716 16.4214H35.108L34.781 15.4048L34.4554 16.4229L33.3904 16.4214L34.2549 17.0414L33.9307 18.0453Z" fill="#FFF200"/>
<path d="M31.5662 12.1885L31.2405 13.2066L30.1755 13.2051L31.0386 13.8265L30.7144 14.8318L31.5676 14.209L32.4165 14.8318L32.0937 13.8265L32.9582 13.2051H31.8918L31.5662 12.1885Z" fill="#FFF200"/>
</g>
<path d="M51.1591 15.3643V15.0909H52.7102V15.3643H52.0838V17H51.7905V15.3643H51.1591ZM53.6008 17.0447C53.4798 17.0447 53.37 17.022 53.2714 16.9764C53.1728 16.93 53.0945 16.8633 53.0365 16.7763C52.9785 16.6884 52.9495 16.5824 52.9495 16.4581C52.9495 16.3487 52.971 16.2601 53.0141 16.1921C53.0572 16.1233 53.1148 16.0695 53.1869 16.0305C53.259 15.9916 53.3385 15.9626 53.4255 15.9435C53.5133 15.9237 53.6016 15.9079 53.6903 15.8963C53.8063 15.8814 53.9003 15.8702 53.9724 15.8627C54.0453 15.8545 54.0983 15.8408 54.1315 15.8217C54.1655 15.8027 54.1824 15.7695 54.1824 15.7223V15.7124C54.1824 15.5897 54.1489 15.4944 54.0818 15.4265C54.0155 15.3585 53.9148 15.3246 53.7797 15.3246C53.6397 15.3246 53.5299 15.3552 53.4504 15.4165C53.3708 15.4779 53.3149 15.5433 53.2826 15.6129L53.0042 15.5135C53.0539 15.3975 53.1202 15.3072 53.203 15.2425C53.2867 15.1771 53.3779 15.1315 53.4765 15.1058C53.5759 15.0793 53.6737 15.0661 53.7698 15.0661C53.8311 15.0661 53.9015 15.0735 53.9811 15.0884C54.0615 15.1025 54.1389 15.1319 54.2135 15.1767C54.2889 15.2214 54.3515 15.2889 54.4012 15.3793C54.4509 15.4696 54.4758 15.5906 54.4758 15.7422V17H54.1824V16.7415H54.1675C54.1476 16.7829 54.1145 16.8272 54.0681 16.8745C54.0217 16.9217 53.96 16.9619 53.8829 16.995C53.8058 17.0282 53.7118 17.0447 53.6008 17.0447ZM53.6455 16.7812C53.7615 16.7812 53.8593 16.7585 53.9388 16.7129C54.0192 16.6673 54.0797 16.6085 54.1203 16.5364C54.1617 16.4643 54.1824 16.3885 54.1824 16.3089V16.0405C54.17 16.0554 54.1427 16.0691 54.1004 16.0815C54.059 16.0931 54.0109 16.1035 53.9562 16.1126C53.9024 16.1209 53.8498 16.1283 53.7984 16.1349C53.7478 16.1407 53.7068 16.1457 53.6753 16.1499C53.5991 16.1598 53.5278 16.176 53.4616 16.1983C53.3961 16.2199 53.3431 16.2526 53.3025 16.2965C53.2627 16.3396 53.2428 16.3984 53.2428 16.473C53.2428 16.5749 53.2805 16.652 53.3559 16.7042C53.4321 16.7556 53.5287 16.7812 53.6455 16.7812ZM55.0111 17.7159V15.0909H55.2945V15.3942H55.3293C55.3509 15.361 55.3807 15.3188 55.4188 15.2674C55.4578 15.2152 55.5133 15.1688 55.5854 15.1282C55.6583 15.0868 55.7569 15.0661 55.8812 15.0661C56.0419 15.0661 56.1836 15.1062 56.3062 15.1866C56.4289 15.267 56.5246 15.3809 56.5934 15.5284C56.6621 15.6759 56.6965 15.8499 56.6965 16.0504C56.6965 16.2526 56.6621 16.4279 56.5934 16.5762C56.5246 16.7237 56.4293 16.838 56.3075 16.9192C56.1857 16.9996 56.0452 17.0398 55.8861 17.0398C55.7635 17.0398 55.6653 17.0195 55.5916 16.9789C55.5178 16.9374 55.4611 16.8906 55.4213 16.8384C55.3815 16.7854 55.3509 16.7415 55.3293 16.7067H55.3045V17.7159H55.0111ZM55.2995 16.0455C55.2995 16.1896 55.3206 16.3168 55.3629 16.427C55.4051 16.5364 55.4669 16.6222 55.5481 16.6843C55.6293 16.7456 55.7287 16.7763 55.8464 16.7763C55.969 16.7763 56.0713 16.744 56.1534 16.6793C56.2362 16.6139 56.2984 16.526 56.3398 16.4158C56.3821 16.3048 56.4032 16.1813 56.4032 16.0455C56.4032 15.9112 56.3825 15.7902 56.341 15.6825C56.3004 15.574 56.2387 15.4882 56.1559 15.4252C56.0738 15.3614 55.9707 15.3295 55.8464 15.3295C55.7271 15.3295 55.6268 15.3598 55.5456 15.4203C55.4644 15.4799 55.4031 15.5636 55.3616 15.6713C55.3202 15.7782 55.2995 15.9029 55.2995 16.0455ZM57.7057 17.0447C57.5848 17.0447 57.475 17.022 57.3764 16.9764C57.2778 16.93 57.1995 16.8633 57.1415 16.7763C57.0835 16.6884 57.0545 16.5824 57.0545 16.4581C57.0545 16.3487 57.076 16.2601 57.1191 16.1921C57.1622 16.1233 57.2198 16.0695 57.2919 16.0305C57.3639 15.9916 57.4435 15.9626 57.5305 15.9435C57.6183 15.9237 57.7066 15.9079 57.7952 15.8963C57.9112 15.8814 58.0053 15.8702 58.0774 15.8627C58.1503 15.8545 58.2033 15.8408 58.2365 15.8217C58.2704 15.8027 58.2874 15.7695 58.2874 15.7223V15.7124C58.2874 15.5897 58.2539 15.4944 58.1867 15.4265C58.1205 15.3585 58.0198 15.3246 57.8847 15.3246C57.7447 15.3246 57.6349 15.3552 57.5554 15.4165C57.4758 15.4779 57.4199 15.5433 57.3876 15.6129L57.1092 15.5135C57.1589 15.3975 57.2252 15.3072 57.308 15.2425C57.3917 15.1771 57.4829 15.1315 57.5815 15.1058C57.6809 15.0793 57.7787 15.0661 57.8748 15.0661C57.9361 15.0661 58.0065 15.0735 58.0861 15.0884C58.1664 15.1025 58.2439 15.1319 58.3185 15.1767C58.3939 15.2214 58.4565 15.2889 58.5062 15.3793C58.5559 15.4696 58.5807 15.5906 58.5807 15.7422V17H58.2874V16.7415H58.2725C58.2526 16.7829 58.2195 16.8272 58.1731 16.8745C58.1267 16.9217 58.0649 16.9619 57.9879 16.995C57.9108 17.0282 57.8168 17.0447 57.7057 17.0447ZM57.7505 16.7812C57.8665 16.7812 57.9643 16.7585 58.0438 16.7129C58.1242 16.6673 58.1847 16.6085 58.2253 16.5364C58.2667 16.4643 58.2874 16.3885 58.2874 16.3089V16.0405C58.275 16.0554 58.2476 16.0691 58.2054 16.0815C58.164 16.0931 58.1159 16.1035 58.0612 16.1126C58.0074 16.1209 57.9547 16.1283 57.9034 16.1349C57.8528 16.1407 57.8118 16.1457 57.7803 16.1499C57.7041 16.1598 57.6328 16.176 57.5665 16.1983C57.5011 16.2199 57.448 16.2526 57.4074 16.2965C57.3677 16.3396 57.3478 16.3984 57.3478 16.473C57.3478 16.5749 57.3855 16.652 57.4609 16.7042C57.5371 16.7556 57.6337 16.7812 57.7505 16.7812ZM60.533 14.375L60.6822 14.554C60.6242 14.6103 60.5571 14.6497 60.4808 14.6721C60.4046 14.6944 60.3184 14.7081 60.2223 14.7131C60.1262 14.718 60.0193 14.723 59.9016 14.728C59.7691 14.733 59.6593 14.7653 59.5723 14.8249C59.4853 14.8846 59.4181 14.9708 59.3709 15.0835C59.3237 15.1961 59.2934 15.3345 59.2802 15.4986H59.305C59.3697 15.3793 59.4592 15.2914 59.5735 15.2351C59.6879 15.1787 59.8105 15.1506 59.9414 15.1506C60.0906 15.1506 60.2248 15.1854 60.3441 15.255C60.4634 15.3246 60.5579 15.4277 60.6275 15.5645C60.6971 15.7012 60.7319 15.8698 60.7319 16.0703C60.7319 16.27 60.6963 16.4424 60.625 16.5874C60.5546 16.7324 60.4556 16.8442 60.3279 16.9229C60.2012 17.0008 60.0524 17.0398 59.8817 17.0398C59.7111 17.0398 59.5615 16.9996 59.4331 16.9192C59.3046 16.838 59.2048 16.7179 59.1335 16.5588C59.0623 16.3989 59.0266 16.2012 59.0266 15.9659V15.7621C59.0266 15.337 59.0987 15.0147 59.2429 14.7951C59.3879 14.5755 59.6058 14.462 59.8967 14.4545C59.9994 14.4512 60.091 14.4504 60.1713 14.4521C60.2517 14.4537 60.3217 14.45 60.3814 14.4409C60.4411 14.4318 60.4916 14.4098 60.533 14.375ZM59.8817 16.7763C59.9969 16.7763 60.0959 16.7473 60.1788 16.6893C60.2625 16.6313 60.3267 16.5497 60.3714 16.4444C60.4162 16.3384 60.4386 16.2137 60.4386 16.0703C60.4386 15.9311 60.4158 15.8126 60.3702 15.7148C60.3255 15.6171 60.2612 15.5425 60.1776 15.4911C60.0939 15.4397 59.9936 15.4141 59.8768 15.4141C59.7914 15.4141 59.7148 15.4286 59.6468 15.4576C59.5789 15.4866 59.5209 15.5292 59.4728 15.5856C59.4248 15.6419 59.3875 15.7107 59.361 15.7919C59.3353 15.8731 59.3216 15.9659 59.32 16.0703C59.32 16.2841 59.3701 16.4552 59.4703 16.5836C59.5706 16.7121 59.7077 16.7763 59.8817 16.7763ZM61.4341 15.782H61.981C62.2047 15.782 62.3758 15.8387 62.4943 15.9522C62.6128 16.0658 62.6721 16.2095 62.6721 16.3835C62.6721 16.4979 62.6455 16.6019 62.5925 16.6955C62.5395 16.7883 62.4616 16.8625 62.3588 16.918C62.2561 16.9727 62.1301 17 61.981 17H61.1806V15.0909H61.4739V16.7266H61.981C62.097 16.7266 62.1923 16.6959 62.2669 16.6346C62.3414 16.5733 62.3787 16.4946 62.3787 16.3984C62.3787 16.2973 62.3414 16.2149 62.2669 16.1511C62.1923 16.0873 62.097 16.0554 61.981 16.0554H61.4341V15.782ZM62.9753 17V15.0909H63.2686V17H62.9753ZM65.0833 15.9112V16.1847H64.0293V15.9112H65.0833ZM64.0989 15.0909V17H63.8056V15.0909H64.0989ZM65.307 15.0909V17H65.0137V15.0909H65.307ZM66.4045 17.0447C66.2835 17.0447 66.1737 17.022 66.0751 16.9764C65.9765 16.93 65.8982 16.8633 65.8402 16.7763C65.7822 16.6884 65.7532 16.5824 65.7532 16.4581C65.7532 16.3487 65.7747 16.2601 65.8178 16.1921C65.8609 16.1233 65.9185 16.0695 65.9906 16.0305C66.0627 15.9916 66.1422 15.9626 66.2292 15.9435C66.3171 15.9237 66.4053 15.9079 66.494 15.8963C66.61 15.8814 66.704 15.8702 66.7761 15.8627C66.849 15.8545 66.902 15.8408 66.9352 15.8217C66.9692 15.8027 66.9862 15.7695 66.9862 15.7223V15.7124C66.9862 15.5897 66.9526 15.4944 66.8855 15.4265C66.8192 15.3585 66.7185 15.3246 66.5835 15.3246C66.4434 15.3246 66.3336 15.3552 66.2541 15.4165C66.1745 15.4779 66.1186 15.5433 66.0863 15.6129L65.8079 15.5135C65.8576 15.3975 65.9239 15.3072 66.0067 15.2425C66.0904 15.1771 66.1816 15.1315 66.2802 15.1058C66.3796 15.0793 66.4774 15.0661 66.5735 15.0661C66.6348 15.0661 66.7053 15.0735 66.7848 15.0884C66.8652 15.1025 66.9426 15.1319 67.0172 15.1767C67.0926 15.2214 67.1552 15.2889 67.2049 15.3793C67.2546 15.4696 67.2795 15.5906 67.2795 15.7422V17H66.9862V16.7415H66.9712C66.9513 16.7829 66.9182 16.8272 66.8718 16.8745C66.8254 16.9217 66.7637 16.9619 66.6866 16.995C66.6096 17.0282 66.5155 17.0447 66.4045 17.0447ZM66.4492 16.7812C66.5652 16.7812 66.663 16.7585 66.7425 16.7129C66.8229 16.6673 66.8834 16.6085 66.924 16.5364C66.9654 16.4643 66.9862 16.3885 66.9862 16.3089V16.0405C66.9737 16.0554 66.9464 16.0691 66.9041 16.0815C66.8627 16.0931 66.8146 16.1035 66.7599 16.1126C66.7061 16.1209 66.6535 16.1283 66.6021 16.1349C66.5516 16.1407 66.5105 16.1457 66.479 16.1499C66.4028 16.1598 66.3316 16.176 66.2653 16.1983C66.1998 16.2199 66.1468 16.2526 66.1062 16.2965C66.0664 16.3396 66.0465 16.3984 66.0465 16.473C66.0465 16.5749 66.0842 16.652 66.1596 16.7042C66.2359 16.7556 66.3324 16.7812 66.4492 16.7812ZM69.0926 15.9112V16.1847H68.0386V15.9112H69.0926ZM68.1082 15.0909V17H67.8149V15.0909H68.1082ZM69.3163 15.0909V17H69.0229V15.0909H69.3163ZM70.8363 17V15.0909H71.1297V15.9212H71.3236L72.0096 15.0909H72.3875L71.6169 16.0107L72.3974 17H72.0196L71.3932 16.1946H71.1297V17H70.8363ZM73.278 17.0447C73.157 17.0447 73.0472 17.022 72.9486 16.9764C72.85 16.93 72.7717 16.8633 72.7137 16.7763C72.6557 16.6884 72.6267 16.5824 72.6267 16.4581C72.6267 16.3487 72.6483 16.2601 72.6914 16.1921C72.7344 16.1233 72.792 16.0695 72.8641 16.0305C72.9362 15.9916 73.0158 15.9626 73.1028 15.9435C73.1906 15.9237 73.2788 15.9079 73.3675 15.8963C73.4835 15.8814 73.5775 15.8702 73.6496 15.8627C73.7226 15.8545 73.7756 15.8408 73.8087 15.8217C73.8427 15.8027 73.8597 15.7695 73.8597 15.7223V15.7124C73.8597 15.5897 73.8261 15.4944 73.759 15.4265C73.6927 15.3585 73.592 15.3246 73.457 15.3246C73.317 15.3246 73.2072 15.3552 73.1276 15.4165C73.0481 15.4779 72.9921 15.5433 72.9598 15.6129L72.6814 15.5135C72.7311 15.3975 72.7974 15.3072 72.8803 15.2425C72.964 15.1771 73.0551 15.1315 73.1537 15.1058C73.2532 15.0793 73.3509 15.0661 73.447 15.0661C73.5084 15.0661 73.5788 15.0735 73.6583 15.0884C73.7387 15.1025 73.8162 15.1319 73.8908 15.1767C73.9662 15.2214 74.0287 15.2889 74.0784 15.3793C74.1282 15.4696 74.153 15.5906 74.153 15.7422V17H73.8597V16.7415H73.8448C73.8249 16.7829 73.7917 16.8272 73.7453 16.8745C73.6989 16.9217 73.6372 16.9619 73.5601 16.995C73.4831 17.0282 73.389 17.0447 73.278 17.0447ZM73.3228 16.7812C73.4388 16.7812 73.5365 16.7585 73.6161 16.7129C73.6965 16.6673 73.7569 16.6085 73.7975 16.5364C73.839 16.4643 73.8597 16.3885 73.8597 16.3089V16.0405C73.8473 16.0554 73.8199 16.0691 73.7777 16.0815C73.7362 16.0931 73.6882 16.1035 73.6335 16.1126C73.5796 16.1209 73.527 16.1283 73.4756 16.1349C73.4251 16.1407 73.3841 16.1457 73.3526 16.1499C73.2764 16.1598 73.2051 16.176 73.1388 16.1983C73.0733 16.2199 73.0203 16.2526 72.9797 16.2965C72.9399 16.3396 72.9201 16.3984 72.9201 16.473C72.9201 16.5749 72.9578 16.652 73.0332 16.7042C73.1094 16.7556 73.2059 16.7812 73.3228 16.7812ZM74.6884 17.7159V15.0909H74.9718V15.3942H75.0066C75.0281 15.361 75.0579 15.3188 75.0961 15.2674C75.135 15.2152 75.1905 15.1688 75.2626 15.1282C75.3355 15.0868 75.4341 15.0661 75.5584 15.0661C75.7192 15.0661 75.8609 15.1062 75.9835 15.1866C76.1061 15.267 76.2018 15.3809 76.2706 15.5284C76.3394 15.6759 76.3738 15.8499 76.3738 16.0504C76.3738 16.2526 76.3394 16.4279 76.2706 16.5762C76.2018 16.7237 76.1065 16.838 75.9847 16.9192C75.8629 16.9996 75.7225 17.0398 75.5634 17.0398C75.4408 17.0398 75.3426 17.0195 75.2688 16.9789C75.1951 16.9374 75.1383 16.8906 75.0985 16.8384C75.0588 16.7854 75.0281 16.7415 75.0066 16.7067H74.9817V17.7159H74.6884ZM74.9767 16.0455C74.9767 16.1896 74.9979 16.3168 75.0401 16.427C75.0824 16.5364 75.1441 16.6222 75.2253 16.6843C75.3065 16.7456 75.406 16.7763 75.5236 16.7763C75.6462 16.7763 75.7486 16.744 75.8306 16.6793C75.9135 16.6139 75.9756 16.526 76.017 16.4158C76.0593 16.3048 76.0804 16.1813 76.0804 16.0455C76.0804 15.9112 76.0597 15.7902 76.0183 15.6825C75.9777 15.574 75.916 15.4882 75.8331 15.4252C75.7511 15.3614 75.6479 15.3295 75.5236 15.3295C75.4043 15.3295 75.304 15.3598 75.2228 15.4203C75.1416 15.4799 75.0803 15.5636 75.0389 15.6713C74.9975 15.7782 74.9767 15.9029 74.9767 16.0455ZM76.6233 17L77.3988 16.0305L76.6332 15.0909H76.9812L77.6176 15.9062H77.7767V15.0909H78.07V15.9062H78.2241L78.8605 15.0909H79.2085L78.4478 16.0305L79.2184 17H78.8655L78.2191 16.1797H78.07V17H77.7767V16.1797H77.6275L76.9763 17H76.6233ZM79.8912 15.782H80.438C80.6618 15.782 80.8329 15.8387 80.9513 15.9522C81.0698 16.0658 81.1291 16.2095 81.1291 16.3835C81.1291 16.4979 81.1026 16.6019 81.0495 16.6955C80.9965 16.7883 80.9186 16.8625 80.8159 16.918C80.7131 16.9727 80.5872 17 80.438 17H79.6376V15.0909H79.9309V16.7266H80.438C80.554 16.7266 80.6493 16.6959 80.7239 16.6346C80.7985 16.5733 80.8358 16.4946 80.8358 16.3984C80.8358 16.2973 80.7985 16.2149 80.7239 16.1511C80.6493 16.0873 80.554 16.0554 80.438 16.0554H79.8912V15.782ZM81.4324 17V15.0909H81.7257V17H81.4324ZM82.0936 17V16.7266H82.1632C82.2203 16.7266 82.268 16.7154 82.3061 16.693C82.3442 16.6698 82.3749 16.6296 82.3981 16.5724C82.4221 16.5144 82.4403 16.4341 82.4528 16.3313C82.466 16.2277 82.4756 16.096 82.4814 15.9361L82.5162 15.0909H83.7889V17H83.4956V15.3643H82.7946L82.7647 16.0455C82.7581 16.2021 82.744 16.34 82.7225 16.4593C82.7018 16.5778 82.6699 16.6773 82.6268 16.7576C82.5845 16.838 82.5282 16.8985 82.4577 16.9391C82.3873 16.9797 82.2991 17 82.193 17H82.0936ZM84.8888 17.0447C84.7679 17.0447 84.6581 17.022 84.5595 16.9764C84.4609 16.93 84.3826 16.8633 84.3246 16.7763C84.2666 16.6884 84.2376 16.5824 84.2376 16.4581C84.2376 16.3487 84.2591 16.2601 84.3022 16.1921C84.3453 16.1233 84.4029 16.0695 84.475 16.0305C84.5471 15.9916 84.6266 15.9626 84.7136 15.9435C84.8014 15.9237 84.8897 15.9079 84.9783 15.8963C85.0943 15.8814 85.1884 15.8702 85.2605 15.8627C85.3334 15.8545 85.3864 15.8408 85.4196 15.8217C85.4535 15.8027 85.4705 15.7695 85.4705 15.7223V15.7124C85.4705 15.5897 85.437 15.4944 85.3699 15.4265C85.3036 15.3585 85.2029 15.3246 85.0678 15.3246C84.9278 15.3246 84.818 15.3552 84.7385 15.4165C84.6589 15.4779 84.603 15.5433 84.5707 15.6129L84.2923 15.5135C84.342 15.3975 84.4083 15.3072 84.4911 15.2425C84.5748 15.1771 84.666 15.1315 84.7646 15.1058C84.864 15.0793 84.9618 15.0661 85.0579 15.0661C85.1192 15.0661 85.1896 15.0735 85.2692 15.0884C85.3496 15.1025 85.427 15.1319 85.5016 15.1767C85.577 15.2214 85.6396 15.2889 85.6893 15.3793C85.739 15.4696 85.7638 15.5906 85.7638 15.7422V17H85.4705V16.7415H85.4556C85.4357 16.7829 85.4026 16.8272 85.3562 16.8745C85.3098 16.9217 85.248 16.9619 85.171 16.995C85.0939 17.0282 84.9999 17.0447 84.8888 17.0447ZM84.9336 16.7812C85.0496 16.7812 85.1474 16.7585 85.2269 16.7129C85.3073 16.6673 85.3678 16.6085 85.4084 16.5364C85.4498 16.4643 85.4705 16.3885 85.4705 16.3089V16.0405C85.4581 16.0554 85.4308 16.0691 85.3885 16.0815C85.3471 16.0931 85.299 16.1035 85.2443 16.1126C85.1905 16.1209 85.1378 16.1283 85.0865 16.1349C85.0359 16.1407 84.9949 16.1457 84.9634 16.1499C84.8872 16.1598 84.8159 16.176 84.7496 16.1983C84.6842 16.2199 84.6312 16.2526 84.5906 16.2965C84.5508 16.3396 84.5309 16.3984 84.5309 16.473C84.5309 16.5749 84.5686 16.652 84.644 16.7042C84.7202 16.7556 84.8168 16.7812 84.9336 16.7812ZM87.5769 15.9112V16.1847H86.5229V15.9112H87.5769ZM86.5926 15.0909V17H86.2992V15.0909H86.5926ZM87.8006 15.0909V17H87.5073V15.0909H87.8006ZM88.8981 17.0447C88.7772 17.0447 88.6674 17.022 88.5688 16.9764C88.4702 16.93 88.3919 16.8633 88.3339 16.7763C88.2758 16.6884 88.2468 16.5824 88.2468 16.4581C88.2468 16.3487 88.2684 16.2601 88.3115 16.1921C88.3546 16.1233 88.4122 16.0695 88.4842 16.0305C88.5563 15.9916 88.6359 15.9626 88.7229 15.9435C88.8107 15.9237 88.899 15.9079 88.9876 15.8963C89.1036 15.8814 89.1977 15.8702 89.2698 15.8627C89.3427 15.8545 89.3957 15.8408 89.4288 15.8217C89.4628 15.8027 89.4798 15.7695 89.4798 15.7223V15.7124C89.4798 15.5897 89.4462 15.4944 89.3791 15.4265C89.3128 15.3585 89.2122 15.3246 89.0771 15.3246C88.9371 15.3246 88.8273 15.3552 88.7477 15.4165C88.6682 15.4779 88.6123 15.5433 88.5799 15.6129L88.3015 15.5135C88.3513 15.3975 88.4175 15.3072 88.5004 15.2425C88.5841 15.1771 88.6752 15.1315 88.7738 15.1058C88.8733 15.0793 88.971 15.0661 89.0672 15.0661C89.1285 15.0661 89.1989 15.0735 89.2785 15.0884C89.3588 15.1025 89.4363 15.1319 89.5109 15.1767C89.5863 15.2214 89.6488 15.2889 89.6986 15.3793C89.7483 15.4696 89.7731 15.5906 89.7731 15.7422V17H89.4798V16.7415H89.4649C89.445 16.7829 89.4119 16.8272 89.3655 16.8745C89.3191 16.9217 89.2573 16.9619 89.1803 16.995C89.1032 17.0282 89.0092 17.0447 88.8981 17.0447ZM88.9429 16.7812C89.0589 16.7812 89.1566 16.7585 89.2362 16.7129C89.3166 16.6673 89.3771 16.6085 89.4177 16.5364C89.4591 16.4643 89.4798 16.3885 89.4798 16.3089V16.0405C89.4674 16.0554 89.44 16.0691 89.3978 16.0815C89.3563 16.0931 89.3083 16.1035 89.2536 16.1126C89.1997 16.1209 89.1471 16.1283 89.0957 16.1349C89.0452 16.1407 89.0042 16.1457 88.9727 16.1499C88.8965 16.1598 88.8252 16.176 88.7589 16.1983C88.6935 16.2199 88.6404 16.2526 88.5998 16.2965C88.5601 16.3396 88.5402 16.3984 88.5402 16.473C88.5402 16.5749 88.5779 16.652 88.6533 16.7042C88.7295 16.7556 88.826 16.7812 88.9429 16.7812ZM90.0487 15.3643V15.0909H91.5999V15.3643H90.9735V17H90.6801V15.3643H90.0487Z" fill="#034EA2"/>
<path d="M51.2685 11V9.09091H52.7699V11H52.4766V9.36435H51.5618V11H51.2685ZM53.3056 11.7159V9.09091H53.589V9.39418H53.6238C53.6453 9.36103 53.6751 9.31877 53.7132 9.2674C53.7522 9.2152 53.8077 9.1688 53.8798 9.1282C53.9527 9.08677 54.0513 9.06605 54.1756 9.06605C54.3364 9.06605 54.478 9.10624 54.6007 9.18661C54.7233 9.26699 54.819 9.38092 54.8878 9.52841C54.9566 9.6759 54.9909 9.84991 54.9909 10.0504C54.9909 10.2526 54.9566 10.4279 54.8878 10.5762C54.819 10.7237 54.7237 10.838 54.6019 10.9192C54.4801 10.9996 54.3397 11.0398 54.1806 11.0398C54.0579 11.0398 53.9598 11.0195 53.886 10.9789C53.8123 10.9374 53.7555 10.8906 53.7157 10.8384C53.676 10.7854 53.6453 10.7415 53.6238 10.7067H53.5989V11.7159H53.3056ZM53.5939 10.0455C53.5939 10.1896 53.6151 10.3168 53.6573 10.427C53.6996 10.5364 53.7613 10.6222 53.8425 10.6843C53.9237 10.7456 54.0231 10.7763 54.1408 10.7763C54.2634 10.7763 54.3658 10.744 54.4478 10.6793C54.5307 10.6139 54.5928 10.526 54.6342 10.4158C54.6765 10.3048 54.6976 10.1813 54.6976 10.0455C54.6976 9.91122 54.6769 9.79025 54.6355 9.68253C54.5949 9.57398 54.5331 9.48822 54.4503 9.42525C54.3683 9.36145 54.2651 9.32955 54.1408 9.32955C54.0215 9.32955 53.9212 9.35979 53.84 9.42028C53.7588 9.47994 53.6975 9.56362 53.6561 9.67134C53.6146 9.77823 53.5939 9.90294 53.5939 10.0455ZM56.214 11.0398C56.0416 11.0398 55.8904 10.9988 55.7603 10.9167C55.631 10.8347 55.5299 10.7199 55.457 10.5724C55.3849 10.425 55.3489 10.2526 55.3489 10.0554C55.3489 9.85653 55.3849 9.68294 55.457 9.53462C55.5299 9.3863 55.631 9.27113 55.7603 9.1891C55.8904 9.10707 56.0416 9.06605 56.214 9.06605C56.3863 9.06605 56.5371 9.10707 56.6664 9.1891C56.7965 9.27113 56.8975 9.3863 56.9696 9.53462C57.0426 9.68294 57.079 9.85653 57.079 10.0554C57.079 10.2526 57.0426 10.425 56.9696 10.5724C56.8975 10.7199 56.7965 10.8347 56.6664 10.9167C56.5371 10.9988 56.3863 11.0398 56.214 11.0398ZM56.214 10.7763C56.3449 10.7763 56.4526 10.7427 56.5371 10.6756C56.6216 10.6085 56.6842 10.5202 56.7248 10.4109C56.7654 10.3015 56.7857 10.183 56.7857 10.0554C56.7857 9.92779 56.7654 9.80889 56.7248 9.69869C56.6842 9.58848 56.6216 9.49941 56.5371 9.43146C56.4526 9.36352 56.3449 9.32955 56.214 9.32955C56.083 9.32955 55.9753 9.36352 55.8908 9.43146C55.8063 9.49941 55.7437 9.58848 55.7031 9.69869C55.6625 9.80889 55.6422 9.92779 55.6422 10.0554C55.6422 10.183 55.6625 10.3015 55.7031 10.4109C55.7437 10.5202 55.8063 10.6085 55.8908 10.6756C55.9753 10.7427 56.083 10.7763 56.214 10.7763ZM58.3023 11.6513V8.45455H58.5957V11.6513H58.3023ZM58.3023 11.0398C58.1731 11.0398 58.0554 11.0166 57.9494 10.9702C57.8433 10.9229 57.7521 10.8562 57.6759 10.7701C57.5997 10.6831 57.5409 10.5791 57.4994 10.4581C57.458 10.3371 57.4373 10.2029 57.4373 10.0554C57.4373 9.90625 57.458 9.77119 57.4994 9.65021C57.5409 9.52841 57.5997 9.42401 57.6759 9.337C57.7521 9.25 57.8433 9.1833 57.9494 9.1369C58.0554 9.08967 58.1731 9.06605 58.3023 9.06605H58.3918V11.0398H58.3023ZM58.3023 10.7763H58.3521V9.32955H58.3023C58.2046 9.32955 58.1196 9.34943 58.0475 9.3892C57.9755 9.42815 57.9158 9.48159 57.8686 9.54954C57.8222 9.61665 57.7874 9.69371 57.7642 9.78072C57.7418 9.86772 57.7306 9.95928 57.7306 10.0554C57.7306 10.183 57.7509 10.3015 57.7915 10.4109C57.8321 10.5202 57.8947 10.6085 57.9792 10.6756C58.0637 10.7427 58.1714 10.7763 58.3023 10.7763ZM58.5957 11.0398H58.5062V9.06605H58.5957C58.7249 9.06605 58.8426 9.08967 58.9486 9.1369C59.0547 9.1833 59.1458 9.25 59.2221 9.337C59.2983 9.42401 59.3571 9.52841 59.3986 9.65021C59.44 9.77119 59.4607 9.90625 59.4607 10.0554C59.4607 10.2029 59.44 10.3371 59.3986 10.4581C59.3571 10.5791 59.2983 10.6831 59.2221 10.7701C59.1458 10.8562 59.0547 10.9229 58.9486 10.9702C58.8426 11.0166 58.7249 11.0398 58.5957 11.0398ZM58.5957 10.7763C58.6943 10.7763 58.7792 10.7572 58.8505 10.7191C58.9225 10.6802 58.9818 10.6271 59.0282 10.56C59.0754 10.4921 59.1102 10.415 59.1326 10.3288C59.1558 10.2418 59.1674 10.1507 59.1674 10.0554C59.1674 9.92779 59.1471 9.80889 59.1065 9.69869C59.0659 9.58848 59.0033 9.49941 58.9188 9.43146C58.8343 9.36352 58.7266 9.32955 58.5957 9.32955H58.5459V10.7763H58.5957ZM60.2024 10.5675L61.1222 9.09091H61.4602V11H61.1669V9.52344L60.2521 11H59.9091V9.09091H60.2024V10.5675ZM63.2752 9.91122V10.1847H62.2212V9.91122H63.2752ZM62.2908 9.09091V11H61.9975V9.09091H62.2908ZM63.4989 9.09091V11H63.2056V9.09091H63.4989ZM64.5964 11.0447C64.4754 11.0447 64.3656 11.022 64.267 10.9764C64.1684 10.93 64.0901 10.8633 64.0321 10.7763C63.9741 10.6884 63.9451 10.5824 63.9451 10.4581C63.9451 10.3487 63.9666 10.2601 64.0097 10.1921C64.0528 10.1233 64.1104 10.0695 64.1825 10.0305C64.2546 9.9916 64.3341 9.96259 64.4211 9.94354C64.509 9.92365 64.5972 9.90791 64.6859 9.89631C64.8019 9.88139 64.8959 9.87021 64.968 9.86275C65.0409 9.85446 65.0939 9.84079 65.1271 9.82173C65.1611 9.80268 65.178 9.76953 65.178 9.7223V9.71236C65.178 9.58973 65.1445 9.49444 65.0774 9.42649C65.0111 9.35855 64.9104 9.32457 64.7753 9.32457C64.6353 9.32457 64.5255 9.35523 64.446 9.41655C64.3664 9.47786 64.3105 9.54332 64.2782 9.61293L63.9998 9.51349C64.0495 9.39749 64.1158 9.30717 64.1986 9.24254C64.2823 9.17708 64.3735 9.13151 64.4721 9.10582C64.5715 9.07931 64.6693 9.06605 64.7654 9.06605C64.8267 9.06605 64.8972 9.07351 64.9767 9.08842C65.0571 9.10251 65.1345 9.13192 65.2091 9.17667C65.2845 9.22141 65.3471 9.28894 65.3968 9.37926C65.4465 9.46958 65.4714 9.59055 65.4714 9.74219V11H65.178V10.7415H65.1631C65.1432 10.7829 65.1101 10.8272 65.0637 10.8745C65.0173 10.9217 64.9556 10.9619 64.8785 10.995C64.8014 11.0282 64.7074 11.0447 64.5964 11.0447ZM64.6411 10.7812C64.7571 10.7812 64.8549 10.7585 64.9344 10.7129C65.0148 10.6673 65.0753 10.6085 65.1159 10.5364C65.1573 10.4643 65.178 10.3885 65.178 10.3089V10.0405C65.1656 10.0554 65.1383 10.0691 65.096 10.0815C65.0546 10.0931 65.0065 10.1035 64.9518 10.1126C64.898 10.1209 64.8454 10.1283 64.794 10.1349C64.7434 10.1407 64.7024 10.1457 64.6709 10.1499C64.5947 10.1598 64.5235 10.176 64.4572 10.1983C64.3917 10.2199 64.3387 10.2526 64.2981 10.2965C64.2583 10.3396 64.2384 10.3984 64.2384 10.473C64.2384 10.5749 64.2761 10.652 64.3515 10.7042C64.4277 10.7556 64.5243 10.7812 64.6411 10.7812ZM67.2844 9.91122V10.1847H66.2305V9.91122H67.2844ZM66.3001 9.09091V11H66.0067V9.09091H66.3001ZM67.5082 9.09091V11H67.2148V9.09091H67.5082ZM68.8194 11.0398C68.6404 11.0398 68.4863 10.9975 68.3571 10.913C68.2278 10.8285 68.1284 10.7121 68.0588 10.5637C67.9892 10.4154 67.9544 10.246 67.9544 10.0554C67.9544 9.86151 67.99 9.6904 68.0613 9.54208C68.1333 9.39293 68.2336 9.27652 68.362 9.19283C68.4913 9.10831 68.6421 9.06605 68.8145 9.06605C68.9487 9.06605 69.0697 9.09091 69.1774 9.14062C69.2851 9.19034 69.3733 9.25994 69.4421 9.34943C69.5109 9.43892 69.5536 9.54332 69.5701 9.66264H69.2768C69.2544 9.57564 69.2047 9.49858 69.1277 9.43146C69.0514 9.36352 68.9487 9.32955 68.8194 9.32955C68.7051 9.32955 68.6048 9.35937 68.5186 9.41903C68.4333 9.47786 68.3666 9.56114 68.3185 9.66886C68.2713 9.77575 68.2477 9.90128 68.2477 10.0455C68.2477 10.1929 68.2709 10.3214 68.3173 10.4308C68.3645 10.5401 68.4308 10.6251 68.5162 10.6855C68.6023 10.746 68.7034 10.7763 68.8194 10.7763C68.8957 10.7763 68.9648 10.763 69.027 10.7365C69.0891 10.71 69.1417 10.6719 69.1848 10.6222C69.2279 10.5724 69.2586 10.5128 69.2768 10.4432H69.5701C69.5536 10.5559 69.5125 10.6574 69.4471 10.7477C69.3825 10.8372 69.2967 10.9084 69.1898 10.9615C69.0837 11.0137 68.9603 11.0398 68.8194 11.0398ZM70.2923 10.5675L71.212 9.09091H71.5501V11H71.2567V9.52344L70.342 11H69.9989V9.09091H70.2923V10.5675ZM72.0873 11.7159V9.09091H72.3707V9.39418H72.4055C72.427 9.36103 72.4569 9.31877 72.495 9.2674C72.5339 9.2152 72.5894 9.1688 72.6615 9.1282C72.7344 9.08677 72.8331 9.06605 72.9573 9.06605C73.1181 9.06605 73.2598 9.10624 73.3824 9.18661C73.505 9.26699 73.6007 9.38092 73.6695 9.52841C73.7383 9.6759 73.7727 9.84991 73.7727 10.0504C73.7727 10.2526 73.7383 10.4279 73.6695 10.5762C73.6007 10.7237 73.5055 10.838 73.3837 10.9192C73.2619 10.9996 73.1214 11.0398 72.9623 11.0398C72.8397 11.0398 72.7415 11.0195 72.6677 10.9789C72.594 10.9374 72.5372 10.8906 72.4975 10.8384C72.4577 10.7854 72.427 10.7415 72.4055 10.7067H72.3806V11.7159H72.0873ZM72.3757 10.0455C72.3757 10.1896 72.3968 10.3168 72.4391 10.427C72.4813 10.5364 72.543 10.6222 72.6242 10.6843C72.7054 10.7456 72.8049 10.7763 72.9225 10.7763C73.0452 10.7763 73.1475 10.744 73.2295 10.6793C73.3124 10.6139 73.3745 10.526 73.416 10.4158C73.4582 10.3048 73.4794 10.1813 73.4794 10.0455C73.4794 9.91122 73.4586 9.79025 73.4172 9.68253C73.3766 9.57398 73.3149 9.48822 73.232 9.42525C73.15 9.36145 73.0468 9.32955 72.9225 9.32955C72.8032 9.32955 72.703 9.35979 72.6218 9.42028C72.5406 9.47994 72.4792 9.56362 72.4378 9.67134C72.3964 9.77823 72.3757 9.90294 72.3757 10.0455ZM74.9957 11.0398C74.8233 11.0398 74.6721 10.9988 74.542 10.9167C74.4128 10.8347 74.3117 10.7199 74.2388 10.5724C74.1667 10.425 74.1306 10.2526 74.1306 10.0554C74.1306 9.85653 74.1667 9.68294 74.2388 9.53462C74.3117 9.3863 74.4128 9.27113 74.542 9.1891C74.6721 9.10707 74.8233 9.06605 74.9957 9.06605C75.168 9.06605 75.3188 9.10707 75.4481 9.1891C75.5782 9.27113 75.6793 9.3863 75.7514 9.53462C75.8243 9.68294 75.8608 9.85653 75.8608 10.0554C75.8608 10.2526 75.8243 10.425 75.7514 10.5724C75.6793 10.7199 75.5782 10.8347 75.4481 10.9167C75.3188 10.9988 75.168 11.0398 74.9957 11.0398ZM74.9957 10.7763C75.1266 10.7763 75.2343 10.7427 75.3188 10.6756C75.4034 10.6085 75.4659 10.5202 75.5065 10.4109C75.5471 10.3015 75.5674 10.183 75.5674 10.0554C75.5674 9.92779 75.5471 9.80889 75.5065 9.69869C75.4659 9.58848 75.4034 9.49941 75.3188 9.43146C75.2343 9.36352 75.1266 9.32955 74.9957 9.32955C74.8648 9.32955 74.7571 9.36352 74.6725 9.43146C74.588 9.49941 74.5255 9.58848 74.4849 9.69869C74.4443 9.80889 74.424 9.92779 74.424 10.0554C74.424 10.183 74.4443 10.3015 74.4849 10.4109C74.5255 10.5202 74.588 10.6085 74.6725 10.6756C74.7571 10.7427 74.8648 10.7763 74.9957 10.7763ZM76.3085 11V9.09091H77.089C77.2945 9.09091 77.4578 9.13731 77.5787 9.23011C77.6997 9.32292 77.7602 9.44555 77.7602 9.59801C77.7602 9.71402 77.7258 9.80392 77.657 9.86772C77.5883 9.93069 77.5 9.97337 77.3923 9.99574C77.4627 10.0057 77.5311 10.0305 77.5974 10.0703C77.6645 10.1101 77.72 10.1648 77.7639 10.2344C77.8079 10.3031 77.8298 10.3877 77.8298 10.4879C77.8298 10.5857 77.805 10.6731 77.7552 10.7502C77.7055 10.8272 77.6343 10.8881 77.5415 10.9329C77.4487 10.9776 77.3376 11 77.2084 11H76.3085ZM76.5869 10.7315H77.2084C77.3095 10.7315 77.3886 10.7075 77.4458 10.6594C77.5029 10.6114 77.5315 10.5459 77.5315 10.4631C77.5315 10.3645 77.5029 10.287 77.4458 10.2306C77.3886 10.1735 77.3095 10.1449 77.2084 10.1449H76.5869V10.7315ZM76.5869 9.89134H77.089C77.1678 9.89134 77.2353 9.88056 77.2916 9.85902C77.348 9.83665 77.3911 9.80516 77.4209 9.76456C77.4516 9.72313 77.4669 9.67424 77.4669 9.6179C77.4669 9.53752 77.4333 9.47455 77.3662 9.42898C77.2991 9.38258 77.2067 9.35938 77.089 9.35938H76.5869V9.89134ZM78.8356 11.0447C78.7147 11.0447 78.6049 11.022 78.5063 10.9764C78.4077 10.93 78.3294 10.8633 78.2714 10.7763C78.2133 10.6884 78.1843 10.5824 78.1843 10.4581C78.1843 10.3487 78.2059 10.2601 78.249 10.1921C78.2921 10.1233 78.3497 10.0695 78.4217 10.0305C78.4938 9.9916 78.5734 9.96259 78.6604 9.94354C78.7482 9.92365 78.8365 9.90791 78.9251 9.89631C79.0411 9.88139 79.1352 9.87021 79.2073 9.86275C79.2802 9.85446 79.3332 9.84079 79.3663 9.82173C79.4003 9.80268 79.4173 9.76953 79.4173 9.7223V9.71236C79.4173 9.58973 79.3837 9.49444 79.3166 9.42649C79.2503 9.35855 79.1497 9.32457 79.0146 9.32457C78.8746 9.32457 78.7648 9.35523 78.6852 9.41655C78.6057 9.47786 78.5498 9.54332 78.5174 9.61293L78.239 9.51349C78.2888 9.39749 78.355 9.30717 78.4379 9.24254C78.5216 9.17708 78.6127 9.13151 78.7113 9.10582C78.8108 9.07931 78.9085 9.06605 79.0047 9.06605C79.066 9.06605 79.1364 9.07351 79.216 9.08842C79.2963 9.10251 79.3738 9.13192 79.4484 9.17667C79.5238 9.22141 79.5863 9.28894 79.6361 9.37926C79.6858 9.46958 79.7106 9.59055 79.7106 9.74219V11H79.4173V10.7415H79.4024C79.3825 10.7829 79.3494 10.8272 79.303 10.8745C79.2566 10.9217 79.1948 10.9619 79.1178 10.995C79.0407 11.0282 78.9467 11.0447 78.8356 11.0447ZM78.8804 10.7812C78.9964 10.7812 79.0941 10.7585 79.1737 10.7129C79.2541 10.6673 79.3146 10.6085 79.3552 10.5364C79.3966 10.4643 79.4173 10.3885 79.4173 10.3089V10.0405C79.4049 10.0554 79.3775 10.0691 79.3353 10.0815C79.2938 10.0931 79.2458 10.1035 79.1911 10.1126C79.1372 10.1209 79.0846 10.1283 79.0332 10.1349C78.9827 10.1407 78.9417 10.1457 78.9102 10.1499C78.834 10.1598 78.7627 10.176 78.6964 10.1983C78.631 10.2199 78.5779 10.2526 78.5373 10.2965C78.4976 10.3396 78.4777 10.3984 78.4777 10.473C78.4777 10.5749 78.5154 10.652 78.5908 10.7042C78.667 10.7556 78.7635 10.7812 78.8804 10.7812ZM81.5237 9.91122V10.1847H80.4697V9.91122H81.5237ZM80.5393 9.09091V11H80.246V9.09091H80.5393ZM81.7474 9.09091V11H81.4541V9.09091H81.7474ZM83.0587 11.0398C82.8863 11.0398 82.7351 10.9988 82.605 10.9167C82.4758 10.8347 82.3747 10.7199 82.3018 10.5724C82.2297 10.425 82.1936 10.2526 82.1936 10.0554C82.1936 9.85653 82.2297 9.68294 82.3018 9.53462C82.3747 9.3863 82.4758 9.27113 82.605 9.1891C82.7351 9.10707 82.8863 9.06605 83.0587 9.06605C83.231 9.06605 83.3818 9.10707 83.5111 9.1891C83.6412 9.27113 83.7423 9.3863 83.8144 9.53462C83.8873 9.68294 83.9237 9.85653 83.9237 10.0554C83.9237 10.2526 83.8873 10.425 83.8144 10.5724C83.7423 10.7199 83.6412 10.8347 83.5111 10.9167C83.3818 10.9988 83.231 11.0398 83.0587 11.0398ZM83.0587 10.7763C83.1896 10.7763 83.2973 10.7427 83.3818 10.6756C83.4664 10.6085 83.5289 10.5202 83.5695 10.4109C83.6101 10.3015 83.6304 10.183 83.6304 10.0554C83.6304 9.92779 83.6101 9.80889 83.5695 9.69869C83.5289 9.58848 83.4664 9.49941 83.3818 9.43146C83.2973 9.36352 83.1896 9.32955 83.0587 9.32955C82.9278 9.32955 82.82 9.36352 82.7355 9.43146C82.651 9.49941 82.5885 9.58848 82.5479 9.69869C82.5073 9.80889 82.4869 9.92779 82.4869 10.0554C82.4869 10.183 82.5073 10.3015 82.5479 10.4109C82.5885 10.5202 82.651 10.6085 82.7355 10.6756C82.82 10.7427 82.9278 10.7763 83.0587 10.7763Z" fill="#034EA2"/>
<defs>
<clipPath id="clip0_400_3224">
<rect width="85" height="28" fill="white" transform="translate(7 7)"/>
</clipPath>
</defs>
</svg>
