<svg width="24" height="24" viewBox="0 0 24 24" fill="none" xmlns="http://www.w3.org/2000/svg">
<path d="M12.0377 9.89181C9.99219 9.89181 8.33398 8.2336 8.33398 6.18809C8.33398 4.14259 9.99219 2.48438 12.0377 2.48438C14.0832 2.48438 15.7414 4.14259 15.7414 6.18809C15.7414 8.2336 14.0832 9.89181 12.0377 9.89181Z" stroke="#3763FF" stroke-width="1.5" stroke-miterlimit="10"/>
<path fill-rule="evenodd" clip-rule="evenodd" d="M8 12.25C5.92893 12.25 4.25 13.9289 4.25 16V23H5.75V16C5.75 14.7574 6.75736 13.75 8 13.75H16C17.2426 13.75 18.25 14.7574 18.25 16V23H19.75V16C19.75 13.9289 18.0711 12.25 16 12.25H8Z" fill="#3763FF"/>
</svg>
