<svg width="24" height="24" viewBox="0 0 24 24" fill="none" xmlns="http://www.w3.org/2000/svg">
<path d="M12.0825 3.56847L12.0825 3.56849L12.0857 3.56378C12.1956 3.39759 12.4259 3.21014 12.7351 3.10086C13.0377 2.99388 13.3483 2.98563 13.6076 3.08254L13.6191 3.08684L13.6308 3.09076C14.2692 3.30572 14.6826 4.04565 14.5568 4.63283L14.5526 4.65241L14.5494 4.67219L14.0294 7.94219L14.028 7.9515L14.0267 7.96085C13.9601 8.46026 14.0944 8.93787 14.3972 9.31187L14.4089 9.32627L14.4212 9.34007C14.7272 9.68202 15.1775 9.89997 15.6701 9.89997H19.7801C20.3678 9.89997 20.8011 10.1333 21.0383 10.4637C21.2552 10.7735 21.3256 11.2115 21.1427 11.7309L21.1401 11.7384L21.1376 11.7459L18.6776 19.2359L18.6691 19.2617L18.6625 19.2881C18.442 20.1702 17.4114 20.97 16.3901 20.97H12.4901C12.2312 20.97 11.9009 20.924 11.5948 20.8326C11.2731 20.7365 11.068 20.6172 10.9805 20.5296L10.9467 20.4959L10.909 20.4667L9.62899 19.4767L9.62902 19.4767L9.62209 19.4714C9.32327 19.2458 9.14014 18.8792 9.14014 18.49V8.32998C9.14014 8.08025 9.21506 7.83513 9.35346 7.62708C9.3537 7.62672 9.35393 7.62636 9.35417 7.626L12.0825 3.56847Z" stroke="white" stroke-width="1.5"/>
<path d="M4.18 7.13H5.21C5.91565 7.13 6.22102 7.27173 6.36362 7.40774C6.49745 7.53538 6.64 7.80463 6.64 8.46V18.52C6.64 19.1754 6.49745 19.4446 6.36362 19.5723C6.22102 19.7083 5.91565 19.85 5.21 19.85H4.18C3.47435 19.85 3.16898 19.7083 3.02638 19.5723C2.89255 19.4446 2.75 19.1754 2.75 18.52V8.46C2.75 7.80463 2.89255 7.53538 3.02638 7.40774C3.16898 7.27173 3.47435 7.13 4.18 7.13Z" stroke="white" stroke-width="1.5"/>
</svg>
