<svg width="24" height="24" viewBox="0 0 24 24" fill="none" xmlns="http://www.w3.org/2000/svg">
<path d="M8.5 8H2.5C2.23478 8 1.98043 8.10536 1.79289 8.29289C1.60536 8.48043 1.5 8.73478 1.5 9V16H3.5V23H7.5V16H9.5V9C9.5 8.73478 9.39464 8.48043 9.20711 8.29289C9.01957 8.10536 8.76522 8 8.5 8Z" stroke="#3763FF" stroke-width="1.5"/>
<path d="M5.5 5C6.60457 5 7.5 4.10457 7.5 3C7.5 1.89543 6.60457 1 5.5 1C4.39543 1 3.5 1.89543 3.5 3C3.5 4.10457 4.39543 5 5.5 5Z" stroke="#3763FF" stroke-width="1.5"/>
<path d="M20.71 8.73068C20.6495 8.51438 20.518 8.32474 20.3366 8.19231C20.1552 8.05989 19.9344 7.99238 19.71 8.00068H15.21C14.9856 7.99238 14.7648 8.05989 14.5834 8.19231C14.402 8.32474 14.2705 8.51438 14.21 8.73068L12.5 15.0007H14.5L13.5 19.0007H15.5V23.0007H19.5V19.0007H21.5L20.5 15.0007H22.5L20.71 8.73068Z" stroke="#3763FF" stroke-width="1.5"/>
<path d="M17.5 5C18.6046 5 19.5 4.10457 19.5 3C19.5 1.89543 18.6046 1 17.5 1C16.3954 1 15.5 1.89543 15.5 3C15.5 4.10457 16.3954 5 17.5 5Z" stroke="#3763FF" stroke-width="1.5"/>
</svg>
