<svg width="24" height="24" viewBox="0 0 24 24" fill="none" xmlns="http://www.w3.org/2000/svg">
<path d="M15.21 8.73068C15.1495 8.51438 15.018 8.32474 14.8366 8.19231C14.6552 8.05989 14.4344 7.99238 14.21 8.00068H9.71C9.48555 7.99238 9.26485 8.05989 9.08344 8.19231C8.90203 8.32474 8.77049 8.51438 8.71 8.73068L7 15.0007H9L8 19.0007H10V23.0007H14V19.0007H16L15 15.0007H17L15.21 8.73068Z" stroke="#3763FF" stroke-width="1.5"/>
<path d="M12 5C13.1046 5 14 4.10457 14 3C14 1.89543 13.1046 1 12 1C10.8954 1 10 1.89543 10 3C10 4.10457 10.8954 5 12 5Z" stroke="#3763FF" stroke-width="1.5"/>
</svg>
