<svg width="24" height="24" viewBox="0 0 24 24" fill="none" xmlns="http://www.w3.org/2000/svg">
<path d="M7.19997 22.3785H2.76242C1.77858 22.3785 1.2832 21.9535 1.2832 21.1093V14.2021C1.2832 13.3579 1.77858 12.9329 2.76242 12.9329H5.7208C6.70464 12.9329 7.19997 13.3579 7.19997 14.2021V15.2943" stroke="#3763FF" stroke-width="1.5" stroke-miterlimit="10" stroke-linecap="round" stroke-linejoin="round"/>
<path d="M7.34155 22.3704L16.8 22.3704" stroke="#3763FF" stroke-width="1.5" stroke-miterlimit="10" stroke-linecap="round" stroke-linejoin="round"/>
<path d="M16.808 22.3622L7.20796 22.3785L7.19995 10.2052C7.19995 9.65927 7.47196 9.15406 7.91196 8.85258L11.112 6.67704C11.648 6.31037 12.3519 6.31037 12.8879 6.67704L16.0879 8.85258C16.5359 9.15406 16.8 9.65927 16.8 10.2052L16.808 22.3622Z" stroke="#3763FF" stroke-width="1.5" stroke-miterlimit="10" stroke-linecap="round" stroke-linejoin="round"/>
<path d="M7.19995 15.8519H16.8" stroke="#3763FF" stroke-width="1.5" stroke-miterlimit="10" stroke-linecap="round" stroke-linejoin="round"/>
<path d="M12 22.3704V19.3148" stroke="#3763FF" stroke-width="1.5" stroke-miterlimit="10" stroke-linecap="round" stroke-linejoin="round"/>
<path d="M12 13C12.6628 13 13.2 12.4528 13.2 11.7778C13.2 11.1027 12.6628 10.5555 12 10.5555C11.3373 10.5555 10.8 11.1027 10.8 11.7778C10.8 12.4528 11.3373 13 12 13Z" stroke="#3763FF" stroke-width="1.5" stroke-miterlimit="10" stroke-linecap="round" stroke-linejoin="round"/>
<path d="M16.8081 22.3785H21.2456C22.2295 22.3785 22.7249 21.9535 22.7249 21.1093V14.2021C22.7249 13.3579 22.2295 12.9329 21.2456 12.9329H18.2873C17.3034 12.9329 16.8081 13.3579 16.8081 14.2021V15.2943" stroke="#3763FF" stroke-width="1.5" stroke-miterlimit="10" stroke-linecap="round" stroke-linejoin="round"/>
<path d="M3.44165 18.2963L5.04165 18.2963" stroke="#3763FF" stroke-width="1.5" stroke-miterlimit="10" stroke-linecap="round" stroke-linejoin="round"/>
<path d="M19.0696 16.2246L20.6696 16.2246" stroke="#3763FF" stroke-width="1.5" stroke-miterlimit="10" stroke-linecap="round" stroke-linejoin="round"/>
<path d="M3.44165 16.2246L5.04165 16.2246" stroke="#3763FF" stroke-width="1.5" stroke-miterlimit="10" stroke-linecap="round" stroke-linejoin="round"/>
<path d="M12.0039 3.73535V6.40202" stroke="#3763FF" stroke-width="1.5" stroke-miterlimit="10" stroke-linecap="round" stroke-linejoin="round"/>
<path d="M12.0039 1.06866C13.4261 1.63755 15.0261 1.63755 16.4484 1.06866V3.73533C15.0261 4.30422 13.4261 4.30422 12.0039 3.73533V1.06866Z" stroke="#3763FF" stroke-width="1.5" stroke-miterlimit="10" stroke-linecap="round" stroke-linejoin="round"/>
</svg>
