<svg width="24" height="24" viewBox="0 0 24 24" fill="none" xmlns="http://www.w3.org/2000/svg">
<g clip-path="url(#clip0_486_623)">
<path d="M4.5 12H10.899L14.649 7.5H20.25C20.8466 7.5006 21.4185 7.73784 21.8403 8.15967C22.2622 8.5815 22.4994 9.15345 22.5 9.75V14.25C22.4996 14.6477 22.3414 15.029 22.0602 15.3102C21.779 15.5914 21.3977 15.7496 21 15.75V21C20.9996 21.3977 20.8414 21.779 20.5602 22.0602C20.279 22.3414 19.8977 22.4996 19.5 22.5H16.5C16.1023 22.4996 15.721 22.3414 15.4398 22.0602C15.1586 21.779 15.0004 21.3977 15 21V15.75H16.5V21H19.5V14.25H21V9.75C21 9.55109 20.921 9.36032 20.7803 9.21967C20.6397 9.07902 20.4489 9 20.25 9H15.351L11.601 13.5H4.5C4.30109 13.5 4.11032 13.579 3.96967 13.7197C3.82902 13.8603 3.75 14.0511 3.75 14.25V16.5H5.25V21H7.5V16.5H9V21C8.9996 21.3977 8.84144 21.779 8.56022 22.0602C8.279 22.3414 7.8977 22.4996 7.5 22.5H5.25C4.8523 22.4996 4.471 22.3414 4.18978 22.0602C3.90856 21.779 3.7504 21.3977 3.75 21V18C3.3523 17.9996 2.971 17.8414 2.68978 17.5602C2.40856 17.279 2.2504 16.8977 2.25 16.5V14.25C2.2506 13.6534 2.48784 13.0815 2.90967 12.6597C3.3315 12.2378 3.90345 12.0006 4.5 12Z" fill="#3763FF"/>
<path d="M6.375 11.25C6.89417 11.25 7.40169 11.096 7.83337 10.8076C8.26505 10.5192 8.6015 10.1092 8.80018 9.62955C8.99886 9.14989 9.05085 8.62209 8.94956 8.11289C8.84827 7.60369 8.59827 7.13596 8.23115 6.76885C7.86404 6.40173 7.39631 6.15173 6.88711 6.05044C6.37791 5.94915 5.85011 6.00114 5.37045 6.19982C4.8908 6.3985 4.48083 6.73495 4.19239 7.16663C3.90395 7.59831 3.75 8.10583 3.75 8.625C3.75079 9.32095 4.02761 9.98817 4.51972 10.4803C5.01183 10.9724 5.67905 11.2492 6.375 11.25ZM6.375 7.5C6.5975 7.5 6.81501 7.56598 7.00002 7.6896C7.18502 7.81321 7.32921 7.98892 7.41436 8.19448C7.49951 8.40005 7.52179 8.62625 7.47838 8.84448C7.43497 9.06271 7.32783 9.26316 7.17049 9.4205C7.01316 9.57783 6.8127 9.68498 6.59447 9.72839C6.37625 9.77179 6.15005 9.74952 5.94448 9.66437C5.73891 9.57922 5.56321 9.43502 5.4396 9.25002C5.31598 9.06501 5.25 8.84751 5.25 8.625C5.2504 8.32676 5.36905 8.04084 5.57994 7.82995C5.79083 7.61905 6.07675 7.5004 6.375 7.5ZM18 6.75C18.5933 6.75 19.1734 6.57405 19.6667 6.24441C20.1601 5.91477 20.5446 5.44623 20.7716 4.89805C20.9987 4.34987 21.0581 3.74667 20.9424 3.16473C20.8266 2.58279 20.5409 2.04824 20.1213 1.62868C19.7018 1.20912 19.1672 0.923401 18.5853 0.807646C18.0033 0.69189 17.4001 0.7513 16.8519 0.978363C16.3038 1.20543 15.8352 1.58994 15.5056 2.08329C15.1759 2.57664 15 3.15666 15 3.75C15.0008 4.54541 15.3171 5.30801 15.8796 5.87045C16.442 6.43288 17.2046 6.74921 18 6.75ZM18 2.25C18.2967 2.25 18.5867 2.33797 18.8334 2.5028C19.08 2.66762 19.2723 2.90189 19.3858 3.17598C19.4993 3.45007 19.5291 3.75167 19.4712 4.04264C19.4133 4.33361 19.2704 4.60088 19.0607 4.81066C18.8509 5.02044 18.5836 5.1633 18.2926 5.22118C18.0017 5.27906 17.7001 5.24935 17.426 5.13582C17.1519 5.02229 16.9176 4.83003 16.7528 4.58336C16.588 4.33668 16.5 4.04667 16.5 3.75C16.5004 3.3523 16.6586 2.971 16.9398 2.68978C17.221 2.40856 17.6023 2.2504 18 2.25Z" fill="#3763FF"/>
</g>
<defs>
<clipPath id="clip0_486_623">
<rect width="24" height="24" fill="white"/>
</clipPath>
</defs>
</svg>
