<svg width="24" height="19" viewBox="0 0 24 19" fill="none" xmlns="http://www.w3.org/2000/svg">
<path d="M7.20027 17.3785H2.76029C1.77592 17.3785 1.28027 16.9535 1.28027 16.1093V9.20214C1.28027 8.35793 1.77592 7.93286 2.76029 7.93286H5.72029C6.70467 7.93286 7.20027 8.35793 7.20027 9.20214V10.2943" stroke="#fff" stroke-width="1.5" stroke-miterlimit="10" stroke-linecap="round" stroke-linejoin="round"/>
<path d="M7.3418 17.3704L16.8003 17.3704" stroke="#fff" stroke-width="1.5" stroke-miterlimit="10" stroke-linecap="round" stroke-linejoin="round"/>
<path d="M16.8082 17.3622L7.2082 17.3785L7.2002 5.20514C7.2002 4.65921 7.47221 4.154 7.91221 3.85252L11.1122 1.67698C11.6482 1.31031 12.3522 1.31031 12.8882 1.67698L16.0882 3.85252C16.5362 4.154 16.8002 4.65921 16.8002 5.20514L16.8082 17.3622Z" stroke="#fff" stroke-width="1.5" stroke-miterlimit="10" stroke-linecap="round" stroke-linejoin="round"/>
<path d="M7.2002 10.8518H16.8002" stroke="#fff" stroke-width="1.5" stroke-miterlimit="10" stroke-linecap="round" stroke-linejoin="round"/>
<path d="M12.0005 17.3704V14.3148" stroke="#fff" stroke-width="1.5" stroke-miterlimit="10" stroke-linecap="round" stroke-linejoin="round"/>
<path d="M12.0003 7.99999C12.663 7.99999 13.2003 7.45278 13.2003 6.77776C13.2003 6.10275 12.663 5.55554 12.0003 5.55554C11.3376 5.55554 10.8003 6.10275 10.8003 6.77776C10.8003 7.45278 11.3376 7.99999 12.0003 7.99999Z" stroke="#fff" stroke-width="1.5" stroke-miterlimit="10" stroke-linecap="round" stroke-linejoin="round"/>
<path d="M16.808 17.3785H21.248C22.2324 17.3785 22.728 16.9535 22.728 16.1093V9.20214C22.728 8.35793 22.2324 7.93286 21.248 7.93286H18.288C17.3036 7.93286 16.808 8.35793 16.808 9.20214V10.2943" stroke="#fff" stroke-width="1.5" stroke-miterlimit="10" stroke-linecap="round" stroke-linejoin="round"/>
<path d="M18.9683 12.6557L20.5683 12.6557" stroke="#fff" stroke-width="1.5" stroke-miterlimit="10" stroke-linecap="round" stroke-linejoin="round"/>
<path d="M3.44043 12.6557L5.04043 12.6557" stroke="#fff" stroke-width="1.5" stroke-miterlimit="10" stroke-linecap="round" stroke-linejoin="round"/>
</svg>
