<svg width="24" height="24" viewBox="0 0 24 24" fill="none" xmlns="http://www.w3.org/2000/svg">
<path d="M21.2037 8.76387L11.9104 4.15705C11.6305 4.01833 11.302 4.01833 11.0221 4.15705L3.53618 7.86791C2.79503 8.2353 2.79503 9.29243 3.53618 9.65983L4.59273 10.1836M21.2037 8.76387C21.2037 8.76387 22.9221 9.64723 22.9221 10.1836C22.9221 10.7199 22.9221 16.2725 22.9221 16.2725M21.2037 8.76387L18.3398 10.1836M18.3398 10.1836L11.9104 13.3707C11.6305 13.5094 11.302 13.5094 11.0221 13.3707L4.59273 10.1836M18.3398 10.1836V16.2156C18.3398 16.5813 18.1401 16.9179 17.8191 17.0932L11.9456 20.3013C11.6469 20.4645 11.2856 20.4645 10.9869 20.3013L5.11337 17.0932C4.79239 16.9179 4.59273 16.5813 4.59273 16.2156L4.59273 10.1836" stroke="#fff" stroke-width="1.5" stroke-linecap="round" stroke-linejoin="round"/>
</svg>
