<svg width="25" height="24" viewBox="0 0 25 24" fill="none" xmlns="http://www.w3.org/2000/svg">
<path d="M3.84997 2H12.75C13.49 2 14.1 2.61001 14.1 3.35001V4.82999C14.1 5.36999 13.76 6.04 13.43 6.38L10.53 8.94C10.13 9.28 9.85998 9.94999 9.85998 10.49V13.39C9.85998 13.79 9.59 14.33 9.25 14.54L8.31 15.15C7.43 15.69 6.21997 15.08 6.21997 14V10.43C6.21997 9.95999 5.94999 9.35001 5.67999 9.01001L3.11999 6.31C2.77999 5.97 2.51001 5.36999 2.51001 4.95999V3.41C2.50001 2.61 3.10997 2 3.84997 2Z" stroke="white" stroke-width="1.5" stroke-miterlimit="10" stroke-linecap="round" stroke-linejoin="round"/>
<path d="M2.5 12V15C2.5 20 4.5 22 9.5 22H15.5C20.5 22 22.5 20 22.5 15V9C22.5 5.88 21.72 3.91999 19.91 2.89999C19.4 2.60999 18.38 2.38999 17.45 2.23999" stroke="white" stroke-width="1.5" stroke-linecap="round" stroke-linejoin="round"/>
<path d="M13.5 13H18.5" stroke="white" stroke-width="1.5" stroke-linecap="round" stroke-linejoin="round"/>
<path d="M11.5 17H18.5" stroke="white" stroke-width="1.5" stroke-linecap="round" stroke-linejoin="round"/>
</svg>
