<svg width="70" height="71" viewBox="0 0 70 71" fill="none" xmlns="http://www.w3.org/2000/svg">
<path d="M26.2492 64.6666H43.7492C58.3325 64.6666 64.1658 58.8333 64.1658 44.2499V26.7499C64.1658 12.1666 58.3325 6.33325 43.7492 6.33325H26.2492C11.6659 6.33325 5.83252 12.1666 5.83252 26.7499V44.2499C5.83252 58.8333 11.6659 64.6666 26.2492 64.6666Z" stroke="#5A5A5A" stroke-width="3.92857" stroke-linecap="round" stroke-linejoin="round"/>
<path d="M26.2493 29.6666C29.471 29.6666 32.0827 27.0549 32.0827 23.8333C32.0827 20.6116 29.471 17.9999 26.2493 17.9999C23.0277 17.9999 20.416 20.6116 20.416 23.8333C20.416 27.0549 23.0277 29.6666 26.2493 29.6666Z" stroke="#5A5A5A" stroke-width="3.92857" stroke-linecap="round" stroke-linejoin="round"/>
<path d="M7.78662 55.7708L22.1658 46.1166C24.47 44.5708 27.795 44.7458 29.8658 46.525L30.8283 47.3708C33.1033 49.325 36.7783 49.325 39.0533 47.3708L51.1866 36.9583C53.4616 35.0041 57.1366 35.0041 59.4116 36.9583L64.1658 41.0416" stroke="#5A5A5A" stroke-width="3.92857" stroke-linecap="round" stroke-linejoin="round"/>
</svg>
